<svg width="519" height="519" viewBox="0 0 519 519" fill="none" xmlns="http://www.w3.org/2000/svg">
<g filter="url(#filter0_dd_343_286)">
<path d="M259.102 180C259.102 180 262.686 221.295 279.797 238.406C296.908 255.517 338.203 259.102 338.203 259.102C338.203 259.102 296.908 262.686 279.797 279.797C262.686 296.908 259.102 338.203 259.102 338.203C259.102 338.203 255.517 296.908 238.406 279.797C221.295 262.686 180 259.102 180 259.102C180 259.102 221.295 255.517 238.406 238.406C255.517 221.295 259.102 180 259.102 180Z" fill="url(#paint0_radial_343_286)"/>
<path d="M259.102 183.399C259.221 184.354 259.37 185.489 259.558 186.773C260.162 190.921 261.147 196.63 262.668 202.875C265.705 215.345 270.897 230.038 279.531 238.672C288.166 247.306 302.858 252.498 315.328 255.535C321.574 257.056 327.283 258.041 331.43 258.646C332.714 258.833 333.848 258.983 334.803 259.102C333.848 259.221 332.714 259.37 331.43 259.558C327.283 260.162 321.574 261.147 315.328 262.668C302.858 265.705 288.166 270.897 279.531 279.531C270.897 288.166 265.705 302.858 262.668 315.328C261.147 321.574 260.162 327.283 259.558 331.43C259.37 332.714 259.221 333.848 259.102 334.803C258.983 333.848 258.833 332.714 258.646 331.43C258.041 327.283 257.056 321.574 255.535 315.328C252.498 302.858 247.306 288.166 238.672 279.531C230.038 270.897 215.345 265.705 202.875 262.668C196.63 261.147 190.921 260.162 186.773 259.558C185.489 259.37 184.354 259.221 183.399 259.102C184.354 258.983 185.489 258.833 186.773 258.646C190.921 258.041 196.63 257.056 202.875 255.535C215.345 252.498 230.038 247.306 238.672 238.672C247.306 230.038 252.498 215.345 255.535 202.875C257.056 196.63 258.041 190.921 258.646 186.773C258.833 185.489 258.983 184.354 259.102 183.399Z" stroke="#2EEE34" stroke-width="0.75"/>
</g>
<g filter="url(#filter1_d_343_286)">
<path d="M259.102 164.724C259.245 165.865 259.422 167.199 259.641 168.696C260.396 173.881 261.628 181.018 263.529 188.826C267.325 204.414 273.818 222.787 284.617 233.586C295.417 244.385 313.789 250.878 329.377 254.674C337.185 256.575 344.322 257.807 349.507 258.562C351.003 258.781 352.338 258.958 353.479 259.102C352.338 259.245 351.003 259.422 349.507 259.641C344.322 260.396 337.185 261.628 329.377 263.529C313.789 267.325 295.417 273.818 284.617 284.617C273.818 295.417 267.325 313.789 263.529 329.377C261.628 337.185 260.396 344.322 259.641 349.507C259.422 351.003 259.245 352.338 259.102 353.479C258.958 352.338 258.781 351.003 258.562 349.507C257.807 344.322 256.575 337.185 254.674 329.377C250.878 313.789 244.385 295.417 233.586 284.617C222.787 273.818 204.414 267.325 188.826 263.529C181.018 261.628 173.881 260.396 168.696 259.641C167.199 259.422 165.865 259.245 164.724 259.102C165.865 258.958 167.199 258.781 168.696 258.562C173.881 257.807 181.018 256.575 188.826 254.674C204.414 250.878 222.787 244.385 233.586 233.586C244.385 222.787 250.878 204.414 254.674 188.826C256.575 181.018 257.807 173.881 258.562 168.696C258.781 167.199 258.958 165.865 259.102 164.724Z" stroke="url(#paint1_linear_343_286)" stroke-opacity="0.1" shape-rendering="crispEdges"/>
</g>
<g filter="url(#filter2_d_343_286)">
<path d="M258.877 152.194C259.048 153.582 259.268 155.255 259.546 157.162C260.396 162.993 261.78 171.021 263.919 179.803C268.189 197.338 275.49 217.992 287.626 230.128C299.762 242.264 320.417 249.565 337.952 253.835C346.734 255.973 354.76 257.358 360.592 258.208C362.499 258.486 364.172 258.706 365.559 258.877C364.172 259.048 362.499 259.268 360.592 259.546C354.76 260.396 346.734 261.78 337.952 263.919C320.417 268.189 299.762 275.49 287.626 287.626C275.49 299.762 268.189 320.417 263.919 337.952C261.78 346.734 260.396 354.761 259.546 360.592C259.268 362.499 259.048 364.172 258.877 365.56C258.705 364.172 258.486 362.499 258.208 360.592C257.358 354.761 255.973 346.734 253.835 337.952C249.564 320.417 242.264 299.762 230.128 287.626C217.991 275.49 197.338 268.189 179.802 263.919C171.021 261.78 162.993 260.396 157.162 259.546C155.255 259.268 153.582 259.048 152.194 258.877C153.582 258.706 155.255 258.486 157.162 258.208C162.993 257.358 171.021 255.974 179.802 253.835C197.338 249.565 217.992 242.264 230.128 230.128C242.264 217.992 249.564 197.338 253.835 179.803C255.973 171.021 257.358 162.993 258.208 157.162C258.486 155.255 258.705 153.582 258.877 152.194Z" stroke="url(#paint2_linear_343_286)" stroke-opacity="0.1" shape-rendering="crispEdges"/>
</g>
<g filter="url(#filter3_d_343_286)">
<path d="M258.876 138.353C259.077 140.006 259.344 142.06 259.691 144.439C260.647 150.998 262.205 160.026 264.61 169.903C269.414 189.629 277.624 212.85 291.264 226.49C304.904 240.13 328.125 248.34 347.851 253.144C357.728 255.549 366.756 257.107 373.315 258.063C375.693 258.41 377.747 258.676 379.4 258.876C377.747 259.077 375.693 259.344 373.315 259.691C366.756 260.647 357.728 262.205 347.851 264.61C328.125 269.414 304.904 277.624 291.264 291.264C277.624 304.904 269.414 328.125 264.61 347.851C262.205 357.728 260.647 366.756 259.691 373.315C259.344 375.693 259.077 377.747 258.876 379.4C258.676 377.747 258.41 375.693 258.063 373.315C257.107 366.756 255.549 357.728 253.144 347.851C248.34 328.125 240.13 304.904 226.49 291.264C212.85 277.624 189.629 269.414 169.903 264.61C160.026 262.205 150.998 260.647 144.439 259.691C142.06 259.344 140.006 259.077 138.353 258.876C140.006 258.676 142.06 258.41 144.439 258.063C150.998 257.107 160.026 255.549 169.903 253.144C189.629 248.34 212.85 240.13 226.49 226.49C240.13 212.85 248.34 189.629 253.144 169.903C255.549 160.026 257.107 150.998 258.063 144.439C258.41 142.06 258.676 140.006 258.876 138.353Z" stroke="url(#paint3_linear_343_286)" stroke-opacity="0.1" shape-rendering="crispEdges"/>
</g>
<g filter="url(#filter4_d_343_286)">
<path d="M258.876 122.762C259.108 124.703 259.428 127.196 259.855 130.125C260.931 137.503 262.682 147.658 265.387 158.767C270.791 180.958 280.025 207.065 295.357 222.397C310.689 237.729 336.797 246.963 358.988 252.367C370.097 255.072 380.252 256.823 387.629 257.899C390.558 258.326 393.05 258.645 394.991 258.876C393.05 259.108 390.559 259.428 387.629 259.855C380.252 260.93 370.097 262.682 358.988 265.387C336.797 270.791 310.689 280.025 295.357 295.357C280.025 310.689 270.791 336.797 265.387 358.988C262.682 370.097 260.93 380.252 259.855 387.629C259.428 390.559 259.108 393.05 258.876 394.991C258.645 393.05 258.326 390.558 257.899 387.629C256.823 380.252 255.072 370.097 252.367 358.988C246.963 336.797 237.729 310.689 222.397 295.357C207.065 280.025 180.958 270.791 158.767 265.387C147.658 262.682 137.503 260.931 130.125 259.855C127.196 259.428 124.703 259.108 122.762 258.876C124.703 258.645 127.196 258.326 130.125 257.899C137.503 256.823 147.658 255.072 158.767 252.367C180.958 246.963 207.065 237.729 222.397 222.397C237.729 207.065 246.963 180.958 252.367 158.767C255.072 147.658 256.823 137.503 257.899 130.125C258.326 127.196 258.645 124.703 258.876 122.762Z" stroke="url(#paint4_linear_343_286)" stroke-opacity="0.1" shape-rendering="crispEdges"/>
</g>
<g filter="url(#filter5_d_343_286)">
<path d="M258.784 105.819C259.046 108.058 259.421 111.03 259.938 114.573C261.142 122.834 263.105 134.206 266.134 146.646C272.186 171.498 282.524 200.725 299.683 217.884C316.842 235.043 346.069 245.382 370.921 251.434C383.362 254.464 394.733 256.425 402.995 257.629C406.538 258.146 409.509 258.521 411.749 258.784C409.509 259.046 406.538 259.421 402.995 259.938C394.733 261.142 383.362 263.105 370.921 266.134C346.069 272.186 316.842 282.524 299.683 299.683C282.524 316.842 272.186 346.069 266.134 370.921C263.105 383.362 261.142 394.733 259.938 402.995C259.421 406.538 259.046 409.509 258.784 411.749C258.521 409.509 258.146 406.538 257.629 402.995C256.425 394.733 254.464 383.362 251.434 370.921C245.382 346.069 235.043 316.842 217.884 299.683C200.725 282.524 171.498 272.186 146.646 266.134C134.206 263.105 122.834 261.142 114.573 259.938C111.03 259.421 108.058 259.046 105.819 258.784C108.058 258.521 111.03 258.146 114.573 257.629C122.834 256.425 134.206 254.464 146.646 251.434C171.498 245.382 200.725 235.044 217.884 217.884C235.044 200.725 245.382 171.498 251.434 146.646C254.464 134.206 256.425 122.834 257.629 114.573C258.146 111.03 258.521 108.058 258.784 105.819Z" stroke="url(#paint5_linear_343_286)" stroke-opacity="0.1" shape-rendering="crispEdges"/>
</g>
<defs>
<filter id="filter0_dd_343_286" x="0" y="0" width="518.203" height="518.203" filterUnits="userSpaceOnUse" color-interpolation-filters="sRGB">
<feFlood flood-opacity="0" result="BackgroundImageFix"/>
<feColorMatrix in="SourceAlpha" type="matrix" values="0 0 0 0 0 0 0 0 0 0 0 0 0 0 0 0 0 0 127 0" result="hardAlpha"/>
<feOffset/>
<feGaussianBlur stdDeviation="18"/>
<feComposite in2="hardAlpha" operator="out"/>
<feColorMatrix type="matrix" values="0 0 0 0 0 0 0 0 0 1 0 0 0 0 0.0333338 0 0 0 1 0"/>
<feBlend mode="normal" in2="BackgroundImageFix" result="effect1_dropShadow_343_286"/>
<feColorMatrix in="SourceAlpha" type="matrix" values="0 0 0 0 0 0 0 0 0 0 0 0 0 0 0 0 0 0 127 0" result="hardAlpha"/>
<feOffset/>
<feGaussianBlur stdDeviation="90"/>
<feComposite in2="hardAlpha" operator="out"/>
<feColorMatrix type="matrix" values="0 0 0 0 0.179549 0 0 0 0 0.933654 0 0 0 0 0.204686 0 0 0 1 0"/>
<feBlend mode="normal" in2="effect1_dropShadow_343_286" result="effect2_dropShadow_343_286"/>
<feBlend mode="normal" in="SourceGraphic" in2="effect2_dropShadow_343_286" result="shape"/>
</filter>
<filter id="filter1_d_343_286" x="115.225" y="115.225" width="287.754" height="287.754" filterUnits="userSpaceOnUse" color-interpolation-filters="sRGB">
<feFlood flood-opacity="0" result="BackgroundImageFix"/>
<feColorMatrix in="SourceAlpha" type="matrix" values="0 0 0 0 0 0 0 0 0 0 0 0 0 0 0 0 0 0 127 0" result="hardAlpha"/>
<feOffset/>
<feGaussianBlur stdDeviation="22.5"/>
<feComposite in2="hardAlpha" operator="out"/>
<feColorMatrix type="matrix" values="0 0 0 0 0 0 0 0 0 1 0 0 0 0 0.0333338 0 0 0 1 0"/>
<feBlend mode="normal" in2="BackgroundImageFix" result="effect1_dropShadow_343_286"/>
<feBlend mode="normal" in="SourceGraphic" in2="effect1_dropShadow_343_286" result="shape"/>
</filter>
<filter id="filter2_d_343_286" x="97.0154" y="97.0156" width="323.723" height="323.723" filterUnits="userSpaceOnUse" color-interpolation-filters="sRGB">
<feFlood flood-opacity="0" result="BackgroundImageFix"/>
<feColorMatrix in="SourceAlpha" type="matrix" values="0 0 0 0 0 0 0 0 0 0 0 0 0 0 0 0 0 0 127 0" result="hardAlpha"/>
<feOffset/>
<feGaussianBlur stdDeviation="25.3125"/>
<feComposite in2="hardAlpha" operator="out"/>
<feColorMatrix type="matrix" values="0 0 0 0 0 0 0 0 0 1 0 0 0 0 0.0333338 0 0 0 1 0"/>
<feBlend mode="normal" in2="BackgroundImageFix" result="effect1_dropShadow_343_286"/>
<feBlend mode="normal" in="SourceGraphic" in2="effect1_dropShadow_343_286" result="shape"/>
</filter>
<filter id="filter3_d_343_286" x="76.7827" y="76.7827" width="364.188" height="364.188" filterUnits="userSpaceOnUse" color-interpolation-filters="sRGB">
<feFlood flood-opacity="0" result="BackgroundImageFix"/>
<feColorMatrix in="SourceAlpha" type="matrix" values="0 0 0 0 0 0 0 0 0 0 0 0 0 0 0 0 0 0 127 0" result="hardAlpha"/>
<feOffset/>
<feGaussianBlur stdDeviation="28.4766"/>
<feComposite in2="hardAlpha" operator="out"/>
<feColorMatrix type="matrix" values="0 0 0 0 0 0 0 0 0 1 0 0 0 0 0.0333338 0 0 0 1 0"/>
<feBlend mode="normal" in2="BackgroundImageFix" result="effect1_dropShadow_343_286"/>
<feBlend mode="normal" in="SourceGraphic" in2="effect1_dropShadow_343_286" result="shape"/>
</filter>
<filter id="filter4_d_343_286" x="54.021" y="54.021" width="409.712" height="409.712" filterUnits="userSpaceOnUse" color-interpolation-filters="sRGB">
<feFlood flood-opacity="0" result="BackgroundImageFix"/>
<feColorMatrix in="SourceAlpha" type="matrix" values="0 0 0 0 0 0 0 0 0 0 0 0 0 0 0 0 0 0 127 0" result="hardAlpha"/>
<feOffset/>
<feGaussianBlur stdDeviation="32.0361"/>
<feComposite in2="hardAlpha" operator="out"/>
<feColorMatrix type="matrix" values="0 0 0 0 0 0 0 0 0 1 0 0 0 0 0.0333338 0 0 0 1 0"/>
<feBlend mode="normal" in2="BackgroundImageFix" result="effect1_dropShadow_343_286"/>
<feBlend mode="normal" in="SourceGraphic" in2="effect1_dropShadow_343_286" result="shape"/>
</filter>
<filter id="filter5_d_343_286" x="29.345" y="29.345" width="458.878" height="458.877" filterUnits="userSpaceOnUse" color-interpolation-filters="sRGB">
<feFlood flood-opacity="0" result="BackgroundImageFix"/>
<feColorMatrix in="SourceAlpha" type="matrix" values="0 0 0 0 0 0 0 0 0 0 0 0 0 0 0 0 0 0 127 0" result="hardAlpha"/>
<feOffset/>
<feGaussianBlur stdDeviation="35.8805"/>
<feComposite in2="hardAlpha" operator="out"/>
<feColorMatrix type="matrix" values="0 0 0 0 0 0 0 0 0 1 0 0 0 0 0.0333338 0 0 0 1 0"/>
<feBlend mode="normal" in2="BackgroundImageFix" result="effect1_dropShadow_343_286"/>
<feBlend mode="normal" in="SourceGraphic" in2="effect1_dropShadow_343_286" result="shape"/>
</filter>
<radialGradient id="paint0_radial_343_286" cx="0" cy="0" r="1" gradientUnits="userSpaceOnUse" gradientTransform="translate(259.102 259.102) rotate(90) scale(79.1016)">
<stop stop-color="#2EEE34"/>
<stop offset="1" stop-color="#ACFFAE"/>
</radialGradient>
<linearGradient id="paint1_linear_343_286" x1="259.102" y1="160.225" x2="259.102" y2="357.979" gradientUnits="userSpaceOnUse">
<stop stop-color="#2EEE34"/>
<stop offset="1" stop-color="#2EEE34" stop-opacity="0"/>
</linearGradient>
<linearGradient id="paint2_linear_343_286" x1="258.877" y1="147.641" x2="258.877" y2="370.114" gradientUnits="userSpaceOnUse">
<stop stop-color="#2EEE34"/>
<stop offset="1" stop-color="#2EEE34" stop-opacity="0"/>
</linearGradient>
<linearGradient id="paint3_linear_343_286" x1="258.877" y1="133.736" x2="258.877" y2="384.018" gradientUnits="userSpaceOnUse">
<stop stop-color="#2EEE34"/>
<stop offset="1" stop-color="#2EEE34" stop-opacity="0"/>
</linearGradient>
<linearGradient id="paint4_linear_343_286" x1="258.877" y1="118.093" x2="258.877" y2="399.661" gradientUnits="userSpaceOnUse">
<stop stop-color="#2EEE34"/>
<stop offset="1" stop-color="#2EEE34" stop-opacity="0"/>
</linearGradient>
<linearGradient id="paint5_linear_343_286" x1="258.784" y1="101.106" x2="258.784" y2="416.462" gradientUnits="userSpaceOnUse">
<stop stop-color="#2EEE34"/>
<stop offset="1" stop-color="#2EEE34" stop-opacity="0"/>
</linearGradient>
</defs>
</svg>
