<svg width="460" height="390" viewBox="0 0 460 390" fill="none" xmlns="http://www.w3.org/2000/svg">
<g filter="url(#filter0_dd_344_299)">
<g filter="url(#filter1_i_344_299)">
<path d="M280.2 34.8103C299.68 34.8022 318.56 38.249 335.317 44.873C349.202 50.3621 361.305 57.9079 370.981 67.0642C350.183 69.5225 329.753 79.6627 315.723 94.9236C311.87 92.0493 307.452 89.612 302.589 87.6895C294.399 84.4518 285.171 82.7665 275.649 82.7704C266.128 82.7743 256.579 84.4669 247.774 87.7115C238.968 90.9562 231.152 95.6627 224.956 101.451C218.76 107.238 214.357 113.946 212.103 121.032C209.848 128.118 209.806 135.386 211.978 142.247C214.15 149.108 218.476 155.372 224.608 160.533C230.678 165.642 238.351 169.528 247.016 171.886L247.075 171.782C267.284 177.197 283.531 186.05 296.65 198.589C309.769 211.129 317.984 226.304 320.463 242.575C322.941 258.845 319.594 275.631 310.762 291.23C301.93 306.828 287.926 320.684 270.173 331.388C252.42 342.093 231.549 349.267 209.68 352.181C187.81 355.095 165.72 353.646 145.653 347.981C125.586 342.316 108.256 332.636 95.4218 319.924C85.5653 310.162 78.6314 298.878 74.9802 286.776C95.8362 291.927 119.245 287.404 138.283 276.145C140.216 280.871 143.206 285.288 147.159 289.204C153.432 295.417 161.903 300.148 171.711 302.917C181.52 305.686 192.317 306.394 203.006 304.969C213.696 303.545 223.897 300.039 232.574 294.807C241.251 289.574 248.097 282.802 252.414 275.178C256.731 267.554 258.366 259.349 257.154 251.396C255.943 243.444 251.928 236.026 245.516 229.897C239.103 223.768 231.452 219.929 221.574 217.282L221.653 217.14C203.912 212.317 188.203 204.364 175.776 193.905C163.231 183.346 154.38 170.531 149.936 156.494C145.492 142.457 145.579 127.588 150.191 113.09C154.803 98.5922 163.81 84.8688 176.486 73.0275C189.163 61.1862 205.154 51.5579 223.169 44.9195C241.184 38.2812 260.72 34.8183 280.2 34.8103Z" fill="url(#paint0_radial_344_299)"/>
</g>
<circle cx="57.375" cy="57.375" r="56.875" transform="matrix(0.965926 0.258819 -0.48481 0.87462 79.3134 165.881)" fill="url(#paint1_radial_344_299)" stroke="#2EEE34"/>
<circle cx="57.375" cy="57.375" r="56.875" transform="matrix(0.965926 0.258819 -0.48481 0.87462 341.033 61.1836)" fill="url(#paint2_radial_344_299)" stroke="#2EEE34"/>
</g>
<defs>
<filter id="filter0_dd_344_299" x="34.8949" y="24.8101" width="405.764" height="364.836" filterUnits="userSpaceOnUse" color-interpolation-filters="sRGB">
<feFlood flood-opacity="0" result="BackgroundImageFix"/>
<feColorMatrix in="SourceAlpha" type="matrix" values="0 0 0 0 0 0 0 0 0 0 0 0 0 0 0 0 0 0 127 0" result="hardAlpha"/>
<feOffset dy="27"/>
<feGaussianBlur stdDeviation="4.5"/>
<feComposite in2="hardAlpha" operator="out"/>
<feColorMatrix type="matrix" values="0 0 0 0 0.179549 0 0 0 0 0.933654 0 0 0 0 0.204686 0 0 0 0.1 0"/>
<feBlend mode="normal" in2="BackgroundImageFix" result="effect1_dropShadow_344_299"/>
<feColorMatrix in="SourceAlpha" type="matrix" values="0 0 0 0 0 0 0 0 0 0 0 0 0 0 0 0 0 0 127 0" result="hardAlpha"/>
<feOffset/>
<feGaussianBlur stdDeviation="5"/>
<feComposite in2="hardAlpha" operator="out"/>
<feColorMatrix type="matrix" values="0 0 0 0 0.179549 0 0 0 0 0.933654 0 0 0 0 0.204686 0 0 0 1 0"/>
<feBlend mode="normal" in2="effect1_dropShadow_344_299" result="effect2_dropShadow_344_299"/>
<feBlend mode="normal" in="SourceGraphic" in2="effect2_dropShadow_344_299" result="shape"/>
</filter>
<filter id="filter1_i_344_299" x="74.9801" y="34.8101" width="296.001" height="318.836" filterUnits="userSpaceOnUse" color-interpolation-filters="sRGB">
<feFlood flood-opacity="0" result="BackgroundImageFix"/>
<feBlend mode="normal" in="SourceGraphic" in2="BackgroundImageFix" result="shape"/>
<feColorMatrix in="SourceAlpha" type="matrix" values="0 0 0 0 0 0 0 0 0 0 0 0 0 0 0 0 0 0 127 0" result="hardAlpha"/>
<feOffset/>
<feGaussianBlur stdDeviation="1"/>
<feComposite in2="hardAlpha" operator="arithmetic" k2="-1" k3="1"/>
<feColorMatrix type="matrix" values="0 0 0 0 0.179549 0 0 0 0 0.933654 0 0 0 0 0.204686 0 0 0 1 0"/>
<feBlend mode="normal" in2="shape" result="effect1_innerShadow_344_299"/>
</filter>
<radialGradient id="paint0_radial_344_299" cx="0" cy="0" r="1" gradientTransform="matrix(-85.7658 154.726 -114.534 -30.6893 234.673 194.698)" gradientUnits="userSpaceOnUse">
<stop stop-color="#2EEE34"/>
<stop offset="1" stop-color="#ACFFAE"/>
</radialGradient>
<radialGradient id="paint1_radial_344_299" cx="0" cy="0" r="1" gradientUnits="userSpaceOnUse" gradientTransform="translate(57.8022 57.4652) rotate(90) scale(57.4651 57.8018)">
<stop stop-color="#2EEE34"/>
<stop offset="1" stop-color="#ACFFAE"/>
</radialGradient>
<radialGradient id="paint2_radial_344_299" cx="0" cy="0" r="1" gradientUnits="userSpaceOnUse" gradientTransform="translate(57.8022 57.4652) rotate(90) scale(57.4651 57.8018)">
<stop stop-color="#2EEE34"/>
<stop offset="1" stop-color="#ACFFAE"/>
</radialGradient>
</defs>
</svg>
