<svg width="908" height="909" viewBox="0 0 908 909" fill="none" xmlns="http://www.w3.org/2000/svg">
<g filter="url(#filter0_d_307_627)">
<rect width="193.5" height="195.75" rx="18" transform="matrix(0.742529 -0.669814 -0.669814 -0.742529 447.694 591.537)" fill="#D9D9D9"/>
<rect width="193.5" height="195.75" rx="18" transform="matrix(0.742529 -0.669814 -0.669814 -0.742529 447.694 591.537)" fill="url(#paint0_radial_307_627)"/>
<rect x="0.0818043" y="-1.58889" width="191.25" height="193.5" rx="16.875" transform="matrix(0.742529 -0.669814 -0.669814 -0.742529 446.651 588.823)" stroke="url(#paint1_linear_307_627)" stroke-width="2.25"/>
</g>
<rect x="0.0363575" y="-0.706172" width="240.875" height="243.688" rx="22" transform="matrix(0.742529 -0.669814 -0.669814 -0.742529 447.009 624.071)" stroke="url(#paint2_linear_307_627)" stroke-opacity="0.1"/>
<rect x="0.0363575" y="-0.706172" width="240.875" height="243.688" rx="22" transform="matrix(0.742529 -0.669814 -0.669814 -0.742529 447.009 639.071)" stroke="url(#paint3_linear_307_627)" stroke-opacity="0.1"/>
<rect x="0.0363575" y="-0.706172" width="240.875" height="243.688" rx="22" transform="matrix(0.742529 -0.669814 -0.669814 -0.742529 447.009 654.071)" stroke="url(#paint4_linear_307_627)" stroke-opacity="0.1"/>
<rect x="0.0363575" y="-0.706172" width="240.875" height="243.688" rx="22" transform="matrix(0.742529 -0.669814 -0.669814 -0.742529 447.009 669.071)" stroke="url(#paint5_linear_307_627)" stroke-opacity="0.1"/>
<rect x="0.0363575" y="-0.706172" width="240.875" height="243.688" rx="22" transform="matrix(0.742529 -0.669814 -0.669814 -0.742529 447.009 684.071)" stroke="url(#paint6_linear_307_627)" stroke-opacity="0.1"/>
<rect x="0.0363575" y="-0.706172" width="240.875" height="243.688" rx="22" transform="matrix(0.742529 -0.669814 -0.669814 -0.742529 447.009 699.071)" stroke="url(#paint7_linear_307_627)" stroke-opacity="0.1"/>
<rect x="0.0363575" y="-0.706172" width="240.875" height="243.688" rx="22" transform="matrix(0.742529 -0.669814 -0.669814 -0.742529 447.009 714.071)" stroke="url(#paint8_linear_307_627)" stroke-opacity="0.1"/>
<rect x="0.0363575" y="-0.706172" width="240.875" height="243.688" rx="22" transform="matrix(0.742529 -0.669814 -0.669814 -0.742529 447.009 729.071)" stroke="url(#paint9_linear_307_627)" stroke-opacity="0.1"/>
<rect x="0.0363575" y="-0.706172" width="240.875" height="243.688" rx="22" transform="matrix(0.742529 -0.669814 -0.669814 -0.742529 447.009 744.071)" stroke="url(#paint10_linear_307_627)" stroke-opacity="0.1"/>
<rect x="0.0363575" y="-0.706172" width="240.875" height="243.688" rx="22" transform="matrix(0.742529 -0.669814 -0.669814 -0.742529 447.009 759.071)" stroke="url(#paint11_linear_307_627)" stroke-opacity="0.1"/>
<rect x="0.0363575" y="-0.706172" width="240.875" height="243.688" rx="22" transform="matrix(0.742529 -0.669814 -0.669814 -0.742529 447.009 774.071)" stroke="url(#paint12_linear_307_627)" stroke-opacity="0.1"/>
<rect x="0.0363575" y="-0.706172" width="240.875" height="243.688" rx="22" transform="matrix(0.742529 -0.669814 -0.669814 -0.742529 447.009 789.071)" stroke="url(#paint13_linear_307_627)" stroke-opacity="0.1"/>
<rect x="0.0363575" y="-0.706172" width="240.875" height="243.688" rx="22" transform="matrix(0.742529 -0.669814 -0.669814 -0.742529 447.009 804.071)" stroke="url(#paint14_linear_307_627)" stroke-opacity="0.1"/>
<rect x="0.0363575" y="-0.706172" width="240.875" height="243.688" rx="22" transform="matrix(0.742529 -0.669814 -0.669814 -0.742529 447.009 819.071)" stroke="url(#paint15_linear_307_627)" stroke-opacity="0.1"/>
<rect x="0.0363575" y="-0.706172" width="240.875" height="243.688" rx="22" transform="matrix(0.742529 -0.669814 -0.669814 -0.742529 447.009 834.071)" stroke="url(#paint16_linear_307_627)" stroke-opacity="0.1"/>
<rect x="0.0363575" y="-0.706172" width="240.875" height="243.688" rx="22" transform="matrix(0.742529 -0.669814 -0.669814 -0.742529 447.009 849.071)" stroke="url(#paint17_linear_307_627)" stroke-opacity="0.1"/>
<rect x="0.0363575" y="-0.706172" width="240.875" height="243.688" rx="22" transform="matrix(0.742529 -0.669814 -0.669814 -0.742529 447.009 864.071)" stroke="url(#paint18_linear_307_627)" stroke-opacity="0.1"/>
<defs>
<filter id="filter0_d_307_627" x="0" y="0" width="907.951" height="908.115" filterUnits="userSpaceOnUse" color-interpolation-filters="sRGB">
<feFlood flood-opacity="0" result="BackgroundImageFix"/>
<feColorMatrix in="SourceAlpha" type="matrix" values="0 0 0 0 0 0 0 0 0 0 0 0 0 0 0 0 0 0 127 0" result="hardAlpha"/>
<feOffset/>
<feGaussianBlur stdDeviation="162"/>
<feComposite in2="hardAlpha" operator="out"/>
<feColorMatrix type="matrix" values="0 0 0 0 0.179549 0 0 0 0 0.933654 0 0 0 0 0.204686 0 0 0 1 0"/>
<feBlend mode="normal" in2="BackgroundImageFix" result="effect1_dropShadow_307_627"/>
<feBlend mode="normal" in="SourceGraphic" in2="effect1_dropShadow_307_627" result="shape"/>
</filter>
<radialGradient id="paint0_radial_307_627" cx="0" cy="0" r="1" gradientUnits="userSpaceOnUse" gradientTransform="translate(96.75 97.875) rotate(90) scale(97.875 96.75)">
<stop stop-color="#2EEE34"/>
<stop offset="1" stop-color="#ACFFAE"/>
</radialGradient>
<linearGradient id="paint1_linear_307_627" x1="96.75" y1="0" x2="96.75" y2="195.75" gradientUnits="userSpaceOnUse">
<stop stop-color="#2EEE34"/>
<stop offset="0.466346" stop-color="#2EEE34" stop-opacity="0"/>
<stop offset="1" stop-color="#2EEE34"/>
</linearGradient>
<linearGradient id="paint2_linear_307_627" x1="7.84526" y1="2.79331" x2="182.921" y2="191.65" gradientUnits="userSpaceOnUse">
<stop stop-color="#2EEE34"/>
<stop offset="0.567308" stop-color="#2EEE34" stop-opacity="0"/>
</linearGradient>
<linearGradient id="paint3_linear_307_627" x1="7.84526" y1="2.79331" x2="182.921" y2="191.65" gradientUnits="userSpaceOnUse">
<stop stop-color="#2EEE34"/>
<stop offset="0.567308" stop-color="#2EEE34" stop-opacity="0"/>
</linearGradient>
<linearGradient id="paint4_linear_307_627" x1="7.84526" y1="2.79331" x2="182.921" y2="191.65" gradientUnits="userSpaceOnUse">
<stop stop-color="#2EEE34"/>
<stop offset="0.567308" stop-color="#2EEE34" stop-opacity="0"/>
</linearGradient>
<linearGradient id="paint5_linear_307_627" x1="7.84526" y1="2.79331" x2="182.921" y2="191.65" gradientUnits="userSpaceOnUse">
<stop stop-color="#2EEE34"/>
<stop offset="0.567308" stop-color="#2EEE34" stop-opacity="0"/>
</linearGradient>
<linearGradient id="paint6_linear_307_627" x1="7.84526" y1="2.79331" x2="182.921" y2="191.65" gradientUnits="userSpaceOnUse">
<stop stop-color="#2EEE34"/>
<stop offset="0.567308" stop-color="#2EEE34" stop-opacity="0"/>
</linearGradient>
<linearGradient id="paint7_linear_307_627" x1="7.84526" y1="2.79331" x2="182.921" y2="191.65" gradientUnits="userSpaceOnUse">
<stop stop-color="#2EEE34"/>
<stop offset="0.567308" stop-color="#2EEE34" stop-opacity="0"/>
</linearGradient>
<linearGradient id="paint8_linear_307_627" x1="7.84526" y1="2.79331" x2="182.921" y2="191.65" gradientUnits="userSpaceOnUse">
<stop stop-color="#2EEE34"/>
<stop offset="0.567308" stop-color="#2EEE34" stop-opacity="0"/>
</linearGradient>
<linearGradient id="paint9_linear_307_627" x1="7.84526" y1="2.79331" x2="182.921" y2="191.65" gradientUnits="userSpaceOnUse">
<stop stop-color="#2EEE34"/>
<stop offset="0.567308" stop-color="#2EEE34" stop-opacity="0"/>
</linearGradient>
<linearGradient id="paint10_linear_307_627" x1="7.84526" y1="2.79331" x2="182.921" y2="191.65" gradientUnits="userSpaceOnUse">
<stop stop-color="#2EEE34"/>
<stop offset="0.567308" stop-color="#2EEE34" stop-opacity="0"/>
</linearGradient>
<linearGradient id="paint11_linear_307_627" x1="7.84526" y1="2.79331" x2="182.921" y2="191.65" gradientUnits="userSpaceOnUse">
<stop stop-color="#2EEE34"/>
<stop offset="0.567308" stop-color="#2EEE34" stop-opacity="0"/>
</linearGradient>
<linearGradient id="paint12_linear_307_627" x1="7.84526" y1="2.79331" x2="182.921" y2="191.65" gradientUnits="userSpaceOnUse">
<stop stop-color="#2EEE34"/>
<stop offset="0.567308" stop-color="#2EEE34" stop-opacity="0"/>
</linearGradient>
<linearGradient id="paint13_linear_307_627" x1="7.84526" y1="2.79331" x2="182.921" y2="191.65" gradientUnits="userSpaceOnUse">
<stop stop-color="#2EEE34"/>
<stop offset="0.567308" stop-color="#2EEE34" stop-opacity="0"/>
</linearGradient>
<linearGradient id="paint14_linear_307_627" x1="7.84526" y1="2.79331" x2="182.921" y2="191.65" gradientUnits="userSpaceOnUse">
<stop stop-color="#2EEE34"/>
<stop offset="0.567308" stop-color="#2EEE34" stop-opacity="0"/>
</linearGradient>
<linearGradient id="paint15_linear_307_627" x1="7.84526" y1="2.79331" x2="182.921" y2="191.65" gradientUnits="userSpaceOnUse">
<stop stop-color="#2EEE34"/>
<stop offset="0.567308" stop-color="#2EEE34" stop-opacity="0"/>
</linearGradient>
<linearGradient id="paint16_linear_307_627" x1="7.84526" y1="2.79331" x2="182.921" y2="191.65" gradientUnits="userSpaceOnUse">
<stop stop-color="#2EEE34"/>
<stop offset="0.567308" stop-color="#2EEE34" stop-opacity="0"/>
</linearGradient>
<linearGradient id="paint17_linear_307_627" x1="7.84526" y1="2.79331" x2="182.921" y2="191.65" gradientUnits="userSpaceOnUse">
<stop stop-color="#2EEE34"/>
<stop offset="0.567308" stop-color="#2EEE34" stop-opacity="0"/>
</linearGradient>
<linearGradient id="paint18_linear_307_627" x1="7.84526" y1="2.79331" x2="182.921" y2="191.65" gradientUnits="userSpaceOnUse">
<stop stop-color="#2EEE34"/>
<stop offset="0.567308" stop-color="#2EEE34" stop-opacity="0"/>
</linearGradient>
</defs>
</svg>
