<svg width="610" height="610" viewBox="0 0 610 610" fill="none" xmlns="http://www.w3.org/2000/svg">
<path d="M47 250.981V360C47 360 79.68 307 169.693 307C256.84 307 274.5 346.5 274.5 346.5L257.413 304.235L265 266.5C265 266.5 256.84 295 169.693 295C80 295 47 250.981 47 250.981Z" fill="url(#paint0_linear_307_388)"/>
<path d="M286.079 370.226C294.674 372.707 303.674 373.471 312.565 372.474C321.455 371.477 330.062 368.739 337.895 364.416C345.727 360.093 352.631 354.269 358.213 347.277C363.795 340.286 367.945 332.264 370.426 323.668C372.907 315.073 373.671 306.073 372.674 297.182C371.678 288.292 368.939 279.685 364.616 271.852C360.293 264.02 354.469 257.116 347.478 251.534C340.486 245.952 332.464 241.802 323.868 239.321C315.273 236.84 306.273 236.076 297.383 237.073C288.492 238.07 279.885 240.808 272.052 245.131C264.22 249.454 257.316 255.278 251.734 262.269C246.153 269.261 242.003 277.283 239.521 285.879C237.04 294.474 236.276 303.474 237.273 312.364C238.27 321.255 241.008 329.862 245.331 337.695C249.655 345.527 255.478 352.431 262.47 358.013C269.461 363.594 277.484 367.744 286.079 370.226L286.079 370.226Z" stroke="url(#paint1_linear_307_388)" stroke-opacity="0.1"/>
<path d="M283.7 378.467C293.377 381.261 303.51 382.121 313.521 380.999C323.531 379.877 333.222 376.793 342.04 371.926C350.859 367.058 358.632 360.501 364.917 352.629C371.201 344.758 375.874 335.725 378.668 326.047C381.461 316.37 382.321 306.237 381.199 296.227C380.077 286.216 376.994 276.526 372.126 267.707C367.258 258.888 360.701 251.115 352.83 244.83C344.958 238.546 335.925 233.873 326.248 231.08C316.57 228.286 306.437 227.426 296.427 228.548C286.417 229.67 276.726 232.753 267.907 237.621C259.089 242.489 251.315 249.046 245.031 256.917C238.746 264.789 234.073 273.822 231.28 283.5C228.486 293.177 227.626 303.31 228.748 313.32C229.871 323.33 232.954 333.021 237.821 341.84C242.689 350.659 249.246 358.432 257.118 364.717C264.99 371.001 274.022 375.674 283.7 378.467L283.7 378.467Z" stroke="url(#paint2_linear_307_388)" stroke-opacity="0.1"/>
<path d="M280.591 389.897C291.73 393.112 303.393 394.102 314.914 392.81C326.435 391.519 337.589 387.97 347.739 382.367C357.889 376.765 366.837 369.218 374.07 360.158C381.303 351.097 386.681 340.701 389.897 329.562C393.112 318.424 394.102 306.761 392.811 295.239C391.519 283.718 387.97 272.564 382.368 262.414C376.765 252.264 369.218 243.317 360.158 236.083C351.098 228.85 340.701 223.472 329.563 220.257C318.424 217.041 306.761 216.051 295.239 217.343C283.718 218.635 272.564 222.183 262.414 227.786C252.264 233.388 243.317 240.935 236.084 249.995C228.85 259.056 223.472 269.452 220.257 280.591C217.041 291.729 216.051 303.392 217.343 314.914C218.635 326.435 222.183 337.589 227.786 347.739C233.388 357.889 240.935 366.836 249.996 374.07C259.056 381.303 269.452 386.681 280.591 389.897L280.591 389.897Z" stroke="url(#paint3_linear_307_388)" stroke-opacity="0.1"/>
<path d="M276.601 401.846C289.364 405.53 302.728 406.665 315.929 405.184C329.13 403.704 341.911 399.638 353.541 393.219C365.171 386.799 375.423 378.152 383.711 367.77C391.999 357.389 398.161 345.477 401.846 332.714C405.53 319.951 406.665 306.587 405.184 293.385C403.704 280.184 399.638 267.403 393.219 255.773C386.799 244.143 378.152 233.892 367.77 225.603C357.389 217.315 345.477 211.153 332.714 207.469C319.951 203.784 306.587 202.65 293.385 204.13C280.184 205.61 267.403 209.676 255.773 216.096C244.143 222.515 233.892 231.163 225.603 241.544C217.315 251.926 211.153 263.838 207.469 276.601C203.784 289.364 202.65 302.728 204.13 315.929C205.61 329.13 209.676 341.911 216.096 353.541C222.515 365.171 231.163 375.423 241.544 383.711C251.926 391.999 263.838 398.161 276.601 401.846L276.601 401.846Z" stroke="url(#paint4_linear_307_388)" stroke-opacity="0.1"/>
<g filter="url(#filter0_dd_307_388)">
<mask id="path-6-inside-1_307_388" fill="white">
<path d="M250 304.9C250 335.22 274.58 359.8 304.9 359.8C335.22 359.8 359.8 335.22 359.8 304.9C359.8 274.58 335.22 250 304.9 250C274.58 250 250 274.58 250 304.9ZM330.467 304.9C330.467 319.02 319.02 330.467 304.9 330.467C290.78 330.467 279.333 319.02 279.333 304.9C279.333 290.78 290.78 279.333 304.9 279.333C319.02 279.333 330.467 290.78 330.467 304.9Z"/>
</mask>
<path d="M250 304.9C250 335.22 274.58 359.8 304.9 359.8C335.22 359.8 359.8 335.22 359.8 304.9C359.8 274.58 335.22 250 304.9 250C274.58 250 250 274.58 250 304.9ZM330.467 304.9C330.467 319.02 319.02 330.467 304.9 330.467C290.78 330.467 279.333 319.02 279.333 304.9C279.333 290.78 290.78 279.333 304.9 279.333C319.02 279.333 330.467 290.78 330.467 304.9Z" fill="url(#paint5_radial_307_388)"/>
<path d="M250 304.9C250 335.22 274.58 359.8 304.9 359.8C335.22 359.8 359.8 335.22 359.8 304.9C359.8 274.58 335.22 250 304.9 250C274.58 250 250 274.58 250 304.9ZM330.467 304.9C330.467 319.02 319.02 330.467 304.9 330.467C290.78 330.467 279.333 319.02 279.333 304.9C279.333 290.78 290.78 279.333 304.9 279.333C319.02 279.333 330.467 290.78 330.467 304.9Z" stroke="url(#paint6_linear_307_388)" stroke-opacity="0.8" stroke-width="1.44" mask="url(#path-6-inside-1_307_388)"/>
</g>
<defs>
<filter id="filter0_dd_307_388" x="0" y="0" width="609.8" height="609.8" filterUnits="userSpaceOnUse" color-interpolation-filters="sRGB">
<feFlood flood-opacity="0" result="BackgroundImageFix"/>
<feColorMatrix in="SourceAlpha" type="matrix" values="0 0 0 0 0 0 0 0 0 0 0 0 0 0 0 0 0 0 127 0" result="hardAlpha"/>
<feOffset/>
<feGaussianBlur stdDeviation="12"/>
<feComposite in2="hardAlpha" operator="out"/>
<feColorMatrix type="matrix" values="0 0 0 0 0.179549 0 0 0 0 0.933654 0 0 0 0 0.204686 0 0 0 1 0"/>
<feBlend mode="normal" in2="BackgroundImageFix" result="effect1_dropShadow_307_388"/>
<feColorMatrix in="SourceAlpha" type="matrix" values="0 0 0 0 0 0 0 0 0 0 0 0 0 0 0 0 0 0 127 0" result="hardAlpha"/>
<feOffset/>
<feGaussianBlur stdDeviation="125"/>
<feComposite in2="hardAlpha" operator="out"/>
<feColorMatrix type="matrix" values="0 0 0 0 0.179549 0 0 0 0 0.933654 0 0 0 0 0.204686 0 0 0 0.5 0"/>
<feBlend mode="normal" in2="effect1_dropShadow_307_388" result="effect2_dropShadow_307_388"/>
<feBlend mode="normal" in="SourceGraphic" in2="effect2_dropShadow_307_388" result="shape"/>
</filter>
<linearGradient id="paint0_linear_307_388" x1="47" y1="296" x2="233.333" y2="296.272" gradientUnits="userSpaceOnUse">
<stop stop-color="#A8FFAB" stop-opacity="0"/>
<stop offset="0.110577" stop-color="#A0FEA3" stop-opacity="0.0643657"/>
<stop offset="0.322115" stop-color="#91FC95" stop-opacity="0.1875"/>
<stop offset="0.586538" stop-color="#7BF97F" stop-opacity="0.367588"/>
<stop offset="0.783654" stop-color="#48F24E" stop-opacity="0.783654"/>
<stop offset="1" stop-color="#2EEE34" stop-opacity="0.8"/>
</linearGradient>
<linearGradient id="paint1_linear_307_388" x1="304.974" y1="373.398" x2="304.974" y2="236.148" gradientUnits="userSpaceOnUse">
<stop stop-color="#2EEE34"/>
<stop offset="1" stop-color="#1A881E" stop-opacity="0"/>
</linearGradient>
<linearGradient id="paint2_linear_307_388" x1="304.974" y1="381.977" x2="304.974" y2="227.57" gradientUnits="userSpaceOnUse">
<stop stop-color="#2EEE34"/>
<stop offset="1" stop-color="#1A881E" stop-opacity="0"/>
</linearGradient>
<linearGradient id="paint3_linear_307_388" x1="305.077" y1="393.86" x2="305.077" y2="216.293" gradientUnits="userSpaceOnUse">
<stop stop-color="#2EEE34"/>
<stop offset="1" stop-color="#1A881E" stop-opacity="0"/>
</linearGradient>
<linearGradient id="paint4_linear_307_388" x1="304.657" y1="406.314" x2="304.657" y2="203" gradientUnits="userSpaceOnUse">
<stop stop-color="#2EEE34"/>
<stop offset="1" stop-color="#1A881E" stop-opacity="0"/>
</linearGradient>
<radialGradient id="paint5_radial_307_388" cx="0" cy="0" r="1" gradientUnits="userSpaceOnUse" gradientTransform="translate(304.9 304.9) rotate(90) scale(54.9)">
<stop stop-color="#2EEE34"/>
<stop offset="1" stop-color="#ACFFAE"/>
</radialGradient>
<linearGradient id="paint6_linear_307_388" x1="251.926" y1="305.126" x2="356.426" y2="303.626" gradientUnits="userSpaceOnUse">
<stop stop-color="#2EEE34" stop-opacity="0"/>
<stop offset="1" stop-color="#2EEE34"/>
</linearGradient>
</defs>
</svg>
