<svg width="251" height="250" viewBox="0 0 251 250" fill="none" xmlns="http://www.w3.org/2000/svg">
<path d="M207.226 130.739C207.226 176.406 170.205 213.426 124.538 213.426C78.8713 213.426 41.8508 176.406 41.8508 130.739C41.8508 85.0717 78.8713 48.0513 124.538 48.0513C170.205 48.0513 207.226 85.0717 207.226 130.739ZM42.6777 130.739C42.6777 175.949 79.328 212.599 124.538 212.599C169.749 212.599 206.399 175.949 206.399 130.739C206.399 85.5284 169.749 48.8781 124.538 48.8781C79.328 48.8781 42.6777 85.5284 42.6777 130.739Z" stroke="url(#paint0_linear_342_239)" stroke-opacity="0.5" stroke-width="1.125" stroke-miterlimit="16"/>
<g filter="url(#filter0_d_342_239)">
<rect x="105.657" y="28.6875" width="38.7281" height="38.7281" rx="19.3641" fill="url(#paint1_radial_342_239)" shape-rendering="crispEdges"/>
<rect x="106.254" y="29.2852" width="37.5328" height="37.5328" rx="18.7664" stroke="url(#paint2_linear_342_239)" stroke-opacity="0.2" stroke-width="1.19531" shape-rendering="crispEdges"/>
<path opacity="0.4" fill-rule="evenodd" clip-rule="evenodd" d="M128.773 44.4335C129.019 44.0034 128.869 43.4559 128.439 43.2106C128.009 42.9654 127.461 43.1152 127.216 43.5453L124.787 47.8053L122.004 44.4658H119.67L123.838 49.4681L123.112 50.7424H119.194C118.698 50.7424 118.297 51.1438 118.297 51.6389C118.297 52.134 118.698 52.5354 119.194 52.5354H123.112C123.756 52.5354 124.352 52.1888 124.67 51.6285L128.773 44.4335Z" fill="#69F46E"/>
<path fill-rule="evenodd" clip-rule="evenodd" d="M119.193 48.9482C117.708 48.9482 116.504 50.1523 116.504 51.6377C116.504 53.1231 117.708 54.3271 119.193 54.3271C120.679 54.3271 121.883 53.1231 121.883 51.6377C121.883 50.1523 120.679 48.9482 119.193 48.9482ZM114.711 51.6377C114.711 49.1621 116.718 47.1553 119.193 47.1553C121.669 47.1553 123.676 49.1621 123.676 51.6377C123.676 54.1132 121.669 56.1201 119.193 56.1201C116.718 56.1201 114.711 54.1132 114.711 51.6377Z" fill="#69F46E"/>
<path fill-rule="evenodd" clip-rule="evenodd" d="M130.848 48.9482C129.363 48.9482 128.158 50.1523 128.158 51.6377C128.158 53.1231 129.363 54.3271 130.848 54.3271C132.333 54.3271 133.537 53.1231 133.537 51.6377C133.537 50.1523 132.333 48.9482 130.848 48.9482ZM126.365 51.6377C126.365 49.1621 128.372 47.1553 130.848 47.1553C133.323 47.1553 135.33 49.1621 135.33 51.6377C135.33 54.1132 133.323 56.1201 130.848 56.1201C128.372 56.1201 126.365 54.1132 126.365 51.6377Z" fill="#69F46E"/>
<path d="M117.4 43.5688C117.4 43.0737 117.802 42.6724 118.297 42.6724H121.883C122.378 42.6724 122.779 43.0737 122.779 43.5688C122.779 44.025 122.439 44.4016 121.998 44.458L119.67 44.4653H118.297C117.802 44.4653 117.4 44.064 117.4 43.5688Z" fill="#69F46E"/>
<path fill-rule="evenodd" clip-rule="evenodd" d="M126.709 40.4533C127.097 40.0284 127.649 39.9829 127.974 39.9829C128.772 39.9829 129.738 40.0298 130.592 40.3732C131.505 40.7398 132.271 41.4384 132.607 42.6288C132.741 43.1054 132.464 43.6006 131.987 43.7349C131.51 43.8693 131.015 43.5919 130.881 43.1153C130.712 42.5173 130.378 42.2195 129.924 42.0369C129.483 41.8598 128.928 41.7942 128.291 41.7794L131.714 51.3348C131.881 51.8009 131.639 52.3141 131.173 52.4812C130.707 52.6482 130.194 52.4057 130.027 51.9396L126.463 41.9942C126.454 41.9697 126.447 41.9448 126.44 41.9196C126.336 41.5219 126.278 40.924 126.709 40.4533Z" fill="#69F46E"/>
</g>
<g filter="url(#filter1_d_342_239)">
<rect x="214.561" y="78.5234" width="38.7281" height="38.7281" rx="19.3641" transform="rotate(72 214.561 78.5234)" fill="url(#paint3_radial_342_239)" shape-rendering="crispEdges"/>
<rect x="214.177" y="79.2765" width="37.5328" height="37.5328" rx="18.7664" transform="rotate(72 214.177 79.2765)" stroke="url(#paint4_linear_342_239)" stroke-opacity="0.2" stroke-width="1.19531" shape-rendering="crispEdges"/>
<g clip-path="url(#clip0_342_239)">
<path opacity="0.4" d="M206.155 100.407L199.55 106.59C198.949 104.742 199.741 103.863 200.089 101.619C200.368 99.8238 199.538 97.7134 199.167 97.1236L201.834 99.1145C202.105 99.317 202.241 99.4183 202.396 99.4144C202.552 99.4104 202.682 99.3023 202.943 99.0862L203.736 98.4285C204.032 98.1826 204.181 98.0597 204.264 97.8973C204.294 97.8407 204.317 97.7812 204.333 97.7197C204.381 97.5433 204.354 97.3525 204.301 96.971L203.892 94.0397C203.806 93.4225 204.175 92.8325 204.768 92.6399C205.513 92.398 206.299 92.8723 206.432 93.6438L207.108 97.5676C207.23 98.2743 207.291 98.6277 207.221 98.9615C207.192 99.1006 207.147 99.2358 207.086 99.3643C206.94 99.6724 206.678 99.9174 206.155 100.407Z" fill="#69F46E"/>
<path d="M206.155 100.407L199.55 106.59C198.949 104.742 199.741 103.863 200.089 101.619C200.368 99.8238 199.538 97.7134 199.167 97.1236L201.834 99.1145C202.105 99.317 202.241 99.4183 202.396 99.4144C202.552 99.4104 202.682 99.3023 202.943 99.0862L203.736 98.4285C204.032 98.1826 204.181 98.0597 204.264 97.8973C204.294 97.8407 204.317 97.7812 204.333 97.7197C204.381 97.5433 204.354 97.3525 204.301 96.971L203.892 94.0397C203.806 93.4225 204.175 92.8325 204.768 92.6399C205.513 92.398 206.299 92.8723 206.432 93.6438L207.108 97.5676C207.23 98.2743 207.291 98.6277 207.221 98.9615C207.192 99.1006 207.147 99.2358 207.086 99.3643C206.94 99.6724 206.678 99.9174 206.155 100.407Z" stroke="#69F46E" stroke-width="0.907691" stroke-linecap="round" stroke-linejoin="round"/>
<path d="M203.213 109.17C203.672 110.582 205.189 111.355 206.602 110.896C208.015 110.437 208.788 108.92 208.329 107.508C207.87 106.095 206.352 105.322 204.94 105.781C203.527 106.24 202.754 107.757 203.213 109.17Z" stroke="#69F46E" stroke-width="0.907691" stroke-linecap="round" stroke-linejoin="round"/>
<path d="M194.17 96.0833C197.474 96.0049 197.397 100.472 196.802 104.183C196.207 107.894 196.214 111.444 199.434 112.283" stroke="#69F46E" stroke-width="0.907691" stroke-linecap="round" stroke-linejoin="round"/>
</g>
</g>
<g filter="url(#filter2_d_342_239)">
<rect x="203.947" y="197.947" width="45.5625" height="45.5625" rx="22.7812" transform="rotate(144 203.947 197.947)" fill="url(#paint5_radial_342_239)" shape-rendering="crispEdges"/>
<rect x="202.965" y="197.792" width="44.1562" height="44.1562" rx="22.0781" transform="rotate(144 202.965 197.792)" stroke="#0C500F" stroke-opacity="0.2" stroke-width="1.40625" shape-rendering="crispEdges"/>
<g opacity="0.8" clip-path="url(#clip1_342_239)">
<path d="M174.667 188.78C174.667 188.78 174.652 190.384 174.317 190.99C173.306 192.819 173.221 193.357 173.617 195.409C173.748 196.089 173.267 197.619 173.267 197.619M170.984 188.197C170.984 188.197 170.503 189.727 170.634 190.406C171.03 192.459 170.945 192.996 169.934 194.826C169.599 195.432 169.584 197.036 169.584 197.036" stroke="#37BB3C" stroke-width="1.58203" stroke-linecap="round" stroke-linejoin="round"/>
<path opacity="0.4" d="M173.796 198.213L168.898 197.437C167.744 197.254 167.167 197.163 166.751 197.465C166.336 197.766 166.244 198.344 166.062 199.498C165.879 200.652 165.787 201.23 166.089 201.645C166.391 202.06 166.968 202.152 168.123 202.335L173.02 203.11C174.175 203.293 174.752 203.385 175.167 203.083C175.583 202.781 175.674 202.204 175.857 201.049C176.04 199.895 176.131 199.318 175.829 198.902C175.528 198.487 174.95 198.396 173.796 198.213Z" fill="#37BB3C"/>
<path opacity="0.4" d="M175.353 188.379L170.456 187.603C169.301 187.42 168.724 187.329 168.422 186.914C168.12 186.498 168.212 185.921 168.394 184.767C168.577 183.612 168.669 183.035 169.084 182.733C169.5 182.431 170.077 182.523 171.231 182.706L176.129 183.481C177.283 183.664 177.861 183.756 178.162 184.171C178.464 184.586 178.373 185.164 178.19 186.318C178.007 187.472 177.916 188.05 177.5 188.351C177.085 188.653 176.508 188.562 175.353 188.379Z" fill="#37BB3C"/>
<path d="M175.697 202.187C175.58 202.935 174.879 203.447 174.13 203.329L167.05 202.218C166.302 202.101 165.79 201.399 165.908 200.651L166.261 198.394C166.378 197.646 167.08 197.135 167.828 197.252L174.908 198.363C175.656 198.481 176.168 199.182 176.051 199.931L175.697 202.187Z" stroke="#37BB3C" stroke-width="1.58203"/>
<path d="M178.04 187.436C177.922 188.184 177.221 188.695 176.473 188.578L169.392 187.467C168.644 187.349 168.133 186.648 168.25 185.899L168.603 183.643C168.72 182.895 169.422 182.383 170.17 182.501L177.25 183.612C177.999 183.729 178.51 184.431 178.393 185.179L178.04 187.436Z" stroke="#37BB3C" stroke-width="1.58203"/>
<path d="M172.358 203.882C172.281 207.154 167.679 206.777 168.538 203.299M175.777 182.463C176.573 179.289 172.036 178.426 171.94 182.007" stroke="#37BB3C" stroke-width="1.58203" stroke-linecap="round" stroke-linejoin="round"/>
<path d="M178.04 187.436C177.922 188.184 177.221 188.695 176.473 188.578L169.392 187.467C168.644 187.349 168.133 186.648 168.25 185.899L168.603 183.643C168.72 182.895 169.422 182.383 170.17 182.501L177.25 183.612C177.999 183.729 178.51 184.431 178.393 185.179L178.04 187.436Z" stroke="#37BB3C" stroke-width="1.58203"/>
</g>
</g>
<g filter="url(#filter3_d_342_239)">
<rect x="81.9448" y="224.729" width="45.5625" height="45.5625" rx="22.7812" transform="rotate(-144 81.9448 224.729)" fill="url(#paint6_radial_342_239)" shape-rendering="crispEdges"/>
<rect x="81.7893" y="223.746" width="44.1562" height="44.1562" rx="22.0781" transform="rotate(-144 81.7893 223.746)" stroke="#0C500F" stroke-opacity="0.2" stroke-width="1.40625" shape-rendering="crispEdges"/>
<g clip-path="url(#clip2_342_239)">
<path opacity="0.4" fill-rule="evenodd" clip-rule="evenodd" d="M70.8315 193.756C70.3006 193.996 70.0647 194.62 70.3044 195.151C70.5442 195.682 71.1689 195.918 71.6998 195.678L76.9576 193.303L77.297 198.406L79.5184 200.02L79.01 192.377L80.5828 191.666L84.3121 194.376C84.7833 194.718 85.4429 194.614 85.7852 194.142C86.1276 193.671 86.0232 193.011 85.5519 192.669L81.8227 189.96C81.2091 189.514 80.4029 189.432 79.712 189.745L70.8315 193.756Z" fill="#37BB3C"/>
<path fill-rule="evenodd" clip-rule="evenodd" d="M83.071 196.083C84.4847 197.111 86.4634 196.797 87.4905 195.383C88.5177 193.97 88.2043 191.991 86.7906 190.964C85.3768 189.937 83.3981 190.25 82.371 191.664C81.3438 193.078 81.6572 195.056 83.071 196.083ZM89.1971 196.623C87.4852 198.98 84.1873 199.502 81.8311 197.79C79.4749 196.078 78.9526 192.78 80.6645 190.424C82.3763 188.068 85.6742 187.546 88.0304 189.257C90.3866 190.969 90.9089 194.267 89.1971 196.623Z" fill="#37BB3C"/>
<path fill-rule="evenodd" clip-rule="evenodd" d="M71.9787 188.025C73.3925 189.052 75.3711 188.739 76.3983 187.325C77.4254 185.911 77.112 183.932 75.6983 182.905C74.2845 181.878 72.3059 182.192 71.2787 183.605C70.2515 185.019 70.5649 186.998 71.9787 188.025ZM78.1048 188.565C76.3929 190.921 73.095 191.443 70.7388 189.731C68.3826 188.02 67.8603 184.722 69.5722 182.365C71.2841 180.009 74.5819 179.487 76.9381 181.199C79.2943 182.911 79.8167 186.209 78.1048 188.565Z" fill="#37BB3C"/>
<path d="M81.0579 202.443C80.7155 202.914 80.056 203.019 79.5847 202.676L76.1717 200.197C75.7004 199.854 75.596 199.195 75.9384 198.724C76.2538 198.289 76.8385 198.167 77.2971 198.418L79.5177 200.02L80.8246 200.97C81.2958 201.312 81.4003 201.972 81.0579 202.443Z" fill="#37BB3C"/>
<path fill-rule="evenodd" clip-rule="evenodd" d="M70.0443 198.972C69.3808 199.108 68.8237 198.769 68.5148 198.545C67.7552 197.993 66.8683 197.28 66.2925 196.362C65.6776 195.382 65.4313 194.188 65.9351 192.823C66.1368 192.276 66.7432 191.997 67.2897 192.198C67.8362 192.4 68.1157 193.006 67.914 193.553C67.6609 194.239 67.773 194.753 68.0792 195.241C68.3762 195.714 68.8592 196.161 69.4554 196.615L72.8046 185.153C72.9679 184.594 73.5537 184.273 74.1128 184.437C74.6719 184.6 74.9927 185.186 74.8293 185.745L71.3435 197.675C71.3349 197.704 71.325 197.733 71.3139 197.762C71.1383 198.213 70.7795 198.821 70.0443 198.972Z" fill="#37BB3C"/>
</g>
</g>
<g filter="url(#filter4_d_342_239)">
<rect x="23.6567" y="115.356" width="38.7281" height="38.7281" rx="19.3641" transform="rotate(-72 23.6567 115.356)" fill="url(#paint7_radial_342_239)" shape-rendering="crispEdges"/>
<rect x="24.4098" y="114.973" width="37.5328" height="37.5328" rx="18.7664" transform="rotate(-72 24.4098 114.973)" stroke="url(#paint8_linear_342_239)" stroke-opacity="0.2" stroke-width="1.19531" shape-rendering="crispEdges"/>
<g clip-path="url(#clip3_342_239)">
<path d="M43.0473 96.5833C43.7536 96.8128 44.1401 97.5715 43.9106 98.2778C43.6811 98.9841 42.9225 99.3706 42.2162 99.1411C41.5098 98.9116 41.1233 98.153 41.3528 97.4467C41.5823 96.7404 42.3409 96.3538 43.0473 96.5833Z" fill="#69F46E" stroke="#69F46E" stroke-width="1.41827"/>
<path opacity="0.4" d="M45.3351 101.22C45.4073 100.998 45.4541 100.857 45.4974 100.752C45.5181 100.702 45.5341 100.669 45.5472 100.646L45.5769 100.605C45.5825 100.599 45.6175 100.566 45.7546 100.501C45.8885 100.437 46.0725 100.362 46.3456 100.253C46.3767 100.24 46.4074 100.225 46.4392 100.211L49.4407 103.962C49.1724 104.138 48.9595 104.275 48.7725 104.375C48.5022 104.52 48.3289 104.571 48.1761 104.577C48.0101 104.583 47.8443 104.558 47.6876 104.503C47.5434 104.452 47.3922 104.353 47.1768 104.135C46.9558 103.911 46.7009 103.597 46.3327 103.143L45.1755 101.718C45.2235 101.567 45.2786 101.394 45.3351 101.22Z" fill="#69F46E" stroke="#69F46E" stroke-width="0.945511"/>
<path d="M56.8408 102.008L54.4264 101.849C53.6273 101.797 52.8273 101.965 52.1117 102.337L50.4136 103.219M45.9515 106.953C44.5491 105.555 44.002 103.928 44.9262 100.964ZM44.9262 100.964C44.9846 100.777 45.0742 100.499 45.1644 100.222C45.3043 99.7914 45.3743 99.5762 45.5101 99.4308C45.6459 99.2854 45.9132 99.1777 46.4478 98.9625C46.6009 98.9009 46.7425 98.8324 46.8453 98.7601M44.9262 100.964L46.2442 102.589C46.9689 103.482 47.3312 103.929 47.8093 104.097C48.0223 104.172 48.2475 104.206 48.473 104.197C48.9795 104.178 49.4576 103.858 50.4136 103.219M46.8453 98.7601C47.9035 98.0154 48.7016 96.5705 47.3111 94.1983ZM46.8453 98.7601L50.4136 103.219Z" fill="#69F46E"/>
<path d="M56.8408 102.008L54.4264 101.849C53.6273 101.797 52.8273 101.965 52.1117 102.337L50.4136 103.219M50.4136 103.219C49.4576 103.858 48.9795 104.178 48.473 104.197C48.2475 104.206 48.0223 104.172 47.8093 104.097C47.3312 103.929 46.9689 103.482 46.2442 102.589L44.9262 100.964M50.4136 103.219L46.8453 98.7601M45.9515 106.953C44.5491 105.555 44.002 103.928 44.9262 100.964M44.9262 100.964C44.9846 100.777 45.0742 100.499 45.1644 100.222C45.3043 99.7914 45.3743 99.5762 45.5101 99.4308C45.6459 99.2854 45.9132 99.1777 46.4478 98.9625C46.6009 98.9009 46.7425 98.8324 46.8453 98.7601M46.8453 98.7601C47.9035 98.0154 48.7016 96.5705 47.3111 94.1983" stroke="#69F46E" stroke-width="1.41827" stroke-linecap="round" stroke-linejoin="round"/>
<path d="M50.7265 111.332L51.0519 110.799C51.8813 109.439 51.7085 107.689 50.6364 106.59" fill="#69F46E"/>
<path d="M50.7265 111.332L51.0519 110.799C51.8813 109.439 51.7085 107.689 50.6364 106.59" stroke="#69F46E" stroke-width="1.41827" stroke-linecap="round" stroke-linejoin="round"/>
</g>
</g>
<defs>
<filter id="filter0_d_342_239" x="76.9692" y="0" width="96.103" height="96.103" filterUnits="userSpaceOnUse" color-interpolation-filters="sRGB">
<feFlood flood-opacity="0" result="BackgroundImageFix"/>
<feColorMatrix in="SourceAlpha" type="matrix" values="0 0 0 0 0 0 0 0 0 0 0 0 0 0 0 0 0 0 127 0" result="hardAlpha"/>
<feOffset/>
<feGaussianBlur stdDeviation="14.3438"/>
<feComposite in2="hardAlpha" operator="out"/>
<feColorMatrix type="matrix" values="0 0 0 0 0.20321 0 0 0 0 0.926923 0 0 0 0 0.227334 0 0 0 0.4 0"/>
<feBlend mode="normal" in2="BackgroundImageFix" result="effect1_dropShadow_342_239"/>
<feBlend mode="normal" in="SourceGraphic" in2="effect1_dropShadow_342_239" result="shape"/>
</filter>
<filter id="filter1_d_342_239" x="149.041" y="49.8359" width="106.175" height="106.175" filterUnits="userSpaceOnUse" color-interpolation-filters="sRGB">
<feFlood flood-opacity="0" result="BackgroundImageFix"/>
<feColorMatrix in="SourceAlpha" type="matrix" values="0 0 0 0 0 0 0 0 0 0 0 0 0 0 0 0 0 0 127 0" result="hardAlpha"/>
<feOffset/>
<feGaussianBlur stdDeviation="14.3438"/>
<feComposite in2="hardAlpha" operator="out"/>
<feColorMatrix type="matrix" values="0 0 0 0 0.20321 0 0 0 0 0.926923 0 0 0 0 0.227334 0 0 0 0.4 0"/>
<feBlend mode="normal" in2="BackgroundImageFix" result="effect1_dropShadow_342_239"/>
<feBlend mode="normal" in="SourceGraphic" in2="effect1_dropShadow_342_239" result="shape"/>
</filter>
<filter id="filter2_d_342_239" x="106.555" y="127.336" width="131.142" height="131.142" filterUnits="userSpaceOnUse" color-interpolation-filters="sRGB">
<feFlood flood-opacity="0" result="BackgroundImageFix"/>
<feColorMatrix in="SourceAlpha" type="matrix" values="0 0 0 0 0 0 0 0 0 0 0 0 0 0 0 0 0 0 127 0" result="hardAlpha"/>
<feOffset/>
<feGaussianBlur stdDeviation="16.875"/>
<feComposite in2="hardAlpha" operator="out"/>
<feColorMatrix type="matrix" values="0 0 0 0 0.20321 0 0 0 0 0.926923 0 0 0 0 0.227334 0 0 0 0.4 0"/>
<feBlend mode="normal" in2="BackgroundImageFix" result="effect1_dropShadow_342_239"/>
<feBlend mode="normal" in="SourceGraphic" in2="effect1_dropShadow_342_239" result="shape"/>
</filter>
<filter id="filter3_d_342_239" x="11.334" y="127.337" width="131.142" height="131.142" filterUnits="userSpaceOnUse" color-interpolation-filters="sRGB">
<feFlood flood-opacity="0" result="BackgroundImageFix"/>
<feColorMatrix in="SourceAlpha" type="matrix" values="0 0 0 0 0 0 0 0 0 0 0 0 0 0 0 0 0 0 127 0" result="hardAlpha"/>
<feOffset/>
<feGaussianBlur stdDeviation="16.875"/>
<feComposite in2="hardAlpha" operator="out"/>
<feColorMatrix type="matrix" values="0 0 0 0 0.20321 0 0 0 0 0.926923 0 0 0 0 0.227334 0 0 0 0.4 0"/>
<feBlend mode="normal" in2="BackgroundImageFix" result="effect1_dropShadow_342_239"/>
<feBlend mode="normal" in="SourceGraphic" in2="effect1_dropShadow_342_239" result="shape"/>
</filter>
<filter id="filter4_d_342_239" x="-5.03076" y="49.8364" width="106.175" height="106.175" filterUnits="userSpaceOnUse" color-interpolation-filters="sRGB">
<feFlood flood-opacity="0" result="BackgroundImageFix"/>
<feColorMatrix in="SourceAlpha" type="matrix" values="0 0 0 0 0 0 0 0 0 0 0 0 0 0 0 0 0 0 127 0" result="hardAlpha"/>
<feOffset/>
<feGaussianBlur stdDeviation="14.3438"/>
<feComposite in2="hardAlpha" operator="out"/>
<feColorMatrix type="matrix" values="0 0 0 0 0.20321 0 0 0 0 0.926923 0 0 0 0 0.227334 0 0 0 0.4 0"/>
<feBlend mode="normal" in2="BackgroundImageFix" result="effect1_dropShadow_342_239"/>
<feBlend mode="normal" in="SourceGraphic" in2="effect1_dropShadow_342_239" result="shape"/>
</filter>
<linearGradient id="paint0_linear_342_239" x1="124.538" y1="48.0513" x2="124.538" y2="213.426" gradientUnits="userSpaceOnUse">
<stop stop-color="#0C500F"/>
<stop offset="0.442308" stop-color="#0C500F" stop-opacity="0"/>
</linearGradient>
<radialGradient id="paint1_radial_342_239" cx="0" cy="0" r="1" gradientUnits="userSpaceOnUse" gradientTransform="translate(125.021 48.0516) rotate(90) scale(19.3641)">
<stop stop-color="#34C236"/>
<stop offset="1" stop-color="#268F28"/>
</radialGradient>
<linearGradient id="paint2_linear_342_239" x1="109.157" y1="36.1875" x2="141.157" y2="65.1875" gradientUnits="userSpaceOnUse">
<stop stop-color="#6FFC76"/>
<stop offset="0.576923" stop-color="#6FFC76" stop-opacity="0"/>
</linearGradient>
<radialGradient id="paint3_radial_342_239" cx="0" cy="0" r="1" gradientUnits="userSpaceOnUse" gradientTransform="translate(233.925 97.8875) rotate(90) scale(19.3641)">
<stop stop-color="#34C236"/>
<stop offset="1" stop-color="#268F28"/>
</radialGradient>
<linearGradient id="paint4_linear_342_239" x1="220.181" y1="107.061" x2="252.48" y2="91.7944" gradientUnits="userSpaceOnUse">
<stop stop-color="#6FFC76"/>
<stop offset="0.576923" stop-color="#6FFC76" stop-opacity="0"/>
</linearGradient>
<radialGradient id="paint5_radial_342_239" cx="0" cy="0" r="1" gradientUnits="userSpaceOnUse" gradientTransform="translate(226.729 220.729) rotate(90) scale(22.7813)">
<stop stop-color="#34C236"/>
<stop offset="1" stop-color="#268F28"/>
</radialGradient>
<radialGradient id="paint6_radial_342_239" cx="0" cy="0" r="1" gradientUnits="userSpaceOnUse" gradientTransform="translate(104.726 247.51) rotate(90) scale(22.7813)">
<stop stop-color="#34C236"/>
<stop offset="1" stop-color="#268F28"/>
</radialGradient>
<radialGradient id="paint7_radial_342_239" cx="0" cy="0" r="1" gradientUnits="userSpaceOnUse" gradientTransform="translate(43.0208 134.721) rotate(90) scale(19.3641)">
<stop stop-color="#34C236"/>
<stop offset="1" stop-color="#268F28"/>
</radialGradient>
<linearGradient id="paint8_linear_342_239" x1="46.7251" y1="117.85" x2="37.141" y2="151.456" gradientUnits="userSpaceOnUse">
<stop stop-color="#6FFC76"/>
<stop offset="0.576923" stop-color="#6FFC76" stop-opacity="0"/>
</linearGradient>
<clipPath id="clip0_342_239">
<rect width="21.5156" height="21.5156" fill="white" transform="translate(209.035 89.3682) rotate(72)"/>
</clipPath>
<clipPath id="clip1_342_239">
<rect width="25.3125" height="25.3125" fill="white" transform="translate(189.805 195.708) rotate(144)"/>
</clipPath>
<clipPath id="clip2_342_239">
<rect width="25.3125" height="25.3125" fill="white" transform="translate(79.7048 210.586) rotate(-144)"/>
</clipPath>
<clipPath id="clip3_342_239">
<rect width="21.5156" height="21.5156" fill="white" transform="translate(34.5012 109.831) rotate(-72)"/>
</clipPath>
</defs>
</svg>
