<svg width="364" height="335" viewBox="0 0 364 335" fill="none" xmlns="http://www.w3.org/2000/svg">
<rect x="1.5" y="1.5" width="361" height="332" rx="17.5" fill="#EDFFEA"/>
<rect x="1.5" y="1.5" width="361" height="332" rx="17.5" stroke="#ACFFAE" stroke-width="3"/>
<path d="M24.5312 31.6328L20.7656 42H19.2266L23.5625 30.625H24.5547L24.5312 31.6328ZM27.6875 42L23.9141 31.6328L23.8906 30.625H24.8828L29.2344 42H27.6875ZM27.4922 37.7891V39.0234H21.1016V37.7891H27.4922ZM33.9219 40.9688C34.2656 40.9688 34.5833 40.8984 34.875 40.7578C35.1667 40.6172 35.4062 40.4245 35.5938 40.1797C35.7812 39.9297 35.888 39.6458 35.9141 39.3281H37.2891C37.263 39.8281 37.0938 40.2943 36.7812 40.7266C36.474 41.1536 36.0703 41.5 35.5703 41.7656C35.0703 42.026 34.5208 42.1562 33.9219 42.1562C33.2865 42.1562 32.7318 42.0443 32.2578 41.8203C31.7891 41.5964 31.3984 41.2891 31.0859 40.8984C30.7786 40.5078 30.5469 40.0599 30.3906 39.5547C30.2396 39.0443 30.1641 38.5052 30.1641 37.9375V37.6094C30.1641 37.0417 30.2396 36.5052 30.3906 36C30.5469 35.4896 30.7786 35.0391 31.0859 34.6484C31.3984 34.2578 31.7891 33.9505 32.2578 33.7266C32.7318 33.5026 33.2865 33.3906 33.9219 33.3906C34.5833 33.3906 35.1615 33.526 35.6562 33.7969C36.151 34.0625 36.5391 34.4271 36.8203 34.8906C37.1068 35.349 37.263 35.8698 37.2891 36.4531H35.9141C35.888 36.1042 35.7891 35.7891 35.6172 35.5078C35.4505 35.2266 35.2214 35.0026 34.9297 34.8359C34.6432 34.6641 34.3073 34.5781 33.9219 34.5781C33.4792 34.5781 33.1068 34.6667 32.8047 34.8438C32.5078 35.0156 32.2708 35.25 32.0938 35.5469C31.9219 35.8385 31.7969 36.1641 31.7188 36.5234C31.6458 36.8776 31.6094 37.2396 31.6094 37.6094V37.9375C31.6094 38.3073 31.6458 38.6719 31.7188 39.0312C31.7917 39.3906 31.9141 39.7161 32.0859 40.0078C32.263 40.2995 32.5 40.5339 32.7969 40.7109C33.099 40.8828 33.474 40.9688 33.9219 40.9688ZM42.4531 33.5469V34.6562H37.8828V33.5469H42.4531ZM39.4297 31.4922H40.875V39.9062C40.875 40.1927 40.9193 40.4089 41.0078 40.5547C41.0964 40.7005 41.2109 40.7969 41.3516 40.8438C41.4922 40.8906 41.6432 40.9141 41.8047 40.9141C41.9245 40.9141 42.0495 40.9036 42.1797 40.8828C42.3151 40.8568 42.4167 40.8359 42.4844 40.8203L42.4922 42C42.3776 42.0365 42.2266 42.0703 42.0391 42.1016C41.8568 42.138 41.6354 42.1562 41.375 42.1562C41.0208 42.1562 40.6953 42.0859 40.3984 41.9453C40.1016 41.8047 39.8646 41.5703 39.6875 41.2422C39.5156 40.9089 39.4297 40.4609 39.4297 39.8984V31.4922ZM45.7188 33.5469V42H44.2656V33.5469H45.7188ZM44.1562 31.3047C44.1562 31.0703 44.2266 30.8724 44.3672 30.7109C44.513 30.5495 44.7266 30.4688 45.0078 30.4688C45.2839 30.4688 45.4948 30.5495 45.6406 30.7109C45.7917 30.8724 45.8672 31.0703 45.8672 31.3047C45.8672 31.5286 45.7917 31.7214 45.6406 31.8828C45.4948 32.0391 45.2839 32.1172 45.0078 32.1172C44.7266 32.1172 44.513 32.0391 44.3672 31.8828C44.2266 31.7214 44.1562 31.5286 44.1562 31.3047ZM50.6094 40.6953L52.9219 33.5469H54.3984L51.3594 42H50.3906L50.6094 40.6953ZM48.6797 33.5469L51.0625 40.7344L51.2266 42H50.2578L47.1953 33.5469H48.6797ZM57.3594 33.5469V42H55.9062V33.5469H57.3594ZM55.7969 31.3047C55.7969 31.0703 55.8672 30.8724 56.0078 30.7109C56.1536 30.5495 56.3672 30.4688 56.6484 30.4688C56.9245 30.4688 57.1354 30.5495 57.2812 30.7109C57.4323 30.8724 57.5078 31.0703 57.5078 31.3047C57.5078 31.5286 57.4323 31.7214 57.2812 31.8828C57.1354 32.0391 56.9245 32.1172 56.6484 32.1172C56.3672 32.1172 56.1536 32.0391 56.0078 31.8828C55.8672 31.7214 55.7969 31.5286 55.7969 31.3047ZM63.2188 33.5469V34.6562H58.6484V33.5469H63.2188ZM60.1953 31.4922H61.6406V39.9062C61.6406 40.1927 61.6849 40.4089 61.7734 40.5547C61.862 40.7005 61.9766 40.7969 62.1172 40.8438C62.2578 40.8906 62.4089 40.9141 62.5703 40.9141C62.6901 40.9141 62.8151 40.9036 62.9453 40.8828C63.0807 40.8568 63.1823 40.8359 63.25 40.8203L63.2578 42C63.1432 42.0365 62.9922 42.0703 62.8047 42.1016C62.6224 42.138 62.401 42.1562 62.1406 42.1562C61.7865 42.1562 61.4609 42.0859 61.1641 41.9453C60.8672 41.8047 60.6302 41.5703 60.4531 41.2422C60.2812 40.9089 60.1953 40.4609 60.1953 39.8984V31.4922ZM67.2891 41.125L69.6406 33.5469H71.1875L67.7969 43.3047C67.7188 43.513 67.6146 43.737 67.4844 43.9766C67.3594 44.2214 67.1979 44.4531 67 44.6719C66.8021 44.8906 66.5625 45.0677 66.2812 45.2031C66.0052 45.3438 65.6745 45.4141 65.2891 45.4141C65.1745 45.4141 65.0286 45.3984 64.8516 45.3672C64.6745 45.3359 64.5495 45.3099 64.4766 45.2891L64.4688 44.1172C64.5104 44.1224 64.5755 44.1276 64.6641 44.1328C64.7578 44.1432 64.8229 44.1484 64.8594 44.1484C65.1875 44.1484 65.4661 44.1042 65.6953 44.0156C65.9245 43.9323 66.1172 43.7891 66.2734 43.5859C66.4349 43.388 66.5729 43.1146 66.6875 42.7656L67.2891 41.125ZM65.5625 33.5469L67.7578 40.1094L68.1328 41.6328L67.0938 42.1641L63.9844 33.5469H65.5625ZM82.7422 39.125C82.7422 38.8594 82.7005 38.625 82.6172 38.4219C82.5391 38.2135 82.3984 38.026 82.1953 37.8594C81.9974 37.6927 81.7214 37.5339 81.3672 37.3828C81.0182 37.2318 80.5755 37.0781 80.0391 36.9219C79.4766 36.7552 78.9688 36.5703 78.5156 36.3672C78.0625 36.1589 77.6745 35.9219 77.3516 35.6562C77.0286 35.3906 76.7812 35.0859 76.6094 34.7422C76.4375 34.3984 76.3516 34.0052 76.3516 33.5625C76.3516 33.1198 76.4427 32.7109 76.625 32.3359C76.8073 31.9609 77.0677 31.6354 77.4062 31.3594C77.75 31.0781 78.1589 30.8594 78.6328 30.7031C79.1068 30.5469 79.6354 30.4688 80.2188 30.4688C81.0729 30.4688 81.7969 30.6328 82.3906 30.9609C82.9896 31.2839 83.4453 31.7083 83.7578 32.2344C84.0703 32.7552 84.2266 33.3125 84.2266 33.9062H82.7266C82.7266 33.4792 82.6354 33.1016 82.4531 32.7734C82.2708 32.4401 81.9948 32.1797 81.625 31.9922C81.2552 31.7995 80.7865 31.7031 80.2188 31.7031C79.6823 31.7031 79.2396 31.7839 78.8906 31.9453C78.5417 32.1068 78.2812 32.3255 78.1094 32.6016C77.9427 32.8776 77.8594 33.1927 77.8594 33.5469C77.8594 33.7865 77.9089 34.0052 78.0078 34.2031C78.112 34.3958 78.2708 34.5755 78.4844 34.7422C78.7031 34.9089 78.9792 35.0625 79.3125 35.2031C79.651 35.3438 80.0547 35.4792 80.5234 35.6094C81.1693 35.7917 81.7266 35.9948 82.1953 36.2188C82.6641 36.4427 83.0495 36.6953 83.3516 36.9766C83.6589 37.2526 83.8854 37.5677 84.0312 37.9219C84.1823 38.2708 84.2578 38.6667 84.2578 39.1094C84.2578 39.5729 84.1641 39.9922 83.9766 40.3672C83.7891 40.7422 83.5208 41.0625 83.1719 41.3281C82.8229 41.5938 82.4036 41.7995 81.9141 41.9453C81.4297 42.0859 80.888 42.1562 80.2891 42.1562C79.763 42.1562 79.2448 42.0833 78.7344 41.9375C78.2292 41.7917 77.7682 41.5729 77.3516 41.2812C76.9401 40.9896 76.6094 40.6302 76.3594 40.2031C76.1146 39.7708 75.9922 39.2708 75.9922 38.7031H77.4922C77.4922 39.0938 77.5677 39.4297 77.7188 39.7109C77.8698 39.987 78.0755 40.2161 78.3359 40.3984C78.6016 40.5807 78.901 40.7161 79.2344 40.8047C79.5729 40.888 79.9245 40.9297 80.2891 40.9297C80.8151 40.9297 81.2604 40.8568 81.625 40.7109C81.9896 40.5651 82.2656 40.3568 82.4531 40.0859C82.6458 39.8151 82.7422 39.4948 82.7422 39.125ZM89.5 33.5469V34.6562H84.9297V33.5469H89.5ZM86.4766 31.4922H87.9219V39.9062C87.9219 40.1927 87.9661 40.4089 88.0547 40.5547C88.1432 40.7005 88.2578 40.7969 88.3984 40.8438C88.5391 40.8906 88.6901 40.9141 88.8516 40.9141C88.9714 40.9141 89.0964 40.9036 89.2266 40.8828C89.362 40.8568 89.4635 40.8359 89.5312 40.8203L89.5391 42C89.4245 42.0365 89.2734 42.0703 89.0859 42.1016C88.9036 42.138 88.6823 42.1562 88.4219 42.1562C88.0677 42.1562 87.7422 42.0859 87.4453 41.9453C87.1484 41.8047 86.9115 41.5703 86.7344 41.2422C86.5625 40.9089 86.4766 40.4609 86.4766 39.8984V31.4922ZM96.1797 40.5547V36.2031C96.1797 35.8698 96.112 35.5807 95.9766 35.3359C95.8464 35.0859 95.6484 34.8932 95.3828 34.7578C95.1172 34.6224 94.7891 34.5547 94.3984 34.5547C94.0339 34.5547 93.7135 34.6172 93.4375 34.7422C93.1667 34.8672 92.9531 35.0312 92.7969 35.2344C92.6458 35.4375 92.5703 35.6562 92.5703 35.8906H91.125C91.125 35.5885 91.2031 35.2891 91.3594 34.9922C91.5156 34.6953 91.7396 34.4271 92.0312 34.1875C92.3281 33.9427 92.6823 33.75 93.0938 33.6094C93.5104 33.4635 93.974 33.3906 94.4844 33.3906C95.099 33.3906 95.6406 33.4948 96.1094 33.7031C96.5833 33.9115 96.9531 34.2266 97.2188 34.6484C97.4896 35.0651 97.625 35.5885 97.625 36.2188V40.1562C97.625 40.4375 97.6484 40.737 97.6953 41.0547C97.7474 41.3724 97.8229 41.6458 97.9219 41.875V42H96.4141C96.3411 41.8333 96.2839 41.612 96.2422 41.3359C96.2005 41.0547 96.1797 40.7943 96.1797 40.5547ZM96.4297 36.875L96.4453 37.8906H94.9844C94.5729 37.8906 94.2057 37.9245 93.8828 37.9922C93.5599 38.0547 93.2891 38.151 93.0703 38.2812C92.8516 38.4115 92.6849 38.5755 92.5703 38.7734C92.4557 38.9661 92.3984 39.1927 92.3984 39.4531C92.3984 39.7188 92.4583 39.9609 92.5781 40.1797C92.6979 40.3984 92.8776 40.5729 93.1172 40.7031C93.362 40.8281 93.6615 40.8906 94.0156 40.8906C94.4583 40.8906 94.849 40.7969 95.1875 40.6094C95.526 40.4219 95.7943 40.1927 95.9922 39.9219C96.1953 39.651 96.3047 39.388 96.3203 39.1328L96.9375 39.8281C96.901 40.0469 96.8021 40.2891 96.6406 40.5547C96.4792 40.8203 96.263 41.0755 95.9922 41.3203C95.7266 41.5599 95.4089 41.7604 95.0391 41.9219C94.6745 42.0781 94.263 42.1562 93.8047 42.1562C93.2318 42.1562 92.7292 42.0443 92.2969 41.8203C91.8698 41.5964 91.5365 41.2969 91.2969 40.9219C91.0625 40.5417 90.9453 40.1172 90.9453 39.6484C90.9453 39.1953 91.0339 38.7969 91.2109 38.4531C91.388 38.1042 91.6432 37.8151 91.9766 37.5859C92.3099 37.3516 92.7109 37.1745 93.1797 37.0547C93.6484 36.9349 94.1719 36.875 94.75 36.875H96.4297ZM103.438 33.5469V34.6562H98.8672V33.5469H103.438ZM100.414 31.4922H101.859V39.9062C101.859 40.1927 101.904 40.4089 101.992 40.5547C102.081 40.7005 102.195 40.7969 102.336 40.8438C102.477 40.8906 102.628 40.9141 102.789 40.9141C102.909 40.9141 103.034 40.9036 103.164 40.8828C103.299 40.8568 103.401 40.8359 103.469 40.8203L103.477 42C103.362 42.0365 103.211 42.0703 103.023 42.1016C102.841 42.138 102.62 42.1562 102.359 42.1562C102.005 42.1562 101.68 42.0859 101.383 41.9453C101.086 41.8047 100.849 41.5703 100.672 41.2422C100.5 40.9089 100.414 40.4609 100.414 39.8984V31.4922ZM106.703 33.5469V42H105.25V33.5469H106.703ZM105.141 31.3047C105.141 31.0703 105.211 30.8724 105.352 30.7109C105.497 30.5495 105.711 30.4688 105.992 30.4688C106.268 30.4688 106.479 30.5495 106.625 30.7109C106.776 30.8724 106.852 31.0703 106.852 31.3047C106.852 31.5286 106.776 31.7214 106.625 31.8828C106.479 32.0391 106.268 32.1172 105.992 32.1172C105.711 32.1172 105.497 32.0391 105.352 31.8828C105.211 31.7214 105.141 31.5286 105.141 31.3047ZM113.945 39.7578C113.945 39.5495 113.898 39.3568 113.805 39.1797C113.716 38.9974 113.531 38.8333 113.25 38.6875C112.974 38.5365 112.557 38.4062 112 38.2969C111.531 38.1979 111.107 38.0807 110.727 37.9453C110.352 37.8099 110.031 37.6458 109.766 37.4531C109.505 37.2604 109.305 37.0339 109.164 36.7734C109.023 36.513 108.953 36.2083 108.953 35.8594C108.953 35.526 109.026 35.2109 109.172 34.9141C109.323 34.6172 109.534 34.3542 109.805 34.125C110.081 33.8958 110.411 33.7161 110.797 33.5859C111.182 33.4557 111.612 33.3906 112.086 33.3906C112.763 33.3906 113.341 33.5104 113.82 33.75C114.299 33.9896 114.667 34.3099 114.922 34.7109C115.177 35.1068 115.305 35.5469 115.305 36.0312H113.859C113.859 35.7969 113.789 35.5703 113.648 35.3516C113.513 35.1276 113.312 34.9427 113.047 34.7969C112.786 34.651 112.466 34.5781 112.086 34.5781C111.685 34.5781 111.359 34.6406 111.109 34.7656C110.865 34.8854 110.685 35.0391 110.57 35.2266C110.461 35.4141 110.406 35.612 110.406 35.8203C110.406 35.9766 110.432 36.1172 110.484 36.2422C110.542 36.362 110.641 36.474 110.781 36.5781C110.922 36.6771 111.12 36.7708 111.375 36.8594C111.63 36.9479 111.956 37.0365 112.352 37.125C113.044 37.2812 113.615 37.4688 114.062 37.6875C114.51 37.9062 114.844 38.1745 115.062 38.4922C115.281 38.8099 115.391 39.1953 115.391 39.6484C115.391 40.0182 115.312 40.3568 115.156 40.6641C115.005 40.9714 114.784 41.237 114.492 41.4609C114.206 41.6797 113.862 41.8516 113.461 41.9766C113.065 42.0964 112.62 42.1562 112.125 42.1562C111.38 42.1562 110.75 42.0234 110.234 41.7578C109.719 41.4922 109.328 41.1484 109.062 40.7266C108.797 40.3047 108.664 39.8594 108.664 39.3906H110.117C110.138 39.7865 110.253 40.1016 110.461 40.3359C110.669 40.5651 110.924 40.7292 111.227 40.8281C111.529 40.9219 111.828 40.9688 112.125 40.9688C112.521 40.9688 112.852 40.9167 113.117 40.8125C113.388 40.7083 113.594 40.5651 113.734 40.3828C113.875 40.2005 113.945 39.9922 113.945 39.7578ZM120.828 33.5469V34.6562H116.258V33.5469H120.828ZM117.805 31.4922H119.25V39.9062C119.25 40.1927 119.294 40.4089 119.383 40.5547C119.471 40.7005 119.586 40.7969 119.727 40.8438C119.867 40.8906 120.018 40.9141 120.18 40.9141C120.299 40.9141 120.424 40.9036 120.555 40.8828C120.69 40.8568 120.792 40.8359 120.859 40.8203L120.867 42C120.753 42.0365 120.602 42.0703 120.414 42.1016C120.232 42.138 120.01 42.1562 119.75 42.1562C119.396 42.1562 119.07 42.0859 118.773 41.9453C118.477 41.8047 118.24 41.5703 118.062 41.2422C117.891 40.9089 117.805 40.4609 117.805 39.8984V31.4922ZM124.094 33.5469V42H122.641V33.5469H124.094ZM122.531 31.3047C122.531 31.0703 122.602 30.8724 122.742 30.7109C122.888 30.5495 123.102 30.4688 123.383 30.4688C123.659 30.4688 123.87 30.5495 124.016 30.7109C124.167 30.8724 124.242 31.0703 124.242 31.3047C124.242 31.5286 124.167 31.7214 124.016 31.8828C123.87 32.0391 123.659 32.1172 123.383 32.1172C123.102 32.1172 122.888 32.0391 122.742 31.8828C122.602 31.7214 122.531 31.5286 122.531 31.3047ZM129.797 40.9688C130.141 40.9688 130.458 40.8984 130.75 40.7578C131.042 40.6172 131.281 40.4245 131.469 40.1797C131.656 39.9297 131.763 39.6458 131.789 39.3281H133.164C133.138 39.8281 132.969 40.2943 132.656 40.7266C132.349 41.1536 131.945 41.5 131.445 41.7656C130.945 42.026 130.396 42.1562 129.797 42.1562C129.161 42.1562 128.607 42.0443 128.133 41.8203C127.664 41.5964 127.273 41.2891 126.961 40.8984C126.654 40.5078 126.422 40.0599 126.266 39.5547C126.115 39.0443 126.039 38.5052 126.039 37.9375V37.6094C126.039 37.0417 126.115 36.5052 126.266 36C126.422 35.4896 126.654 35.0391 126.961 34.6484C127.273 34.2578 127.664 33.9505 128.133 33.7266C128.607 33.5026 129.161 33.3906 129.797 33.3906C130.458 33.3906 131.036 33.526 131.531 33.7969C132.026 34.0625 132.414 34.4271 132.695 34.8906C132.982 35.349 133.138 35.8698 133.164 36.4531H131.789C131.763 36.1042 131.664 35.7891 131.492 35.5078C131.326 35.2266 131.096 35.0026 130.805 34.8359C130.518 34.6641 130.182 34.5781 129.797 34.5781C129.354 34.5781 128.982 34.6667 128.68 34.8438C128.383 35.0156 128.146 35.25 127.969 35.5469C127.797 35.8385 127.672 36.1641 127.594 36.5234C127.521 36.8776 127.484 37.2396 127.484 37.6094V37.9375C127.484 38.3073 127.521 38.6719 127.594 39.0312C127.667 39.3906 127.789 39.7161 127.961 40.0078C128.138 40.2995 128.375 40.5339 128.672 40.7109C128.974 40.8828 129.349 40.9688 129.797 40.9688ZM139.711 39.7578C139.711 39.5495 139.664 39.3568 139.57 39.1797C139.482 38.9974 139.297 38.8333 139.016 38.6875C138.74 38.5365 138.323 38.4062 137.766 38.2969C137.297 38.1979 136.872 38.0807 136.492 37.9453C136.117 37.8099 135.797 37.6458 135.531 37.4531C135.271 37.2604 135.07 37.0339 134.93 36.7734C134.789 36.513 134.719 36.2083 134.719 35.8594C134.719 35.526 134.792 35.2109 134.938 34.9141C135.089 34.6172 135.299 34.3542 135.57 34.125C135.846 33.8958 136.177 33.7161 136.562 33.5859C136.948 33.4557 137.378 33.3906 137.852 33.3906C138.529 33.3906 139.107 33.5104 139.586 33.75C140.065 33.9896 140.432 34.3099 140.688 34.7109C140.943 35.1068 141.07 35.5469 141.07 36.0312H139.625C139.625 35.7969 139.555 35.5703 139.414 35.3516C139.279 35.1276 139.078 34.9427 138.812 34.7969C138.552 34.651 138.232 34.5781 137.852 34.5781C137.451 34.5781 137.125 34.6406 136.875 34.7656C136.63 34.8854 136.451 35.0391 136.336 35.2266C136.227 35.4141 136.172 35.612 136.172 35.8203C136.172 35.9766 136.198 36.1172 136.25 36.2422C136.307 36.362 136.406 36.474 136.547 36.5781C136.688 36.6771 136.885 36.7708 137.141 36.8594C137.396 36.9479 137.721 37.0365 138.117 37.125C138.81 37.2812 139.38 37.4688 139.828 37.6875C140.276 37.9062 140.609 38.1745 140.828 38.4922C141.047 38.8099 141.156 39.1953 141.156 39.6484C141.156 40.0182 141.078 40.3568 140.922 40.6641C140.771 40.9714 140.549 41.237 140.258 41.4609C139.971 41.6797 139.628 41.8516 139.227 41.9766C138.831 42.0964 138.385 42.1562 137.891 42.1562C137.146 42.1562 136.516 42.0234 136 41.7578C135.484 41.4922 135.094 41.1484 134.828 40.7266C134.562 40.3047 134.43 39.8594 134.43 39.3906H135.883C135.904 39.7865 136.018 40.1016 136.227 40.3359C136.435 40.5651 136.69 40.7292 136.992 40.8281C137.294 40.9219 137.594 40.9688 137.891 40.9688C138.286 40.9688 138.617 40.9167 138.883 40.8125C139.154 40.7083 139.359 40.5651 139.5 40.3828C139.641 40.2005 139.711 39.9922 139.711 39.7578Z" fill="black"/>
<rect x="274" y="19" width="71" height="27" rx="4" fill="white"/>
<path d="M293.356 37H292.144L290.596 32.02H290.872L289.324 37H288.124L286.228 31.048H287.356L288.94 36.448H288.568L290.236 31.048H291.292L292.936 36.448H292.576L294.148 31.048H295.252L293.356 37ZM301.29 35.248L301.986 35.968C301.674 36.352 301.29 36.652 300.834 36.868C300.386 37.084 299.878 37.192 299.31 37.192C298.662 37.192 298.086 37.056 297.582 36.784C297.078 36.512 296.682 36.14 296.394 35.668C296.114 35.188 295.974 34.64 295.974 34.024C295.974 33.408 296.11 32.864 296.382 32.392C296.654 31.912 297.03 31.536 297.51 31.264C297.99 30.992 298.53 30.856 299.13 30.856C299.714 30.856 300.23 30.992 300.678 31.264C301.134 31.528 301.49 31.896 301.746 32.368C302.01 32.832 302.142 33.372 302.142 33.988V34.06H301.014V33.952C301.014 33.52 300.934 33.144 300.774 32.824C300.614 32.496 300.39 32.244 300.102 32.068C299.822 31.884 299.498 31.792 299.13 31.792C298.738 31.792 298.39 31.884 298.086 32.068C297.782 32.252 297.546 32.512 297.378 32.848C297.21 33.176 297.126 33.564 297.126 34.012C297.126 34.46 297.218 34.856 297.402 35.2C297.594 35.536 297.858 35.796 298.194 35.98C298.53 36.164 298.914 36.256 299.346 36.256C300.138 36.256 300.786 35.92 301.29 35.248ZM302.142 34.396H296.802V33.568H301.95L302.142 33.988V34.396ZM308.532 35.248L309.228 35.968C308.916 36.352 308.532 36.652 308.076 36.868C307.628 37.084 307.12 37.192 306.552 37.192C305.904 37.192 305.328 37.056 304.824 36.784C304.32 36.512 303.924 36.14 303.636 35.668C303.356 35.188 303.216 34.64 303.216 34.024C303.216 33.408 303.352 32.864 303.624 32.392C303.896 31.912 304.272 31.536 304.752 31.264C305.232 30.992 305.772 30.856 306.372 30.856C306.956 30.856 307.472 30.992 307.92 31.264C308.376 31.528 308.732 31.896 308.988 32.368C309.252 32.832 309.384 33.372 309.384 33.988V34.06H308.256V33.952C308.256 33.52 308.176 33.144 308.016 32.824C307.856 32.496 307.632 32.244 307.344 32.068C307.064 31.884 306.74 31.792 306.372 31.792C305.98 31.792 305.632 31.884 305.328 32.068C305.024 32.252 304.788 32.512 304.62 32.848C304.452 33.176 304.368 33.564 304.368 34.012C304.368 34.46 304.46 34.856 304.644 35.2C304.836 35.536 305.1 35.796 305.436 35.98C305.772 36.164 306.156 36.256 306.588 36.256C307.38 36.256 308.028 35.92 308.532 35.248ZM309.384 34.396H304.044V33.568H309.192L309.384 33.988V34.396ZM311.826 37H310.71V28.36H311.826V37ZM316.554 37H315.006L311.502 33.916H311.622L314.766 31.048H316.206L312.87 34.024V33.808L316.554 37Z" fill="#248F21"/>
<path d="M324 31L327 34L330 31" stroke="#248F21" stroke-width="1.125" stroke-miterlimit="16"/>
<rect x="19" y="62" width="326" height="106" rx="12" fill="url(#paint0_linear_576_1410)"/>
<path d="M31 98C31 95.7909 32.7909 94 35 94H51.5714C53.7806 94 55.5714 95.7909 55.5714 98V156H31V98Z" fill="url(#paint1_linear_576_1410)"/>
<path d="M43.5647 165.472H42.9887L40.7087 160.712L41.0367 160.704V166H40.2927V160.28H41.2447L43.4847 164.984H43.0847L45.3327 160.28H46.2607V166H45.5167V160.704L45.8447 160.712L43.5647 165.472Z" fill="#888888"/>
<path d="M71.5713 116C71.5713 113.791 73.3622 112 75.5713 112H92.1427C94.3519 112 96.1427 113.791 96.1427 116V156H71.5713V116Z" fill="url(#paint2_linear_576_1410)"/>
<path d="M84.2417 166H83.4737V160.872H84.2417V166ZM86.1137 160.952H81.6097V160.28H86.1137V160.952Z" fill="#888888"/>
<path d="M112.143 141C112.143 138.791 113.934 137 116.143 137H132.714C134.924 137 136.714 138.791 136.714 141V156H112.143V141Z" fill="url(#paint3_linear_576_1410)"/>
<path d="M126.646 166H125.758L124.39 161.2H124.478L123.102 166H122.222L120.502 160.28H121.326L122.806 165.48H122.55L124.038 160.28H124.83L126.326 165.48H126.086L127.566 160.28H128.358L126.646 166Z" fill="#888888"/>
<path d="M152.714 130C152.714 127.791 154.505 126 156.714 126H173.286C175.495 126 177.286 127.791 177.286 130V156H152.714V130Z" fill="url(#paint4_linear_576_1410)"/>
<path d="M165.385 166H164.617V160.872H165.385V166ZM167.257 160.952H162.753V160.28H167.257V160.952Z" fill="#888888"/>
<path d="M193.286 92C193.286 89.7909 195.077 88 197.286 88H213.857C216.066 88 217.857 89.7909 217.857 92V156H193.286V92Z" fill="url(#paint5_linear_576_1410)"/>
<path d="M204.647 166H203.879V160.28H207.583V160.944H204.647V166ZM207.431 163.416H204.567V162.752H207.431V163.416Z" fill="#888888"/>
<path d="M233.857 114C233.857 111.791 235.648 110 237.857 110H254.428C256.637 110 258.428 111.791 258.428 114V156H233.857V114Z" fill="url(#paint6_linear_576_1410)"/>
<path d="M243.692 165.072L244.236 164.544C244.391 164.731 244.57 164.891 244.772 165.024C244.975 165.157 245.194 165.261 245.428 165.336C245.663 165.411 245.911 165.448 246.172 165.448C246.466 165.448 246.724 165.405 246.948 165.32C247.172 165.229 247.348 165.107 247.476 164.952C247.604 164.797 247.668 164.616 247.668 164.408C247.668 164.136 247.548 163.923 247.308 163.768C247.074 163.608 246.668 163.485 246.092 163.4C245.57 163.32 245.151 163.213 244.836 163.08C244.522 162.947 244.292 162.779 244.148 162.576C244.004 162.368 243.932 162.123 243.932 161.84C243.932 161.509 244.026 161.216 244.212 160.96C244.399 160.704 244.655 160.507 244.98 160.368C245.311 160.224 245.687 160.152 246.108 160.152C246.594 160.152 247.023 160.248 247.396 160.44C247.775 160.627 248.106 160.883 248.388 161.208L247.852 161.728C247.634 161.456 247.386 161.24 247.108 161.08C246.831 160.915 246.498 160.832 246.108 160.832C245.703 160.832 245.37 160.923 245.108 161.104C244.852 161.28 244.724 161.517 244.724 161.816C244.724 161.971 244.772 162.104 244.868 162.216C244.964 162.323 245.122 162.413 245.34 162.488C245.559 162.563 245.852 162.629 246.22 162.688C246.754 162.763 247.183 162.875 247.508 163.024C247.839 163.168 248.079 163.352 248.228 163.576C248.383 163.8 248.46 164.069 248.46 164.384C248.46 164.731 248.362 165.035 248.164 165.296C247.972 165.557 247.703 165.763 247.356 165.912C247.015 166.056 246.62 166.128 246.172 166.128C245.644 166.128 245.175 166.035 244.764 165.848C244.354 165.656 243.996 165.397 243.692 165.072Z" fill="#888888"/>
<path d="M274.429 120C274.429 117.791 276.22 116 278.429 116H295C297.209 116 299 117.791 299 120V156H274.429V120Z" fill="url(#paint7_linear_576_1410)"/>
<path d="M284.264 165.072L284.808 164.544C284.963 164.731 285.141 164.891 285.344 165.024C285.547 165.157 285.765 165.261 286 165.336C286.235 165.411 286.483 165.448 286.744 165.448C287.037 165.448 287.296 165.405 287.52 165.32C287.744 165.229 287.92 165.107 288.048 164.952C288.176 164.797 288.24 164.616 288.24 164.408C288.24 164.136 288.12 163.923 287.88 163.768C287.645 163.608 287.24 163.485 286.664 163.4C286.141 163.32 285.723 163.213 285.408 163.08C285.093 162.947 284.864 162.779 284.72 162.576C284.576 162.368 284.504 162.123 284.504 161.84C284.504 161.509 284.597 161.216 284.784 160.96C284.971 160.704 285.227 160.507 285.552 160.368C285.883 160.224 286.259 160.152 286.68 160.152C287.165 160.152 287.595 160.248 287.968 160.44C288.347 160.627 288.677 160.883 288.96 161.208L288.424 161.728C288.205 161.456 287.957 161.24 287.68 161.08C287.403 160.915 287.069 160.832 286.68 160.832C286.275 160.832 285.941 160.923 285.68 161.104C285.424 161.28 285.296 161.517 285.296 161.816C285.296 161.971 285.344 162.104 285.44 162.216C285.536 162.323 285.693 162.413 285.912 162.488C286.131 162.563 286.424 162.629 286.792 162.688C287.325 162.763 287.755 162.875 288.08 163.024C288.411 163.168 288.651 163.352 288.8 163.576C288.955 163.8 289.032 164.069 289.032 164.384C289.032 164.731 288.933 165.035 288.736 165.296C288.544 165.557 288.275 165.763 287.928 165.912C287.587 166.056 287.192 166.128 286.744 166.128C286.216 166.128 285.747 166.035 285.336 165.848C284.925 165.656 284.568 165.397 284.264 165.072Z" fill="#888888"/>
<path d="M332.136 72.28H332.832V78H332.08V73.088L330.624 74.192V73.4L332.136 72.28ZM336.319 78.128C335.876 78.128 335.492 78.0107 335.167 77.776C334.847 77.536 334.601 77.1947 334.431 76.752C334.26 76.304 334.175 75.768 334.175 75.144C334.175 74.2 334.364 73.4667 334.743 72.944C335.127 72.416 335.652 72.152 336.319 72.152C336.991 72.152 337.516 72.416 337.895 72.944C338.279 73.4667 338.471 74.2 338.471 75.144C338.471 75.768 338.385 76.304 338.215 76.752C338.044 77.1947 337.799 77.536 337.479 77.776C337.159 78.0107 336.772 78.128 336.319 78.128ZM336.319 77.488C336.756 77.488 337.092 77.288 337.327 76.888C337.567 76.4827 337.687 75.9013 337.687 75.144C337.687 74.3813 337.567 73.8 337.327 73.4C337.092 72.9947 336.756 72.792 336.319 72.792C335.887 72.792 335.551 72.9947 335.311 73.4C335.071 73.8 334.951 74.3813 334.951 75.144C334.951 75.9013 335.071 76.4827 335.311 76.888C335.551 77.288 335.887 77.488 336.319 77.488Z" fill="#888888"/>
<path d="M335.52 94.128C335.109 94.128 334.741 94.056 334.416 93.912C334.096 93.7627 333.843 93.5627 333.656 93.312C333.475 93.056 333.384 92.7627 333.384 92.432C333.384 92.1173 333.477 91.8373 333.664 91.592C333.851 91.3413 334.104 91.1467 334.424 91.008C334.744 90.8693 335.109 90.8 335.52 90.8C335.936 90.8 336.304 90.8693 336.624 91.008C336.944 91.1467 337.195 91.3413 337.376 91.592C337.563 91.8373 337.656 92.1173 337.656 92.432C337.656 92.7627 337.563 93.056 337.376 93.312C337.195 93.5627 336.944 93.7627 336.624 93.912C336.309 94.056 335.941 94.128 335.52 94.128ZM335.52 91.16C335.152 91.16 334.821 91.0987 334.528 90.976C334.24 90.8533 334.013 90.6827 333.848 90.464C333.683 90.2453 333.6 90 333.6 89.728C333.6 89.424 333.683 89.1547 333.848 88.92C334.013 88.68 334.24 88.4933 334.528 88.36C334.816 88.2213 335.147 88.152 335.52 88.152C335.893 88.152 336.224 88.2213 336.512 88.36C336.805 88.4933 337.032 88.68 337.192 88.92C337.357 89.1547 337.44 89.424 337.44 89.728C337.44 90 337.357 90.2453 337.192 90.464C337.027 90.6827 336.8 90.8533 336.512 90.976C336.224 91.0987 335.893 91.16 335.52 91.16ZM335.52 93.488C335.776 93.488 336.005 93.4427 336.208 93.352C336.416 93.2613 336.579 93.136 336.696 92.976C336.819 92.8107 336.88 92.624 336.88 92.416C336.88 92.208 336.819 92.024 336.696 91.864C336.579 91.704 336.416 91.5787 336.208 91.488C336.005 91.392 335.776 91.344 335.52 91.344C335.269 91.344 335.04 91.392 334.832 91.488C334.629 91.5787 334.467 91.704 334.344 91.864C334.221 92.024 334.16 92.208 334.16 92.416C334.16 92.624 334.221 92.8107 334.344 92.976C334.467 93.136 334.629 93.2613 334.832 93.352C335.04 93.4427 335.269 93.488 335.52 93.488ZM335.52 90.712C335.739 90.712 335.933 90.672 336.104 90.592C336.28 90.5067 336.419 90.392 336.52 90.248C336.627 90.104 336.68 89.9413 336.68 89.76C336.68 89.5733 336.627 89.408 336.52 89.264C336.419 89.1147 336.28 88.9973 336.104 88.912C335.933 88.8267 335.739 88.784 335.52 88.784C335.307 88.784 335.112 88.8267 334.936 88.912C334.76 88.9973 334.621 89.1147 334.52 89.264C334.419 89.408 334.368 89.5733 334.368 89.76C334.368 89.9413 334.419 90.104 334.52 90.248C334.621 90.392 334.76 90.5067 334.936 90.592C335.112 90.672 335.307 90.712 335.52 90.712Z" fill="#888888"/>
<path d="M321.544 108.512H318.344V107.848H321.544V108.512ZM322.664 110H321.848L319.808 104.776H320.096L318.056 110H317.272L319.544 104.28H320.384L322.664 110ZM324.842 110H324.114L322.41 106.032H323.202L324.618 109.552H324.362L325.786 106.032H326.546L324.842 110ZM331.092 109.616C331.092 110.021 330.998 110.379 330.812 110.688C330.63 110.997 330.38 111.24 330.06 111.416C329.74 111.592 329.372 111.68 328.956 111.68C328.577 111.68 328.233 111.613 327.924 111.48C327.614 111.352 327.358 111.173 327.156 110.944L327.62 110.448C327.769 110.635 327.95 110.781 328.164 110.888C328.382 110.995 328.641 111.048 328.94 111.048C329.222 111.048 329.468 110.987 329.676 110.864C329.889 110.747 330.054 110.581 330.172 110.368C330.289 110.16 330.348 109.915 330.348 109.632V108.104C330.348 107.763 330.284 107.477 330.156 107.248C330.028 107.019 329.86 106.845 329.652 106.728C329.449 106.605 329.228 106.544 328.988 106.544C328.726 106.544 328.492 106.608 328.284 106.736C328.081 106.864 327.924 107.037 327.812 107.256C327.7 107.469 327.644 107.712 327.644 107.984C327.644 108.261 327.7 108.507 327.812 108.72C327.929 108.933 328.089 109.101 328.292 109.224C328.5 109.341 328.742 109.4 329.02 109.4C329.265 109.4 329.489 109.349 329.692 109.248C329.894 109.147 330.06 109.008 330.188 108.832C330.321 108.651 330.398 108.445 330.42 108.216L330.572 108.368C330.609 108.688 330.556 108.973 330.412 109.224C330.273 109.475 330.07 109.675 329.804 109.824C329.542 109.968 329.238 110.04 328.892 110.04C328.508 110.04 328.161 109.955 327.852 109.784C327.548 109.608 327.308 109.365 327.132 109.056C326.956 108.741 326.868 108.384 326.868 107.984C326.868 107.579 326.956 107.221 327.132 106.912C327.313 106.597 327.553 106.352 327.852 106.176C328.156 105.995 328.494 105.904 328.868 105.904C329.14 105.904 329.39 105.955 329.62 106.056C329.854 106.157 330.052 106.309 330.212 106.512C330.372 106.709 330.476 106.955 330.524 107.248H330.356V106.032H331.092V109.616ZM335.692 110.128C335.27 110.128 334.9 110.037 334.58 109.856C334.265 109.669 334.02 109.416 333.844 109.096C333.668 108.771 333.58 108.4 333.58 107.984C333.58 107.573 333.668 107.163 333.844 106.752C334.02 106.336 334.284 105.923 334.636 105.512C334.988 105.101 335.425 104.691 335.948 104.28H336.988C336.465 104.68 336.03 105.045 335.684 105.376C335.342 105.707 335.073 106.019 334.876 106.312C334.684 106.605 334.542 106.899 334.452 107.192L334.308 107.12C334.457 106.848 334.665 106.629 334.932 106.464C335.204 106.299 335.51 106.216 335.852 106.216C336.209 106.216 336.537 106.299 336.836 106.464C337.134 106.624 337.372 106.848 337.548 107.136C337.729 107.424 337.82 107.755 337.82 108.128C337.82 108.507 337.726 108.848 337.54 109.152C337.358 109.451 337.108 109.688 336.788 109.864C336.468 110.04 336.102 110.128 335.692 110.128ZM335.692 109.488C335.958 109.488 336.193 109.429 336.396 109.312C336.598 109.189 336.758 109.029 336.876 108.832C336.998 108.629 337.06 108.4 337.06 108.144C337.06 107.893 336.998 107.669 336.876 107.472C336.758 107.275 336.598 107.12 336.396 107.008C336.193 106.891 335.958 106.832 335.692 106.832C335.436 106.832 335.204 106.891 334.996 107.008C334.793 107.12 334.633 107.275 334.516 107.472C334.398 107.669 334.34 107.893 334.34 108.144C334.34 108.4 334.398 108.629 334.516 108.832C334.633 109.029 334.793 109.189 334.996 109.312C335.204 109.429 335.436 109.488 335.692 109.488Z" fill="black"/>
<path d="M337.056 126H336.312V124.632H333.328V124.024L336.312 120.28H337.056V124.024H337.912V124.632H337.056V126ZM336.312 121.24L334.088 124.024H336.312V121.24Z" fill="#888888"/>
<path d="M338.232 142H334.4V141.376L336.44 139.472C336.765 139.163 337.013 138.883 337.184 138.632C337.36 138.381 337.448 138.123 337.448 137.856C337.448 137.659 337.4 137.48 337.304 137.32C337.213 137.16 337.085 137.032 336.92 136.936C336.755 136.84 336.563 136.792 336.344 136.792C336.04 136.792 335.763 136.877 335.512 137.048C335.261 137.213 335.043 137.448 334.856 137.752L334.336 137.264C334.608 136.896 334.912 136.619 335.248 136.432C335.589 136.245 335.965 136.152 336.376 136.152C336.744 136.152 337.064 136.229 337.336 136.384C337.608 136.533 337.819 136.736 337.968 136.992C338.123 137.248 338.2 137.539 338.2 137.864C338.2 138.109 338.147 138.344 338.04 138.568C337.939 138.792 337.787 139.021 337.584 139.256C337.381 139.491 337.123 139.749 336.808 140.032C336.648 140.181 336.485 140.333 336.32 140.488C336.155 140.637 335.989 140.787 335.824 140.936C335.664 141.085 335.504 141.232 335.344 141.376H338.232V142Z" fill="#888888"/>
<path d="M335.592 158.128C335.149 158.128 334.765 158.011 334.44 157.776C334.12 157.536 333.875 157.195 333.704 156.752C333.533 156.304 333.448 155.768 333.448 155.144C333.448 154.2 333.637 153.467 334.016 152.944C334.4 152.416 334.925 152.152 335.592 152.152C336.264 152.152 336.789 152.416 337.168 152.944C337.552 153.467 337.744 154.2 337.744 155.144C337.744 155.768 337.659 156.304 337.488 156.752C337.317 157.195 337.072 157.536 336.752 157.776C336.432 158.011 336.045 158.128 335.592 158.128ZM335.592 157.488C336.029 157.488 336.365 157.288 336.6 156.888C336.84 156.483 336.96 155.901 336.96 155.144C336.96 154.381 336.84 153.8 336.6 153.4C336.365 152.995 336.029 152.792 335.592 152.792C335.16 152.792 334.824 152.995 334.584 153.4C334.344 153.8 334.224 154.381 334.224 155.144C334.224 155.901 334.344 156.483 334.584 156.888C334.824 157.288 335.16 157.488 335.592 157.488Z" fill="#888888"/>
<g clip-path="url(#clip0_576_1410)">
<path opacity="0.4" fill-rule="evenodd" clip-rule="evenodd" d="M116.389 200.973C116.595 200.613 116.469 200.155 116.109 199.95C115.75 199.745 115.292 199.87 115.086 200.23L113.054 203.794L110.726 201H108.773L112.261 205.185L111.653 206.251H108.375C107.961 206.251 107.625 206.587 107.625 207.001C107.625 207.416 107.961 207.751 108.375 207.751H111.653C112.192 207.751 112.69 207.461 112.957 206.993L116.389 200.973Z" fill="#248F21"/>
<path fill-rule="evenodd" clip-rule="evenodd" d="M108.375 204.75C107.132 204.75 106.125 205.757 106.125 207C106.125 208.243 107.132 209.25 108.375 209.25C109.618 209.25 110.625 208.243 110.625 207C110.625 205.757 109.618 204.75 108.375 204.75ZM104.625 207C104.625 204.929 106.304 203.25 108.375 203.25C110.446 203.25 112.125 204.929 112.125 207C112.125 209.071 110.446 210.75 108.375 210.75C106.304 210.75 104.625 209.071 104.625 207Z" fill="#248F21"/>
<path fill-rule="evenodd" clip-rule="evenodd" d="M118.125 204.75C116.882 204.75 115.875 205.757 115.875 207C115.875 208.243 116.882 209.25 118.125 209.25C119.368 209.25 120.375 208.243 120.375 207C120.375 205.757 119.368 204.75 118.125 204.75ZM114.375 207C114.375 204.929 116.054 203.25 118.125 203.25C120.196 203.25 121.875 204.929 121.875 207C121.875 209.071 120.196 210.75 118.125 210.75C116.054 210.75 114.375 209.071 114.375 207Z" fill="#248F21"/>
<path d="M106.875 200.25C106.875 199.836 107.211 199.5 107.625 199.5H110.625C111.039 199.5 111.375 199.836 111.375 200.25C111.375 200.632 111.09 200.947 110.721 200.994L108.774 201H107.625C107.211 201 106.875 200.664 106.875 200.25Z" fill="#248F21"/>
<path fill-rule="evenodd" clip-rule="evenodd" d="M114.662 197.643C114.987 197.288 115.449 197.25 115.721 197.25C116.388 197.25 117.196 197.289 117.911 197.577C118.675 197.883 119.316 198.468 119.596 199.464C119.709 199.862 119.477 200.277 119.078 200.389C118.679 200.501 118.265 200.269 118.153 199.871C118.012 199.37 117.732 199.121 117.352 198.968C116.983 198.82 116.519 198.765 115.986 198.753L118.85 206.747C118.99 207.137 118.787 207.566 118.397 207.706C118.007 207.846 117.578 207.643 117.438 207.253L114.457 198.933C114.449 198.912 114.443 198.891 114.437 198.87C114.35 198.537 114.302 198.037 114.662 197.643Z" fill="#248F21"/>
</g>
<rect x="162" y="184" width="40" height="40" rx="20" fill="url(#paint8_radial_576_1410)"/>
<path d="M187 196.5C187 197.328 186.328 198 185.5 198C184.672 198 184 197.328 184 196.5C184 195.672 184.672 195 185.5 195C186.328 195 187 195.672 187 196.5Z" fill="white" stroke="white" stroke-width="1.31836"/>
<path opacity="0.4" d="M182.869 200.438H182.87C183.129 200.438 183.298 200.438 183.429 200.448C183.553 200.458 183.608 200.475 183.642 200.49C183.665 200.501 183.721 200.537 183.84 200.662C183.956 200.785 184.1 200.957 184.311 201.208V201.207C184.348 201.252 184.391 201.296 184.432 201.341L181.396 205.956C181.079 205.703 180.834 205.504 180.646 205.323C180.394 205.082 180.27 204.904 180.205 204.727C180.137 204.542 180.105 204.347 180.109 204.15C180.114 203.961 180.173 203.753 180.334 203.443C180.498 203.127 180.746 202.744 181.1 202.198L182.238 200.439C182.425 200.438 182.647 200.437 182.869 200.438Z" fill="white" stroke="white" stroke-width="0.878906"/>
<path d="M186 213.003L185.336 210.387C185.116 209.521 184.662 208.73 184.021 208.099L182.5 206.602M177 203.155C178 201.186 179.538 200.044 183 200.003ZM183 200.003C183.219 200.001 183.544 200 183.87 200C184.375 200 184.627 200 184.828 200.094C185.029 200.188 185.236 200.435 185.648 200.927C185.766 201.069 185.888 201.195 186 201.279M183 200.003L181.731 201.962C181.033 203.038 180.684 203.576 180.671 204.142C180.665 204.393 180.706 204.644 180.793 204.88C180.988 205.411 181.492 205.808 182.5 206.602M186 201.279C187.155 202.145 188.963 202.494 191 200.201ZM186 201.279L182.5 206.602Z" fill="white"/>
<path d="M186 213.003L185.336 210.387C185.116 209.521 184.662 208.73 184.021 208.099L182.5 206.602M182.5 206.602C181.492 205.808 180.988 205.411 180.793 204.88C180.706 204.644 180.665 204.393 180.671 204.142C180.684 203.576 181.033 203.038 181.731 201.962L183 200.003M182.5 206.602L186 201.279M177 203.155C178 201.186 179.538 200.044 183 200.003M183 200.003C183.219 200.001 183.544 200 183.87 200C184.375 200 184.627 200 184.828 200.094C185.029 200.188 185.236 200.435 185.648 200.927C185.766 201.069 185.888 201.195 186 201.279M186 201.279C187.155 202.145 188.963 202.494 191 200.201" stroke="white" stroke-width="1.31836" stroke-linecap="round" stroke-linejoin="round"/>
<path d="M174 209.73L174.678 209.892C176.407 210.303 178.203 209.516 179 208" fill="white"/>
<path d="M174 209.73L174.678 209.892C176.407 210.303 178.203 209.516 179 208" stroke="white" stroke-width="1.31836" stroke-linecap="round" stroke-linejoin="round"/>
<path opacity="0.4" d="M250.539 200.146L253.75 206.999C252.125 206.999 251.63 206.142 249.935 205.285C248.578 204.599 246.685 204.714 246.12 204.856L248.393 203.249C248.624 203.086 248.74 203.004 248.777 202.879C248.814 202.755 248.762 202.623 248.657 202.36L248.339 201.559C248.22 201.259 248.16 201.109 248.053 201.001C248.015 200.963 247.974 200.929 247.929 200.9C247.801 200.817 247.643 200.788 247.325 200.732L244.887 200.3C244.374 200.209 244 199.762 244 199.241C244 198.586 244.581 198.083 245.229 198.177L248.526 198.653C249.12 198.739 249.416 198.782 249.664 198.923C249.767 198.982 249.863 199.053 249.95 199.135C250.157 199.331 250.284 199.602 250.539 200.146Z" fill="#248F21"/>
<path d="M250.539 200.146L253.75 206.999C252.125 206.999 251.63 206.142 249.935 205.285C248.578 204.599 246.685 204.714 246.12 204.856L248.393 203.249C248.624 203.086 248.74 203.004 248.777 202.879C248.814 202.755 248.762 202.623 248.657 202.36L248.339 201.559C248.22 201.259 248.16 201.109 248.053 201.001C248.015 200.963 247.974 200.929 247.929 200.9C247.801 200.817 247.643 200.788 247.325 200.732L244.887 200.3C244.374 200.209 244 199.762 244 199.241C244 198.586 244.581 198.083 245.229 198.177L248.526 198.653C249.12 198.739 249.416 198.782 249.664 198.923C249.767 198.982 249.863 199.053 249.95 199.135C250.157 199.331 250.284 199.602 250.539 200.146Z" stroke="#248F21" stroke-width="0.84375" stroke-linecap="round" stroke-linejoin="round"/>
<path d="M256.75 204.751C257.993 204.751 259 203.744 259 202.501C259 201.259 257.993 200.251 256.75 200.251C255.507 200.251 254.5 201.259 254.5 202.501C254.5 203.744 255.507 204.751 256.75 204.751Z" stroke="#248F21" stroke-width="0.84375" stroke-linecap="round" stroke-linejoin="round"/>
<path d="M244 208.563C244.792 205.915 248.326 207.13 251.125 208.563C253.924 209.996 256.75 210.908 258.25 208.563" stroke="#248F21" stroke-width="0.84375" stroke-linecap="round" stroke-linejoin="round"/>
<path d="M55.7266 259.75V262H44.2891V260.066L49.8438 254.008C50.4531 253.32 50.9336 252.727 51.2852 252.227C51.6367 251.727 51.8828 251.277 52.0234 250.879C52.1719 250.473 52.2461 250.078 52.2461 249.695C52.2461 249.156 52.1445 248.684 51.9414 248.277C51.7461 247.863 51.457 247.539 51.0742 247.305C50.6914 247.062 50.2266 246.941 49.6797 246.941C49.0469 246.941 48.5156 247.078 48.0859 247.352C47.6562 247.625 47.332 248.004 47.1133 248.488C46.8945 248.965 46.7852 249.512 46.7852 250.129H43.9609C43.9609 249.137 44.1875 248.23 44.6406 247.41C45.0938 246.582 45.75 245.926 46.6094 245.441C47.4688 244.949 48.5039 244.703 49.7148 244.703C50.8555 244.703 51.8242 244.895 52.6211 245.277C53.418 245.66 54.0234 246.203 54.4375 246.906C54.8594 247.609 55.0703 248.441 55.0703 249.402C55.0703 249.934 54.9844 250.461 54.8125 250.984C54.6406 251.508 54.3945 252.031 54.0742 252.555C53.7617 253.07 53.3906 253.59 52.9609 254.113C52.5312 254.629 52.0586 255.152 51.543 255.684L47.8516 259.75H55.7266ZM61.2461 252.191H62.9336C63.5898 252.191 64.1328 252.078 64.5625 251.852C65 251.625 65.3242 251.312 65.5352 250.914C65.7461 250.516 65.8516 250.059 65.8516 249.543C65.8516 249.004 65.7539 248.543 65.5586 248.16C65.3711 247.77 65.082 247.469 64.6914 247.258C64.3086 247.047 63.8203 246.941 63.2266 246.941C62.7266 246.941 62.2734 247.043 61.8672 247.246C61.4688 247.441 61.1523 247.723 60.918 248.09C60.6836 248.449 60.5664 248.879 60.5664 249.379H57.7305C57.7305 248.473 57.9688 247.668 58.4453 246.965C58.9219 246.262 59.5703 245.711 60.3906 245.312C61.2188 244.906 62.1484 244.703 63.1797 244.703C64.2812 244.703 65.2422 244.887 66.0625 245.254C66.8906 245.613 67.5352 246.152 67.9961 246.871C68.457 247.59 68.6875 248.48 68.6875 249.543C68.6875 250.027 68.5742 250.52 68.3477 251.02C68.1211 251.52 67.7852 251.977 67.3398 252.391C66.8945 252.797 66.3398 253.129 65.6758 253.387C65.0117 253.637 64.2422 253.762 63.3672 253.762H61.2461V252.191ZM61.2461 254.395V252.848H63.3672C64.3672 252.848 65.2188 252.965 65.9219 253.199C66.6328 253.434 67.2109 253.758 67.6562 254.172C68.1016 254.578 68.4258 255.043 68.6289 255.566C68.8398 256.09 68.9453 256.645 68.9453 257.23C68.9453 258.027 68.8008 258.738 68.5117 259.363C68.2305 259.98 67.8281 260.504 67.3047 260.934C66.7812 261.363 66.168 261.688 65.4648 261.906C64.7695 262.125 64.0117 262.234 63.1914 262.234C62.457 262.234 61.7539 262.133 61.082 261.93C60.4102 261.727 59.8086 261.426 59.2773 261.027C58.7461 260.621 58.3242 260.117 58.0117 259.516C57.707 258.906 57.5547 258.203 57.5547 257.406H60.3789C60.3789 257.914 60.4961 258.363 60.7305 258.754C60.9727 259.137 61.3086 259.438 61.7383 259.656C62.1758 259.875 62.6758 259.984 63.2383 259.984C63.832 259.984 64.3438 259.879 64.7734 259.668C65.2031 259.457 65.5312 259.145 65.7578 258.73C65.9922 258.316 66.1094 257.816 66.1094 257.23C66.1094 256.566 65.9805 256.027 65.7227 255.613C65.4648 255.199 65.0977 254.895 64.6211 254.699C64.1445 254.496 63.582 254.395 62.9336 254.395H61.2461ZM74.3828 259.281L74.3711 261.297C74.3711 262.094 74.1719 262.914 73.7734 263.758C73.375 264.602 72.8477 265.297 72.1914 265.844L70.6797 264.965C70.8984 264.613 71.0977 264.258 71.2773 263.898C71.457 263.539 71.6016 263.156 71.7109 262.75C71.8203 262.344 71.875 261.895 71.875 261.402V259.281H74.3828ZM88.2695 244.938V246.484L81.4492 262H78.4727L85.2812 247.188H76.4453V244.938H88.2695ZM101.699 252.039V254.828C101.699 256.164 101.566 257.305 101.301 258.25C101.043 259.188 100.668 259.949 100.176 260.535C99.6836 261.121 99.0938 261.551 98.4062 261.824C97.7266 262.098 96.9648 262.234 96.1211 262.234C95.4492 262.234 94.8242 262.148 94.2461 261.977C93.6758 261.805 93.1602 261.535 92.6992 261.168C92.2383 260.801 91.8438 260.328 91.5156 259.75C91.1953 259.164 90.9453 258.465 90.7656 257.652C90.5938 256.84 90.5078 255.898 90.5078 254.828V252.039C90.5078 250.695 90.6406 249.562 90.9062 248.641C91.1719 247.711 91.5508 246.957 92.043 246.379C92.5352 245.793 93.1211 245.367 93.8008 245.102C94.4883 244.836 95.2539 244.703 96.0977 244.703C96.7773 244.703 97.4023 244.789 97.9727 244.961C98.5508 245.125 99.0664 245.387 99.5195 245.746C99.9805 246.105 100.371 246.574 100.691 247.152C101.02 247.723 101.27 248.414 101.441 249.227C101.613 250.031 101.699 250.969 101.699 252.039ZM98.875 255.227V251.617C98.875 250.938 98.8359 250.34 98.7578 249.824C98.6797 249.301 98.5625 248.859 98.4062 248.5C98.2578 248.133 98.0703 247.836 97.8438 247.609C97.6172 247.375 97.3594 247.207 97.0703 247.105C96.7812 246.996 96.457 246.941 96.0977 246.941C95.6602 246.941 95.2695 247.027 94.9258 247.199C94.582 247.363 94.293 247.629 94.0586 247.996C93.8242 248.363 93.6445 248.848 93.5195 249.449C93.4023 250.043 93.3438 250.766 93.3438 251.617V255.227C93.3438 255.914 93.3828 256.52 93.4609 257.043C93.5391 257.566 93.6562 258.016 93.8125 258.391C93.9688 258.758 94.1562 259.062 94.375 259.305C94.6016 259.539 94.8594 259.711 95.1484 259.82C95.4453 259.93 95.7695 259.984 96.1211 259.984C96.5664 259.984 96.9609 259.898 97.3047 259.727C97.6484 259.555 97.9375 259.281 98.1719 258.906C98.4062 258.523 98.582 258.027 98.6992 257.418C98.8164 256.809 98.875 256.078 98.875 255.227ZM106.492 259.773H106.727C107.805 259.773 108.703 259.633 109.422 259.352C110.148 259.062 110.727 258.664 111.156 258.156C111.586 257.648 111.895 257.051 112.082 256.363C112.27 255.676 112.363 254.93 112.363 254.125V251.184C112.363 250.488 112.289 249.879 112.141 249.355C112 248.824 111.797 248.383 111.531 248.031C111.273 247.672 110.973 247.402 110.629 247.223C110.293 247.043 109.93 246.953 109.539 246.953C109.109 246.953 108.723 247.051 108.379 247.246C108.043 247.434 107.758 247.695 107.523 248.031C107.297 248.359 107.121 248.746 106.996 249.191C106.879 249.629 106.82 250.098 106.82 250.598C106.82 251.066 106.875 251.52 106.984 251.957C107.102 252.387 107.273 252.77 107.5 253.105C107.727 253.441 108.012 253.707 108.355 253.902C108.699 254.098 109.102 254.195 109.562 254.195C110 254.195 110.402 254.113 110.77 253.949C111.137 253.777 111.457 253.547 111.73 253.258C112.004 252.969 112.219 252.645 112.375 252.285C112.531 251.926 112.617 251.559 112.633 251.184L113.711 251.512C113.711 252.105 113.586 252.691 113.336 253.27C113.094 253.84 112.754 254.363 112.316 254.84C111.887 255.309 111.383 255.684 110.805 255.965C110.234 256.246 109.613 256.387 108.941 256.387C108.129 256.387 107.41 256.234 106.785 255.93C106.168 255.617 105.652 255.195 105.238 254.664C104.832 254.133 104.527 253.523 104.324 252.836C104.121 252.148 104.02 251.426 104.02 250.668C104.02 249.848 104.145 249.078 104.395 248.359C104.645 247.641 105.008 247.008 105.484 246.461C105.961 245.906 106.539 245.477 107.219 245.172C107.906 244.859 108.684 244.703 109.551 244.703C110.473 244.703 111.281 244.883 111.977 245.242C112.672 245.602 113.258 246.098 113.734 246.73C114.211 247.363 114.57 248.098 114.812 248.934C115.055 249.77 115.176 250.668 115.176 251.629V252.625C115.176 253.633 115.086 254.605 114.906 255.543C114.727 256.473 114.434 257.336 114.027 258.133C113.629 258.922 113.102 259.617 112.445 260.219C111.797 260.812 111 261.277 110.055 261.613C109.117 261.941 108.016 262.105 106.75 262.105H106.492V259.773Z" fill="black"/>
<path d="M144.234 252H136.809C134.853 252 133.875 252 133.279 251.255C132.147 249.842 133.437 246.083 134.218 244.667C134.482 246.267 137.208 246.222 138.201 246C137.539 244.667 138.422 244.223 138.864 244L138.864 244C140.833 246.333 145.043 247.603 146.075 250.146C146.521 251.244 145.251 252 144.234 252Z" stroke="#248F21" stroke-width="0.9375" stroke-linecap="round" stroke-linejoin="round"/>
<path opacity="0.4" d="M146.116 250.263C146.105 250.224 146.091 250.185 146.075 250.146C145.487 248.697 143.868 247.662 142.219 246.607C140.974 245.811 139.711 245.004 138.864 244L138.863 244C138.422 244.223 137.539 244.667 138.2 246C137.208 246.222 134.482 246.267 134.217 244.667C133.686 245.63 132.919 247.679 132.84 249.336C135.612 250.287 137.322 250.562 139.514 249.869C140.179 249.659 140.511 249.554 140.719 249.568C140.926 249.583 141.348 249.78 142.194 250.174C143.237 250.661 144.665 250.943 146.116 250.263Z" fill="#248F21"/>
<path d="M132.833 249.333C132.836 249.334 132.838 249.335 132.84 249.336M132.84 249.336C135.613 250.287 137.323 250.562 139.515 249.869C140.179 249.659 140.512 249.554 140.719 249.568C140.926 249.583 141.349 249.78 142.194 250.174C143.238 250.661 144.665 250.943 146.117 250.263C146.43 251.298 145.214 252 144.234 252H136.809C134.853 252 133.875 252 133.279 251.255C132.918 250.804 132.803 250.113 132.84 249.336Z" stroke="#248F21" stroke-width="0.9375" stroke-linejoin="round"/>
<path d="M140.5 246.333L141.5 245.333" stroke="#248F21" stroke-width="0.9375" stroke-linecap="round" stroke-linejoin="round"/>
<path d="M141.833 247.333L142.833 246.333" stroke="#248F21" stroke-width="0.9375" stroke-linecap="round" stroke-linejoin="round"/>
<path d="M131.004 263.599C131.004 263.468 130.975 263.348 130.916 263.237C130.861 263.123 130.745 263.021 130.569 262.93C130.397 262.835 130.136 262.754 129.788 262.686C129.495 262.624 129.23 262.55 128.992 262.466C128.758 262.381 128.558 262.279 128.392 262.158C128.229 262.038 128.104 261.896 128.016 261.733C127.928 261.571 127.884 261.38 127.884 261.162C127.884 260.954 127.929 260.757 128.021 260.571C128.115 260.386 128.247 260.221 128.416 260.078C128.589 259.935 128.795 259.823 129.036 259.741C129.277 259.66 129.546 259.619 129.842 259.619C130.265 259.619 130.626 259.694 130.926 259.844C131.225 259.993 131.455 260.194 131.614 260.444C131.774 260.692 131.854 260.967 131.854 261.27H130.95C130.95 261.123 130.906 260.981 130.818 260.845C130.734 260.705 130.608 260.589 130.442 260.498C130.28 260.407 130.079 260.361 129.842 260.361C129.591 260.361 129.388 260.4 129.231 260.479C129.078 260.553 128.966 260.649 128.895 260.767C128.826 260.884 128.792 261.007 128.792 261.138C128.792 261.235 128.808 261.323 128.841 261.401C128.877 261.476 128.938 261.546 129.026 261.611C129.114 261.673 129.238 261.732 129.397 261.787C129.557 261.842 129.76 261.898 130.008 261.953C130.441 262.051 130.797 262.168 131.077 262.305C131.357 262.441 131.565 262.609 131.702 262.808C131.839 263.006 131.907 263.247 131.907 263.53C131.907 263.761 131.858 263.973 131.761 264.165C131.666 264.357 131.528 264.523 131.346 264.663C131.167 264.8 130.952 264.907 130.701 264.985C130.454 265.06 130.175 265.098 129.866 265.098C129.401 265.098 129.007 265.015 128.685 264.849C128.362 264.683 128.118 264.468 127.952 264.204C127.786 263.94 127.703 263.662 127.703 263.369H128.611C128.624 263.617 128.696 263.813 128.826 263.96C128.956 264.103 129.116 264.206 129.305 264.268C129.493 264.326 129.681 264.355 129.866 264.355C130.114 264.355 130.32 264.323 130.486 264.258C130.656 264.193 130.784 264.103 130.872 263.989C130.96 263.875 131.004 263.745 131.004 263.599ZM135.306 259.717V260.41H132.449V259.717H135.306ZM133.416 258.433H134.319V263.691C134.319 263.87 134.347 264.006 134.402 264.097C134.458 264.188 134.529 264.248 134.617 264.277C134.705 264.307 134.799 264.321 134.9 264.321C134.975 264.321 135.053 264.315 135.135 264.302C135.219 264.285 135.283 264.272 135.325 264.263L135.33 265C135.258 265.023 135.164 265.044 135.047 265.063C134.933 265.086 134.795 265.098 134.632 265.098C134.41 265.098 134.207 265.054 134.021 264.966C133.836 264.878 133.688 264.731 133.577 264.526C133.47 264.318 133.416 264.038 133.416 263.687V258.433ZM138.558 265.098C138.19 265.098 137.856 265.036 137.557 264.912C137.26 264.785 137.005 264.608 136.79 264.38C136.578 264.152 136.416 263.882 136.302 263.569C136.188 263.257 136.131 262.915 136.131 262.544V262.339C136.131 261.909 136.194 261.527 136.321 261.191C136.448 260.853 136.621 260.566 136.839 260.332C137.057 260.098 137.304 259.92 137.581 259.8C137.858 259.679 138.144 259.619 138.44 259.619C138.818 259.619 139.144 259.684 139.417 259.814C139.694 259.945 139.92 260.127 140.096 260.361C140.271 260.592 140.402 260.866 140.486 261.182C140.571 261.494 140.613 261.836 140.613 262.207V262.612H136.668V261.875H139.71V261.807C139.697 261.572 139.648 261.344 139.563 261.123C139.482 260.902 139.352 260.719 139.173 260.576C138.994 260.433 138.75 260.361 138.44 260.361C138.235 260.361 138.047 260.405 137.874 260.493C137.701 260.578 137.553 260.705 137.43 260.874C137.306 261.043 137.21 261.25 137.142 261.494C137.073 261.738 137.039 262.02 137.039 262.339V262.544C137.039 262.795 137.073 263.031 137.142 263.252C137.213 263.47 137.316 263.662 137.449 263.828C137.586 263.994 137.75 264.124 137.942 264.219C138.138 264.313 138.359 264.36 138.606 264.36C138.925 264.36 139.196 264.295 139.417 264.165C139.638 264.035 139.832 263.861 139.998 263.643L140.545 264.077C140.431 264.25 140.286 264.414 140.11 264.57C139.935 264.727 139.718 264.854 139.461 264.951C139.207 265.049 138.906 265.098 138.558 265.098ZM142.571 260.732V267.031H141.663V259.717H142.493L142.571 260.732ZM146.131 262.314V262.417C146.131 262.801 146.085 263.158 145.994 263.486C145.903 263.812 145.77 264.095 145.594 264.336C145.421 264.577 145.208 264.764 144.954 264.897C144.7 265.031 144.409 265.098 144.08 265.098C143.745 265.098 143.449 265.042 143.191 264.932C142.934 264.821 142.716 264.66 142.537 264.448C142.358 264.237 142.215 263.983 142.107 263.687C142.003 263.39 141.932 263.057 141.893 262.686V262.139C141.932 261.748 142.005 261.398 142.112 261.089C142.22 260.78 142.361 260.516 142.537 260.298C142.716 260.076 142.933 259.909 143.187 259.795C143.44 259.678 143.733 259.619 144.065 259.619C144.397 259.619 144.692 259.684 144.949 259.814C145.206 259.941 145.423 260.124 145.599 260.361C145.774 260.599 145.906 260.884 145.994 261.216C146.085 261.545 146.131 261.911 146.131 262.314ZM145.223 262.417V262.314C145.223 262.051 145.195 261.803 145.14 261.572C145.084 261.338 144.998 261.133 144.881 260.957C144.767 260.778 144.62 260.638 144.441 260.537C144.262 260.433 144.049 260.381 143.802 260.381C143.574 260.381 143.375 260.42 143.206 260.498C143.04 260.576 142.898 260.682 142.781 260.815C142.664 260.946 142.568 261.095 142.493 261.265C142.422 261.431 142.368 261.603 142.332 261.782V263.047C142.397 263.275 142.488 263.49 142.605 263.691C142.723 263.89 142.879 264.051 143.074 264.175C143.27 264.295 143.515 264.355 143.812 264.355C144.056 264.355 144.266 264.305 144.441 264.204C144.62 264.1 144.767 263.958 144.881 263.779C144.998 263.6 145.084 263.395 145.14 263.164C145.195 262.93 145.223 262.681 145.223 262.417ZM150.359 263.599C150.359 263.468 150.33 263.348 150.271 263.237C150.216 263.123 150.101 263.021 149.925 262.93C149.752 262.835 149.492 262.754 149.144 262.686C148.851 262.624 148.585 262.55 148.348 262.466C148.113 262.381 147.913 262.279 147.747 262.158C147.584 262.038 147.459 261.896 147.371 261.733C147.283 261.571 147.239 261.38 147.239 261.162C147.239 260.954 147.285 260.757 147.376 260.571C147.47 260.386 147.602 260.221 147.771 260.078C147.944 259.935 148.151 259.823 148.392 259.741C148.632 259.66 148.901 259.619 149.197 259.619C149.62 259.619 149.982 259.694 150.281 259.844C150.581 259.993 150.81 260.194 150.97 260.444C151.129 260.692 151.209 260.967 151.209 261.27H150.306C150.306 261.123 150.262 260.981 150.174 260.845C150.089 260.705 149.964 260.589 149.798 260.498C149.635 260.407 149.435 260.361 149.197 260.361C148.947 260.361 148.743 260.4 148.587 260.479C148.434 260.553 148.322 260.649 148.25 260.767C148.182 260.884 148.147 261.007 148.147 261.138C148.147 261.235 148.164 261.323 148.196 261.401C148.232 261.476 148.294 261.546 148.382 261.611C148.47 261.673 148.593 261.732 148.753 261.787C148.912 261.842 149.116 261.898 149.363 261.953C149.796 262.051 150.153 262.168 150.433 262.305C150.713 262.441 150.921 262.609 151.058 262.808C151.194 263.006 151.263 263.247 151.263 263.53C151.263 263.761 151.214 263.973 151.116 264.165C151.022 264.357 150.883 264.523 150.701 264.663C150.522 264.8 150.307 264.907 150.057 264.985C149.809 265.06 149.531 265.098 149.222 265.098C148.756 265.098 148.362 265.015 148.04 264.849C147.718 264.683 147.474 264.468 147.308 264.204C147.142 263.94 147.059 263.662 147.059 263.369H147.967C147.98 263.617 148.051 263.813 148.182 263.96C148.312 264.103 148.471 264.206 148.66 264.268C148.849 264.326 149.036 264.355 149.222 264.355C149.469 264.355 149.676 264.323 149.842 264.258C150.011 264.193 150.14 264.103 150.228 263.989C150.315 263.875 150.359 263.745 150.359 263.599Z" fill="#248F21"/>
<path d="M234 244.879V262H231.176V248.23L226.992 249.648V247.316L233.66 244.879H234ZM251.086 257.348C251.086 258.41 250.84 259.305 250.348 260.031C249.855 260.758 249.184 261.309 248.332 261.684C247.488 262.051 246.535 262.234 245.473 262.234C244.41 262.234 243.453 262.051 242.602 261.684C241.75 261.309 241.078 260.758 240.586 260.031C240.094 259.305 239.848 258.41 239.848 257.348C239.848 256.645 239.984 256.008 240.258 255.438C240.531 254.859 240.918 254.363 241.418 253.949C241.926 253.527 242.52 253.203 243.199 252.977C243.887 252.75 244.637 252.637 245.449 252.637C246.527 252.637 247.492 252.836 248.344 253.234C249.195 253.633 249.863 254.184 250.348 254.887C250.84 255.59 251.086 256.41 251.086 257.348ZM248.25 257.207C248.25 256.637 248.133 256.137 247.898 255.707C247.664 255.277 247.336 254.945 246.914 254.711C246.492 254.477 246.004 254.359 245.449 254.359C244.887 254.359 244.398 254.477 243.984 254.711C243.57 254.945 243.246 255.277 243.012 255.707C242.785 256.137 242.672 256.637 242.672 257.207C242.672 257.785 242.785 258.285 243.012 258.707C243.238 259.121 243.562 259.438 243.984 259.656C244.406 259.875 244.902 259.984 245.473 259.984C246.043 259.984 246.535 259.875 246.949 259.656C247.363 259.438 247.684 259.121 247.91 258.707C248.137 258.285 248.25 257.785 248.25 257.207ZM250.699 249.426C250.699 250.277 250.473 251.035 250.02 251.699C249.574 252.363 248.957 252.887 248.168 253.27C247.379 253.645 246.48 253.832 245.473 253.832C244.457 253.832 243.551 253.645 242.754 253.27C241.965 252.887 241.344 252.363 240.891 251.699C240.445 251.035 240.223 250.277 240.223 249.426C240.223 248.41 240.445 247.555 240.891 246.859C241.344 246.156 241.965 245.621 242.754 245.254C243.543 244.887 244.445 244.703 245.461 244.703C246.477 244.703 247.379 244.887 248.168 245.254C248.957 245.621 249.574 246.156 250.02 246.859C250.473 247.555 250.699 248.41 250.699 249.426ZM247.875 249.52C247.875 249.012 247.773 248.566 247.57 248.184C247.375 247.793 247.098 247.488 246.738 247.27C246.379 247.051 245.953 246.941 245.461 246.941C244.969 246.941 244.543 247.047 244.184 247.258C243.824 247.469 243.547 247.766 243.352 248.148C243.156 248.531 243.059 248.988 243.059 249.52C243.059 250.043 243.156 250.5 243.352 250.891C243.547 251.273 243.824 251.574 244.184 251.793C244.551 252.012 244.98 252.121 245.473 252.121C245.965 252.121 246.391 252.012 246.75 251.793C247.109 251.574 247.387 251.273 247.582 250.891C247.777 250.5 247.875 250.043 247.875 249.52ZM262.535 251.898V262H259.711V249.32H262.371L262.535 251.898ZM262.078 255.191L261.117 255.18C261.117 254.305 261.227 253.496 261.445 252.754C261.664 252.012 261.984 251.367 262.406 250.82C262.828 250.266 263.352 249.84 263.977 249.543C264.609 249.238 265.34 249.086 266.168 249.086C266.746 249.086 267.273 249.172 267.75 249.344C268.234 249.508 268.652 249.77 269.004 250.129C269.363 250.488 269.637 250.949 269.824 251.512C270.02 252.074 270.117 252.754 270.117 253.551V262H267.293V253.797C267.293 253.18 267.199 252.695 267.012 252.344C266.832 251.992 266.57 251.742 266.227 251.594C265.891 251.438 265.488 251.359 265.02 251.359C264.488 251.359 264.035 251.461 263.66 251.664C263.293 251.867 262.992 252.145 262.758 252.496C262.523 252.848 262.352 253.254 262.242 253.715C262.133 254.176 262.078 254.668 262.078 255.191ZM269.941 254.441L268.617 254.734C268.617 253.969 268.723 253.246 268.934 252.566C269.152 251.879 269.469 251.277 269.883 250.762C270.305 250.238 270.824 249.828 271.441 249.531C272.059 249.234 272.766 249.086 273.562 249.086C274.211 249.086 274.789 249.176 275.297 249.355C275.812 249.527 276.25 249.801 276.609 250.176C276.969 250.551 277.242 251.039 277.43 251.641C277.617 252.234 277.711 252.953 277.711 253.797V262H274.875V253.785C274.875 253.145 274.781 252.648 274.594 252.297C274.414 251.945 274.156 251.703 273.82 251.57C273.484 251.43 273.082 251.359 272.613 251.359C272.176 251.359 271.789 251.441 271.453 251.605C271.125 251.762 270.848 251.984 270.621 252.273C270.395 252.555 270.223 252.879 270.105 253.246C269.996 253.613 269.941 254.012 269.941 254.441ZM283.641 249.32V262H280.805V249.32H283.641ZM280.617 245.992C280.617 245.562 280.758 245.207 281.039 244.926C281.328 244.637 281.727 244.492 282.234 244.492C282.734 244.492 283.129 244.637 283.418 244.926C283.707 245.207 283.852 245.562 283.852 245.992C283.852 246.414 283.707 246.766 283.418 247.047C283.129 247.328 282.734 247.469 282.234 247.469C281.727 247.469 281.328 247.328 281.039 247.047C280.758 246.766 280.617 246.414 280.617 245.992Z" fill="black"/>
<path fill-rule="evenodd" clip-rule="evenodd" d="M306.125 253C306.125 253.207 306.293 253.375 306.5 253.375H310.5C310.707 253.375 310.875 253.207 310.875 253C310.875 251.495 309.885 250.125 308.5 250.125C307.115 250.125 306.125 251.495 306.125 253Z" fill="#248F21"/>
<path fill-rule="evenodd" clip-rule="evenodd" d="M311.25 244.5C311.25 244.224 311.474 244 311.75 244H313.5C313.645 244 313.783 244.063 313.878 244.172C313.973 244.282 314.016 244.427 313.995 244.571L313.876 245.405C313.872 245.433 313.868 245.46 313.864 245.487C313.744 246.33 313.669 246.858 313.455 247.322C313.225 247.822 312.88 248.26 312.449 248.602C312.049 248.919 311.553 249.118 310.763 249.433C310.738 249.444 310.712 249.454 310.686 249.464C310.429 249.567 310.138 249.442 310.036 249.186C309.933 248.929 310.058 248.638 310.314 248.536C311.207 248.179 311.556 248.034 311.828 247.818C312.136 247.574 312.382 247.261 312.546 246.904C312.692 246.589 312.75 246.215 312.886 245.264L312.924 245H311.75C311.474 245 311.25 244.776 311.25 244.5Z" fill="#248F21"/>
<path fill-rule="evenodd" clip-rule="evenodd" d="M303.122 244.172C303.217 244.063 303.355 244 303.5 244H305.25C305.526 244 305.75 244.224 305.75 244.5C305.75 244.776 305.526 245 305.25 245H304.077L304.114 245.264C304.25 246.215 304.308 246.589 304.454 246.904C304.618 247.261 304.864 247.574 305.172 247.818C305.444 248.034 305.793 248.179 306.686 248.536C306.942 248.638 307.067 248.929 306.964 249.186C306.862 249.442 306.571 249.567 306.314 249.464C306.288 249.454 306.263 249.444 306.237 249.433C305.447 249.118 304.952 248.919 304.551 248.602C304.12 248.26 303.775 247.822 303.545 247.322C303.332 246.858 303.256 246.33 303.136 245.487C303.132 245.46 303.128 245.433 303.124 245.405L303.005 244.571C302.985 244.427 303.027 244.282 303.122 244.172Z" fill="#248F21"/>
<path fill-rule="evenodd" clip-rule="evenodd" d="M304.883 243.511C304.869 243.017 305.27 242.625 305.751 242.625H311.251C311.732 242.625 312.133 243.017 312.119 243.511C312.062 245.503 311.675 247.305 311.067 248.623C310.475 249.906 309.6 250.875 308.501 250.875C307.402 250.875 306.527 249.906 305.935 248.623C305.327 247.305 304.94 245.503 304.883 243.511Z" fill="#248F21"/>
<path d="M299.506 255.5H300.414V261.975L300.336 263H299.506V255.5ZM303.983 260.314V260.417C303.983 260.801 303.938 261.158 303.847 261.486C303.756 261.812 303.622 262.095 303.446 262.336C303.271 262.577 303.056 262.764 302.802 262.897C302.548 263.031 302.257 263.098 301.928 263.098C301.592 263.098 301.298 263.041 301.044 262.927C300.793 262.81 300.582 262.642 300.409 262.424C300.237 262.206 300.098 261.942 299.994 261.633C299.893 261.324 299.823 260.975 299.784 260.588V260.139C299.823 259.748 299.893 259.398 299.994 259.089C300.098 258.78 300.237 258.516 300.409 258.298C300.582 258.076 300.793 257.909 301.044 257.795C301.295 257.678 301.586 257.619 301.918 257.619C302.25 257.619 302.545 257.684 302.802 257.814C303.059 257.941 303.274 258.124 303.446 258.361C303.622 258.599 303.756 258.884 303.847 259.216C303.938 259.545 303.983 259.911 303.983 260.314ZM303.075 260.417V260.314C303.075 260.051 303.051 259.803 303.002 259.572C302.953 259.338 302.875 259.133 302.768 258.957C302.66 258.778 302.519 258.638 302.343 258.537C302.167 258.433 301.951 258.381 301.693 258.381C301.465 258.381 301.267 258.42 301.098 258.498C300.932 258.576 300.79 258.682 300.673 258.815C300.556 258.946 300.46 259.095 300.385 259.265C300.313 259.431 300.259 259.603 300.224 259.782V260.959C300.276 261.187 300.36 261.407 300.478 261.618C300.598 261.826 300.757 261.997 300.956 262.131C301.158 262.264 301.407 262.331 301.703 262.331C301.947 262.331 302.156 262.282 302.328 262.185C302.504 262.084 302.646 261.945 302.753 261.77C302.864 261.594 302.945 261.39 302.997 261.159C303.049 260.928 303.075 260.681 303.075 260.417ZM307.318 263.098C306.951 263.098 306.617 263.036 306.317 262.912C306.021 262.785 305.766 262.608 305.551 262.38C305.339 262.152 305.176 261.882 305.062 261.569C304.949 261.257 304.892 260.915 304.892 260.544V260.339C304.892 259.909 304.955 259.527 305.082 259.191C305.209 258.853 305.382 258.566 305.6 258.332C305.818 258.098 306.065 257.92 306.342 257.8C306.618 257.679 306.905 257.619 307.201 257.619C307.579 257.619 307.904 257.684 308.178 257.814C308.454 257.945 308.681 258.127 308.856 258.361C309.032 258.592 309.162 258.866 309.247 259.182C309.332 259.494 309.374 259.836 309.374 260.207V260.612H305.429V259.875H308.471V259.807C308.458 259.572 308.409 259.344 308.324 259.123C308.243 258.902 308.113 258.719 307.934 258.576C307.755 258.433 307.51 258.361 307.201 258.361C306.996 258.361 306.807 258.405 306.635 258.493C306.462 258.578 306.314 258.705 306.19 258.874C306.067 259.043 305.971 259.25 305.902 259.494C305.834 259.738 305.8 260.02 305.8 260.339V260.544C305.8 260.795 305.834 261.031 305.902 261.252C305.974 261.47 306.076 261.662 306.21 261.828C306.347 261.994 306.511 262.124 306.703 262.219C306.898 262.313 307.12 262.36 307.367 262.36C307.686 262.36 307.956 262.295 308.178 262.165C308.399 262.035 308.593 261.861 308.759 261.643L309.306 262.077C309.192 262.25 309.047 262.414 308.871 262.57C308.695 262.727 308.479 262.854 308.222 262.951C307.968 263.049 307.667 263.098 307.318 263.098ZM313.505 261.599C313.505 261.468 313.476 261.348 313.417 261.237C313.362 261.123 313.246 261.021 313.07 260.93C312.898 260.835 312.637 260.754 312.289 260.686C311.996 260.624 311.731 260.55 311.493 260.466C311.259 260.381 311.059 260.279 310.893 260.158C310.73 260.038 310.604 259.896 310.517 259.733C310.429 259.571 310.385 259.38 310.385 259.162C310.385 258.954 310.43 258.757 310.521 258.571C310.616 258.386 310.748 258.221 310.917 258.078C311.09 257.935 311.296 257.823 311.537 257.741C311.778 257.66 312.047 257.619 312.343 257.619C312.766 257.619 313.127 257.694 313.427 257.844C313.726 257.993 313.956 258.194 314.115 258.444C314.275 258.692 314.354 258.967 314.354 259.27H313.451C313.451 259.123 313.407 258.981 313.319 258.845C313.235 258.705 313.109 258.589 312.943 258.498C312.781 258.407 312.58 258.361 312.343 258.361C312.092 258.361 311.889 258.4 311.732 258.479C311.579 258.553 311.467 258.649 311.396 258.767C311.327 258.884 311.293 259.007 311.293 259.138C311.293 259.235 311.309 259.323 311.342 259.401C311.378 259.476 311.439 259.546 311.527 259.611C311.615 259.673 311.739 259.732 311.898 259.787C312.058 259.842 312.261 259.898 312.509 259.953C312.942 260.051 313.298 260.168 313.578 260.305C313.858 260.441 314.066 260.609 314.203 260.808C314.34 261.006 314.408 261.247 314.408 261.53C314.408 261.761 314.359 261.973 314.262 262.165C314.167 262.357 314.029 262.523 313.847 262.663C313.668 262.8 313.453 262.907 313.202 262.985C312.955 263.06 312.676 263.098 312.367 263.098C311.902 263.098 311.508 263.015 311.186 262.849C310.863 262.683 310.619 262.468 310.453 262.204C310.287 261.94 310.204 261.662 310.204 261.369H311.112C311.125 261.617 311.197 261.813 311.327 261.96C311.457 262.103 311.617 262.206 311.806 262.268C311.994 262.326 312.182 262.355 312.367 262.355C312.615 262.355 312.821 262.323 312.987 262.258C313.157 262.193 313.285 262.103 313.373 261.989C313.461 261.875 313.505 261.745 313.505 261.599ZM317.807 257.717V258.41H314.95V257.717H317.807ZM315.917 256.433H316.82V261.691C316.82 261.87 316.848 262.006 316.903 262.097C316.959 262.188 317.03 262.248 317.118 262.277C317.206 262.307 317.3 262.321 317.401 262.321C317.476 262.321 317.554 262.315 317.636 262.302C317.72 262.285 317.784 262.272 317.826 262.263L317.831 263C317.759 263.023 317.665 263.044 317.548 263.063C317.434 263.086 317.296 263.098 317.133 263.098C316.911 263.098 316.708 263.054 316.522 262.966C316.337 262.878 316.189 262.731 316.078 262.526C315.971 262.318 315.917 262.038 315.917 261.687V256.433Z" fill="#248F21"/>
<g clip-path="url(#clip1_576_1410)">
<path d="M37 305C39.7614 305 42 302.761 42 300C42 297.239 39.7614 295 37 295C34.2386 295 32 297.239 32 300C32 302.761 34.2386 305 37 305Z" stroke="#248F21" stroke-width="1.5"/>
<path d="M37 297.5V300L38.25 301.25" stroke="#248F21" stroke-width="1.5"/>
</g>
<path d="M58.4238 303.688V305H51.752V303.872L54.9922 300.338C55.3477 299.937 55.6279 299.59 55.833 299.299C56.0381 299.007 56.1816 298.745 56.2637 298.513C56.3503 298.276 56.3936 298.046 56.3936 297.822C56.3936 297.508 56.3343 297.232 56.2158 296.995C56.1019 296.754 55.9333 296.564 55.71 296.428C55.4867 296.286 55.2155 296.216 54.8965 296.216C54.5273 296.216 54.2174 296.296 53.9668 296.455C53.7161 296.615 53.527 296.836 53.3994 297.118C53.2718 297.396 53.208 297.715 53.208 298.075H51.5605C51.5605 297.496 51.6927 296.968 51.957 296.489C52.2214 296.006 52.6042 295.623 53.1055 295.341C53.6068 295.054 54.2106 294.91 54.917 294.91C55.5824 294.91 56.1475 295.022 56.6123 295.245C57.0771 295.468 57.4303 295.785 57.6719 296.195C57.918 296.605 58.041 297.091 58.041 297.651C58.041 297.961 57.9909 298.269 57.8906 298.574C57.7904 298.88 57.6468 299.185 57.46 299.49C57.2777 299.791 57.0612 300.094 56.8105 300.399C56.5599 300.7 56.2842 301.006 55.9834 301.315L53.8301 303.688H58.4238ZM61.4316 294.5V305H59.791V294.5H61.4316ZM61.1445 301.028L60.6113 301.021C60.6159 300.511 60.6865 300.039 60.8232 299.606C60.9645 299.174 61.1605 298.798 61.4111 298.479C61.6663 298.155 61.9717 297.907 62.3271 297.733C62.6826 297.556 63.0768 297.467 63.5098 297.467C63.8743 297.467 64.2025 297.517 64.4941 297.617C64.7904 297.717 65.0456 297.879 65.2598 298.103C65.474 298.321 65.6357 298.608 65.7451 298.964C65.859 299.315 65.916 299.743 65.916 300.249V305H64.2617V300.235C64.2617 299.88 64.2093 299.597 64.1045 299.388C64.0042 299.178 63.8561 299.028 63.6602 298.937C63.4642 298.841 63.2249 298.793 62.9424 298.793C62.6462 298.793 62.3841 298.852 62.1562 298.971C61.9329 299.089 61.7461 299.251 61.5957 299.456C61.4453 299.661 61.3314 299.898 61.2539 300.167C61.181 300.436 61.1445 300.723 61.1445 301.028ZM75.4727 295.013V305H73.8252V296.968L71.3848 297.795V296.435L75.2744 295.013H75.4727ZM80.8662 299.278H81.8506C82.2334 299.278 82.5501 299.212 82.8008 299.08C83.056 298.948 83.2451 298.766 83.3682 298.533C83.4912 298.301 83.5527 298.034 83.5527 297.733C83.5527 297.419 83.4958 297.15 83.3818 296.927C83.2725 296.699 83.1038 296.523 82.876 296.4C82.6527 296.277 82.3678 296.216 82.0215 296.216C81.7298 296.216 81.4655 296.275 81.2285 296.394C80.9961 296.507 80.8115 296.672 80.6748 296.886C80.5381 297.095 80.4697 297.346 80.4697 297.638H78.8154C78.8154 297.109 78.9544 296.64 79.2324 296.229C79.5104 295.819 79.8887 295.498 80.3672 295.266C80.8503 295.029 81.3926 294.91 81.9941 294.91C82.6367 294.91 83.1973 295.017 83.6758 295.231C84.1589 295.441 84.5348 295.756 84.8037 296.175C85.0726 296.594 85.207 297.114 85.207 297.733C85.207 298.016 85.141 298.303 85.0088 298.595C84.8766 298.886 84.6807 299.153 84.4209 299.395C84.1611 299.632 83.8376 299.825 83.4502 299.976C83.0628 300.121 82.6139 300.194 82.1035 300.194H80.8662V299.278ZM80.8662 300.563V299.661H82.1035C82.6868 299.661 83.1836 299.729 83.5938 299.866C84.0085 300.003 84.3457 300.192 84.6055 300.434C84.8652 300.671 85.0544 300.942 85.1729 301.247C85.2959 301.552 85.3574 301.876 85.3574 302.218C85.3574 302.683 85.2731 303.097 85.1045 303.462C84.9404 303.822 84.7057 304.127 84.4004 304.378C84.0951 304.629 83.7373 304.818 83.3271 304.945C82.9215 305.073 82.4795 305.137 82.001 305.137C81.5726 305.137 81.1624 305.077 80.7705 304.959C80.3786 304.84 80.0277 304.665 79.7178 304.433C79.4079 304.196 79.1618 303.902 78.9795 303.551C78.8018 303.195 78.7129 302.785 78.7129 302.32H80.3604C80.3604 302.617 80.4287 302.879 80.5654 303.106C80.7067 303.33 80.9027 303.505 81.1533 303.633C81.4085 303.76 81.7002 303.824 82.0283 303.824C82.3747 303.824 82.6732 303.763 82.9238 303.64C83.1745 303.517 83.3659 303.334 83.498 303.093C83.6348 302.851 83.7031 302.56 83.7031 302.218C83.7031 301.83 83.6279 301.516 83.4775 301.274C83.3271 301.033 83.113 300.855 82.835 300.741C82.557 300.623 82.2288 300.563 81.8506 300.563H80.8662ZM88.6318 299.107V305H86.9844V297.604H88.5361L88.6318 299.107ZM88.3652 301.028L87.8047 301.021C87.8047 300.511 87.8685 300.039 87.9961 299.606C88.1237 299.174 88.3105 298.798 88.5566 298.479C88.8027 298.155 89.1081 297.907 89.4727 297.733C89.8418 297.556 90.2679 297.467 90.751 297.467C91.0882 297.467 91.3958 297.517 91.6738 297.617C91.9564 297.713 92.2002 297.866 92.4053 298.075C92.6149 298.285 92.7744 298.554 92.8838 298.882C92.9977 299.21 93.0547 299.606 93.0547 300.071V305H91.4072V300.215C91.4072 299.855 91.3525 299.572 91.2432 299.367C91.1383 299.162 90.9857 299.016 90.7852 298.93C90.5892 298.839 90.3545 298.793 90.0811 298.793C89.7712 298.793 89.5068 298.852 89.2881 298.971C89.0739 299.089 88.8984 299.251 88.7617 299.456C88.625 299.661 88.5247 299.898 88.4609 300.167C88.3971 300.436 88.3652 300.723 88.3652 301.028ZM92.9521 300.591L92.1797 300.762C92.1797 300.315 92.2412 299.894 92.3643 299.497C92.4919 299.096 92.6764 298.745 92.918 298.444C93.1641 298.139 93.4671 297.9 93.8271 297.727C94.1872 297.553 94.5996 297.467 95.0645 297.467C95.4427 297.467 95.7799 297.519 96.0762 297.624C96.377 297.724 96.6322 297.884 96.8418 298.103C97.0514 298.321 97.2109 298.606 97.3203 298.957C97.4297 299.303 97.4844 299.723 97.4844 300.215V305H95.8301V300.208C95.8301 299.834 95.7754 299.545 95.666 299.34C95.5612 299.135 95.4108 298.993 95.2148 298.916C95.0189 298.834 94.7842 298.793 94.5107 298.793C94.2555 298.793 94.0299 298.841 93.834 298.937C93.6426 299.028 93.4808 299.158 93.3486 299.326C93.2165 299.49 93.1162 299.679 93.0479 299.894C92.984 300.108 92.9521 300.34 92.9521 300.591Z" fill="black"/>
<g clip-path="url(#clip2_576_1410)">
<path d="M144.5 304.5V303C144.5 302.448 144.948 302 145.5 302H147.5C148.052 302 148.5 301.552 148.5 301C148.5 300.448 148.052 300 147.5 300H142.498C141.947 300 141.5 299.553 141.5 299.002C141.5 298.449 141.949 298.002 142.502 298.004L144.496 298.012C145.05 298.015 145.5 297.566 145.5 297.013V295.5" stroke="#248F21" stroke-width="1.5" stroke-linejoin="round"/>
<path d="M144 296.5L145.5 295L147 296.5" stroke="#248F21" stroke-width="1.5"/>
<path d="M143 303.5L144.5 305L146 303.5" stroke="#248F21" stroke-width="1.5"/>
</g>
<path d="M164.25 295.013V305H162.603V296.968L160.162 297.795V296.435L164.052 295.013H164.25ZM169.644 299.278H170.628C171.011 299.278 171.327 299.212 171.578 299.08C171.833 298.948 172.022 298.766 172.146 298.533C172.269 298.301 172.33 298.034 172.33 297.733C172.33 297.419 172.273 297.15 172.159 296.927C172.05 296.699 171.881 296.523 171.653 296.4C171.43 296.277 171.145 296.216 170.799 296.216C170.507 296.216 170.243 296.275 170.006 296.394C169.773 296.507 169.589 296.672 169.452 296.886C169.315 297.095 169.247 297.346 169.247 297.638H167.593C167.593 297.109 167.732 296.64 168.01 296.229C168.288 295.819 168.666 295.498 169.145 295.266C169.628 295.029 170.17 294.91 170.771 294.91C171.414 294.91 171.975 295.017 172.453 295.231C172.936 295.441 173.312 295.756 173.581 296.175C173.85 296.594 173.984 297.114 173.984 297.733C173.984 298.016 173.918 298.303 173.786 298.595C173.654 298.886 173.458 299.153 173.198 299.395C172.938 299.632 172.615 299.825 172.228 299.976C171.84 300.121 171.391 300.194 170.881 300.194H169.644V299.278ZM169.644 300.563V299.661H170.881C171.464 299.661 171.961 299.729 172.371 299.866C172.786 300.003 173.123 300.192 173.383 300.434C173.643 300.671 173.832 300.942 173.95 301.247C174.073 301.552 174.135 301.876 174.135 302.218C174.135 302.683 174.05 303.097 173.882 303.462C173.718 303.822 173.483 304.127 173.178 304.378C172.872 304.629 172.515 304.818 172.104 304.945C171.699 305.073 171.257 305.137 170.778 305.137C170.35 305.137 169.94 305.077 169.548 304.959C169.156 304.84 168.805 304.665 168.495 304.433C168.185 304.196 167.939 303.902 167.757 303.551C167.579 303.195 167.49 302.785 167.49 302.32H169.138C169.138 302.617 169.206 302.879 169.343 303.106C169.484 303.33 169.68 303.505 169.931 303.633C170.186 303.76 170.478 303.824 170.806 303.824C171.152 303.824 171.451 303.763 171.701 303.64C171.952 303.517 172.143 303.334 172.275 303.093C172.412 302.851 172.48 302.56 172.48 302.218C172.48 301.83 172.405 301.516 172.255 301.274C172.104 301.033 171.89 300.855 171.612 300.741C171.334 300.623 171.006 300.563 170.628 300.563H169.644ZM175.83 304.18C175.83 303.924 175.917 303.71 176.09 303.537C176.263 303.359 176.498 303.271 176.794 303.271C177.095 303.271 177.329 303.359 177.498 303.537C177.671 303.71 177.758 303.924 177.758 304.18C177.758 304.435 177.671 304.649 177.498 304.822C177.329 304.995 177.095 305.082 176.794 305.082C176.498 305.082 176.263 304.995 176.09 304.822C175.917 304.649 175.83 304.435 175.83 304.18ZM186.419 301.452V302.765H179.241L179.187 301.773L183.479 295.047H184.799L183.37 297.494L180.902 301.452H186.419ZM185.175 295.047V305H183.527V295.047H185.175ZM192.749 299.107V305H191.102V297.604H192.653L192.749 299.107ZM192.482 301.028L191.922 301.021C191.922 300.511 191.986 300.039 192.113 299.606C192.241 299.174 192.428 298.798 192.674 298.479C192.92 298.155 193.225 297.907 193.59 297.733C193.959 297.556 194.385 297.467 194.868 297.467C195.205 297.467 195.513 297.517 195.791 297.617C196.074 297.713 196.317 297.866 196.522 298.075C196.732 298.285 196.892 298.554 197.001 298.882C197.115 299.21 197.172 299.606 197.172 300.071V305H195.524V300.215C195.524 299.855 195.47 299.572 195.36 299.367C195.256 299.162 195.103 299.016 194.902 298.93C194.706 298.839 194.472 298.793 194.198 298.793C193.888 298.793 193.624 298.852 193.405 298.971C193.191 299.089 193.016 299.251 192.879 299.456C192.742 299.661 192.642 299.898 192.578 300.167C192.514 300.436 192.482 300.723 192.482 301.028ZM197.069 300.591L196.297 300.762C196.297 300.315 196.358 299.894 196.481 299.497C196.609 299.096 196.794 298.745 197.035 298.444C197.281 298.139 197.584 297.9 197.944 297.727C198.304 297.553 198.717 297.467 199.182 297.467C199.56 297.467 199.897 297.519 200.193 297.624C200.494 297.724 200.749 297.884 200.959 298.103C201.169 298.321 201.328 298.606 201.438 298.957C201.547 299.303 201.602 299.723 201.602 300.215V305H199.947V300.208C199.947 299.834 199.893 299.545 199.783 299.34C199.678 299.135 199.528 298.993 199.332 298.916C199.136 298.834 198.901 298.793 198.628 298.793C198.373 298.793 198.147 298.841 197.951 298.937C197.76 299.028 197.598 299.158 197.466 299.326C197.334 299.49 197.233 299.679 197.165 299.894C197.101 300.108 197.069 300.34 197.069 300.591ZM205.061 297.604V305H203.406V297.604H205.061ZM203.297 295.662C203.297 295.411 203.379 295.204 203.543 295.04C203.712 294.871 203.944 294.787 204.24 294.787C204.532 294.787 204.762 294.871 204.931 295.04C205.099 295.204 205.184 295.411 205.184 295.662C205.184 295.908 205.099 296.113 204.931 296.277C204.762 296.441 204.532 296.523 204.24 296.523C203.944 296.523 203.712 296.441 203.543 296.277C203.379 296.113 203.297 295.908 203.297 295.662Z" fill="black"/>
<path fill-rule="evenodd" clip-rule="evenodd" d="M253.625 296.25C253.625 295.629 254.129 295.125 254.75 295.125C255.371 295.125 255.875 295.629 255.875 296.25C255.875 296.871 255.371 297.375 254.75 297.375C254.129 297.375 253.625 296.871 253.625 296.25ZM252.018 298.598C251.718 298.66 251.48 298.751 251.286 298.862C250.922 299.069 250.665 299.373 250.446 299.804C250.321 300.05 250.02 300.148 249.774 300.023C249.528 299.898 249.429 299.597 249.554 299.351C249.835 298.797 250.213 298.323 250.791 297.993C251.361 297.668 252.079 297.512 252.994 297.501L253 297.501L253.677 297.501C254.077 297.501 254.393 297.735 254.573 297.993C254.639 298.087 254.717 298.177 254.8 298.239C255.016 298.401 255.263 298.494 255.531 298.465C255.799 298.436 256.173 298.278 256.626 297.768C256.81 297.562 257.126 297.543 257.332 297.726C257.539 297.91 257.557 298.226 257.374 298.432C256.808 299.069 256.222 299.397 255.638 299.459C255.273 299.498 254.944 299.43 254.659 299.307L253.393 301.232L253.861 301.693C254.246 302.072 254.52 302.548 254.653 303.07L254.985 304.378C255.053 304.646 254.891 304.918 254.623 304.986C254.356 305.054 254.083 304.892 254.016 304.624L253.683 303.316C253.596 302.972 253.415 302.657 253.16 302.406L252.419 301.676C252.184 301.491 251.98 301.33 251.825 301.182C251.659 301.023 251.513 300.845 251.427 300.612C251.362 300.435 251.331 300.247 251.336 300.058C251.342 299.811 251.423 299.595 251.528 299.391C251.628 299.2 251.77 298.98 251.934 298.728L251.946 298.708L252.018 298.598ZM251.943 302.233C252.071 301.988 251.977 301.686 251.733 301.557C251.488 301.429 251.186 301.523 251.057 301.768C250.771 302.313 250.109 302.615 249.455 302.46L249.116 302.379C248.847 302.315 248.578 302.481 248.514 302.75C248.45 303.018 248.616 303.288 248.884 303.352L249.224 303.432C250.298 303.688 251.433 303.204 251.943 302.233Z" fill="#248F21"/>
<path d="M272.25 295.013V305H270.603V296.968L268.162 297.795V296.435L272.052 295.013H272.25ZM280.207 295.013V305H278.56V296.968L276.119 297.795V296.435L280.009 295.013H280.207ZM285.327 294.5V295.464C285.327 295.751 285.275 296.049 285.17 296.359C285.07 296.665 284.928 296.959 284.746 297.241C284.564 297.519 284.354 297.761 284.117 297.966L283.29 297.446C283.477 297.164 283.627 296.865 283.741 296.551C283.86 296.232 283.919 295.874 283.919 295.478V294.5H285.327ZM294.672 295.013V305H293.024V296.968L290.584 297.795V296.435L294.474 295.013H294.672ZM300.065 299.278H301.05C301.433 299.278 301.749 299.212 302 299.08C302.255 298.948 302.444 298.766 302.567 298.533C302.69 298.301 302.752 298.034 302.752 297.733C302.752 297.419 302.695 297.15 302.581 296.927C302.472 296.699 302.303 296.523 302.075 296.4C301.852 296.277 301.567 296.216 301.221 296.216C300.929 296.216 300.665 296.275 300.428 296.394C300.195 296.507 300.011 296.672 299.874 296.886C299.737 297.095 299.669 297.346 299.669 297.638H298.015C298.015 297.109 298.154 296.64 298.432 296.229C298.71 295.819 299.088 295.498 299.566 295.266C300.049 295.029 300.592 294.91 301.193 294.91C301.836 294.91 302.396 295.017 302.875 295.231C303.358 295.441 303.734 295.756 304.003 296.175C304.272 296.594 304.406 297.114 304.406 297.733C304.406 298.016 304.34 298.303 304.208 298.595C304.076 298.886 303.88 299.153 303.62 299.395C303.36 299.632 303.037 299.825 302.649 299.976C302.262 300.121 301.813 300.194 301.303 300.194H300.065V299.278ZM300.065 300.563V299.661H301.303C301.886 299.661 302.383 299.729 302.793 299.866C303.208 300.003 303.545 300.192 303.805 300.434C304.064 300.671 304.254 300.942 304.372 301.247C304.495 301.552 304.557 301.876 304.557 302.218C304.557 302.683 304.472 303.097 304.304 303.462C304.14 303.822 303.905 304.127 303.6 304.378C303.294 304.629 302.937 304.818 302.526 304.945C302.121 305.073 301.679 305.137 301.2 305.137C300.772 305.137 300.362 305.077 299.97 304.959C299.578 304.84 299.227 304.665 298.917 304.433C298.607 304.196 298.361 303.902 298.179 303.551C298.001 303.195 297.912 302.785 297.912 302.32H299.56C299.56 302.617 299.628 302.879 299.765 303.106C299.906 303.33 300.102 303.505 300.353 303.633C300.608 303.76 300.899 303.824 301.228 303.824C301.574 303.824 301.872 303.763 302.123 303.64C302.374 303.517 302.565 303.334 302.697 303.093C302.834 302.851 302.902 302.56 302.902 302.218C302.902 301.83 302.827 301.516 302.677 301.274C302.526 301.033 302.312 300.855 302.034 300.741C301.756 300.623 301.428 300.563 301.05 300.563H300.065ZM307.749 294.5V295.464C307.749 295.751 307.697 296.049 307.592 296.359C307.492 296.665 307.35 296.959 307.168 297.241C306.986 297.519 306.776 297.761 306.539 297.966L305.712 297.446C305.899 297.164 306.049 296.865 306.163 296.551C306.282 296.232 306.341 295.874 306.341 295.478V294.5H307.749ZM310.21 294.5V295.464C310.21 295.751 310.158 296.049 310.053 296.359C309.952 296.665 309.811 296.959 309.629 297.241C309.447 297.519 309.237 297.761 309 297.966L308.173 297.446C308.36 297.164 308.51 296.865 308.624 296.551C308.743 296.232 308.802 295.874 308.802 295.478V294.5H310.21ZM315.993 295.047L312.117 305.854H310.825L314.708 295.047H315.993ZM318.782 299.107V305H317.135V297.604H318.687L318.782 299.107ZM318.516 301.028L317.955 301.021C317.955 300.511 318.019 300.039 318.146 299.606C318.274 299.174 318.461 298.798 318.707 298.479C318.953 298.155 319.258 297.907 319.623 297.733C319.992 297.556 320.418 297.467 320.901 297.467C321.239 297.467 321.546 297.517 321.824 297.617C322.107 297.713 322.351 297.866 322.556 298.075C322.765 298.285 322.925 298.554 323.034 298.882C323.148 299.21 323.205 299.606 323.205 300.071V305H321.558V300.215C321.558 299.855 321.503 299.572 321.394 299.367C321.289 299.162 321.136 299.016 320.936 298.93C320.74 298.839 320.505 298.793 320.231 298.793C319.922 298.793 319.657 298.852 319.438 298.971C319.224 299.089 319.049 299.251 318.912 299.456C318.775 299.661 318.675 299.898 318.611 300.167C318.548 300.436 318.516 300.723 318.516 301.028ZM323.103 300.591L322.33 300.762C322.33 300.315 322.392 299.894 322.515 299.497C322.642 299.096 322.827 298.745 323.068 298.444C323.314 298.139 323.618 297.9 323.978 297.727C324.338 297.553 324.75 297.467 325.215 297.467C325.593 297.467 325.93 297.519 326.227 297.624C326.527 297.724 326.783 297.884 326.992 298.103C327.202 298.321 327.361 298.606 327.471 298.957C327.58 299.303 327.635 299.723 327.635 300.215V305H325.98V300.208C325.98 299.834 325.926 299.545 325.816 299.34C325.712 299.135 325.561 298.993 325.365 298.916C325.169 298.834 324.935 298.793 324.661 298.793C324.406 298.793 324.18 298.841 323.984 298.937C323.793 299.028 323.631 299.158 323.499 299.326C323.367 299.49 323.267 299.679 323.198 299.894C323.134 300.108 323.103 300.34 323.103 300.591ZM331.094 297.604V305H329.439V297.604H331.094ZM329.33 295.662C329.33 295.411 329.412 295.204 329.576 295.04C329.745 294.871 329.977 294.787 330.273 294.787C330.565 294.787 330.795 294.871 330.964 295.04C331.132 295.204 331.217 295.411 331.217 295.662C331.217 295.908 331.132 296.113 330.964 296.277C330.795 296.441 330.565 296.523 330.273 296.523C329.977 296.523 329.745 296.441 329.576 296.277C329.412 296.113 329.33 295.908 329.33 295.662Z" fill="black"/>
<defs>
<linearGradient id="paint0_linear_576_1410" x1="182" y1="62" x2="182" y2="168" gradientUnits="userSpaceOnUse">
<stop stop-color="white"/>
<stop offset="1" stop-color="#EDFFEA"/>
</linearGradient>
<linearGradient id="paint1_linear_576_1410" x1="43.2857" y1="94" x2="43.2857" y2="156" gradientUnits="userSpaceOnUse">
<stop stop-color="#4CE946"/>
<stop offset="1" stop-color="#EFFFED"/>
</linearGradient>
<linearGradient id="paint2_linear_576_1410" x1="83.857" y1="112" x2="83.857" y2="156" gradientUnits="userSpaceOnUse">
<stop stop-color="#4CE946"/>
<stop offset="1" stop-color="#EFFFED"/>
</linearGradient>
<linearGradient id="paint3_linear_576_1410" x1="124.429" y1="137" x2="124.429" y2="156" gradientUnits="userSpaceOnUse">
<stop stop-color="#4CE946"/>
<stop offset="1" stop-color="#EFFFED"/>
</linearGradient>
<linearGradient id="paint4_linear_576_1410" x1="165" y1="126" x2="165" y2="156" gradientUnits="userSpaceOnUse">
<stop stop-color="#4CE946"/>
<stop offset="1" stop-color="#EFFFED"/>
</linearGradient>
<linearGradient id="paint5_linear_576_1410" x1="205.571" y1="88" x2="205.571" y2="156" gradientUnits="userSpaceOnUse">
<stop stop-color="#4CE946"/>
<stop offset="1" stop-color="#EFFFED"/>
</linearGradient>
<linearGradient id="paint6_linear_576_1410" x1="246.143" y1="110" x2="246.143" y2="156" gradientUnits="userSpaceOnUse">
<stop stop-color="#4CE946"/>
<stop offset="1" stop-color="#EFFFED"/>
</linearGradient>
<linearGradient id="paint7_linear_576_1410" x1="286.714" y1="116" x2="286.714" y2="156" gradientUnits="userSpaceOnUse">
<stop stop-color="#4CE946"/>
<stop offset="1" stop-color="#EFFFED"/>
</linearGradient>
<radialGradient id="paint8_radial_576_1410" cx="0" cy="0" r="1" gradientUnits="userSpaceOnUse" gradientTransform="translate(182 204) rotate(90) scale(20)">
<stop stop-color="#46B842"/>
<stop offset="1" stop-color="#B9FFB7"/>
</radialGradient>
<clipPath id="clip0_576_1410">
<rect width="18" height="18" fill="white" transform="translate(104.25 195)"/>
</clipPath>
<clipPath id="clip1_576_1410">
<rect width="12" height="12" fill="white" transform="translate(31 294)"/>
</clipPath>
<clipPath id="clip2_576_1410">
<rect width="12" height="12" fill="white" transform="translate(139 294)"/>
</clipPath>
</defs>
</svg>
