<svg width="253" height="189" viewBox="0 0 253 189" fill="none" xmlns="http://www.w3.org/2000/svg">
<rect x="2" y="2" width="248.5" height="184.753" rx="14" stroke="#ACFFAE" stroke-width="4"/>
<rect x="4" y="4" width="244.5" height="180.753" rx="12" fill="white"/>
<rect x="13" y="13" width="24" height="24" rx="12" fill="url(#paint0_radial_576_1351)"/>
<path d="M28.125 20.3125C28.125 20.8303 27.7053 21.25 27.1875 21.25C26.6697 21.25 26.25 20.8303 26.25 20.3125C26.25 19.7947 26.6697 19.375 27.1875 19.375C27.7053 19.375 28.125 19.7947 28.125 20.3125Z" fill="white" stroke="white" stroke-width="0.98877"/>
<path opacity="0.4" d="M25.5437 22.8286C25.7063 22.8286 25.8096 22.8284 25.8884 22.8345C25.9261 22.8374 25.9518 22.8413 25.9695 22.8452L26.0027 22.856C26.0079 22.8584 26.0371 22.8749 26.1101 22.9517C26.1814 23.0266 26.2705 23.1323 26.4021 23.2896C26.417 23.3074 26.4341 23.3242 26.45 23.3423L24.6101 26.1411C24.435 26.0011 24.2981 25.8891 24.1912 25.7866C24.037 25.6389 23.9662 25.535 23.9294 25.4351C23.8895 25.3263 23.871 25.2109 23.8738 25.0952C23.8763 24.9887 23.9091 24.8671 24.0076 24.6772C24.1086 24.4824 24.2616 24.2456 24.4832 23.9038L25.1785 22.8296C25.2887 22.8291 25.416 22.8286 25.5437 22.8286Z" fill="white" stroke="white" stroke-width="0.65918"/>
<path d="M27.5 30.6268L27.0849 28.9918C26.9476 28.4506 26.6634 27.9565 26.2629 27.5621L25.3125 26.6261M21.875 24.4721C22.5 23.241 23.461 22.5277 25.625 22.5021ZM25.625 22.5021C25.7616 22.5005 25.9652 22.5 26.1686 22.5C26.4842 22.5001 26.6419 22.5001 26.7676 22.5588C26.8933 22.6175 27.0223 22.7716 27.2801 23.0797C27.354 23.1679 27.4299 23.247 27.5 23.2996M25.625 22.5021L24.8318 23.7259C24.3957 24.3988 24.1777 24.7353 24.1692 25.0885C24.1654 25.2459 24.1914 25.4025 24.2457 25.5502C24.3677 25.8818 24.6826 26.1299 25.3125 26.6261M27.5 23.2996C28.2217 23.8408 29.3517 24.0588 30.625 22.6257ZM27.5 23.2996L25.3125 26.6261Z" fill="white"/>
<path d="M27.5 30.6268L27.0849 28.9918C26.9476 28.4506 26.6634 27.9565 26.2629 27.5621L25.3125 26.6261M25.3125 26.6261C24.6826 26.1299 24.3677 25.8818 24.2457 25.5502C24.1914 25.4025 24.1654 25.2459 24.1692 25.0885C24.1777 24.7353 24.3957 24.3988 24.8318 23.7259L25.625 22.5021M25.3125 26.6261L27.5 23.2996M21.875 24.4721C22.5 23.241 23.461 22.5277 25.625 22.5021M25.625 22.5021C25.7616 22.5005 25.9652 22.5 26.1686 22.5C26.4842 22.5001 26.6419 22.5001 26.7676 22.5588C26.8933 22.6175 27.0223 22.7716 27.2801 23.0797C27.354 23.1679 27.4299 23.247 27.5 23.2996M27.5 23.2996C28.2217 23.8408 29.3517 24.0588 30.625 22.6257" stroke="white" stroke-width="0.98877" stroke-linecap="round" stroke-linejoin="round"/>
<path d="M20 28.5814L20.4239 28.6822C21.5041 28.9392 22.627 28.4478 23.125 27.5" fill="white"/>
<path d="M20 28.5814L20.4239 28.6822C21.5041 28.9392 22.627 28.4478 23.125 27.5" stroke="white" stroke-width="0.98877" stroke-linecap="round" stroke-linejoin="round"/>
<path d="M42.7051 15.9688H45.5293C46.1699 15.9688 46.7109 16.0664 47.1523 16.2617C47.5977 16.457 47.9355 16.7461 48.166 17.1289C48.4004 17.5078 48.5176 17.9746 48.5176 18.5293C48.5176 18.9199 48.4375 19.2773 48.2773 19.6016C48.1211 19.9219 47.8945 20.1953 47.5977 20.4219C47.3047 20.6445 46.9531 20.8105 46.543 20.9199L46.2266 21.043H43.5723L43.5605 20.123H45.5645C45.9707 20.123 46.3086 20.0527 46.5781 19.9121C46.8477 19.7676 47.0508 19.5742 47.1875 19.332C47.3242 19.0898 47.3926 18.8223 47.3926 18.5293C47.3926 18.2012 47.3281 17.9141 47.1992 17.668C47.0703 17.4219 46.8672 17.2324 46.5898 17.0996C46.3164 16.9629 45.9629 16.8945 45.5293 16.8945H43.8359V24.5H42.7051V15.9688ZM47.6914 24.5L45.6172 20.6328L46.7949 20.627L48.8984 24.4297V24.5H47.6914ZM53.8145 23.0352V18.1602H54.9043V24.5H53.8672L53.8145 23.0352ZM54.0195 21.6992L54.4707 21.6875C54.4707 22.1094 54.4258 22.5 54.3359 22.8594C54.25 23.2148 54.1094 23.5234 53.9141 23.7852C53.7188 24.0469 53.4629 24.252 53.1465 24.4004C52.8301 24.5449 52.4453 24.6172 51.9922 24.6172C51.6836 24.6172 51.4004 24.5723 51.1426 24.4824C50.8887 24.3926 50.6699 24.2539 50.4863 24.0664C50.3027 23.8789 50.1602 23.6348 50.0586 23.334C49.9609 23.0332 49.9121 22.6719 49.9121 22.25V18.1602H50.9961V22.2617C50.9961 22.5469 51.0273 22.7832 51.0898 22.9707C51.1562 23.1543 51.2441 23.3008 51.3535 23.4102C51.4668 23.5156 51.5918 23.5898 51.7285 23.6328C51.8691 23.6758 52.0137 23.6973 52.1621 23.6973C52.623 23.6973 52.9883 23.6094 53.2578 23.4336C53.5273 23.2539 53.7207 23.0137 53.8379 22.7129C53.959 22.4082 54.0195 22.0703 54.0195 21.6992ZM57.6406 19.5137V24.5H56.5566V18.1602H57.582L57.6406 19.5137ZM57.3828 21.0898L56.9316 21.0723C56.9355 20.6387 57 20.2383 57.125 19.8711C57.25 19.5 57.4258 19.1777 57.6523 18.9043C57.8789 18.6309 58.1484 18.4199 58.4609 18.2715C58.7773 18.1191 59.127 18.043 59.5098 18.043C59.8223 18.043 60.1035 18.0859 60.3535 18.1719C60.6035 18.2539 60.8164 18.3867 60.9922 18.5703C61.1719 18.7539 61.3086 18.9922 61.4023 19.2852C61.4961 19.5742 61.543 19.9277 61.543 20.3457V24.5H60.4531V20.334C60.4531 20.002 60.4043 19.7363 60.3066 19.5371C60.209 19.334 60.0664 19.1875 59.8789 19.0977C59.6914 19.0039 59.4609 18.957 59.1875 18.957C58.918 18.957 58.6719 19.0137 58.4492 19.127C58.2305 19.2402 58.041 19.3965 57.8809 19.5957C57.7246 19.7949 57.6016 20.0234 57.5117 20.2812C57.4258 20.5352 57.3828 20.8047 57.3828 21.0898ZM64.2734 19.5137V24.5H63.1895V18.1602H64.2148L64.2734 19.5137ZM64.0156 21.0898L63.5645 21.0723C63.5684 20.6387 63.6328 20.2383 63.7578 19.8711C63.8828 19.5 64.0586 19.1777 64.2852 18.9043C64.5117 18.6309 64.7812 18.4199 65.0938 18.2715C65.4102 18.1191 65.7598 18.043 66.1426 18.043C66.4551 18.043 66.7363 18.0859 66.9863 18.1719C67.2363 18.2539 67.4492 18.3867 67.625 18.5703C67.8047 18.7539 67.9414 18.9922 68.0352 19.2852C68.1289 19.5742 68.1758 19.9277 68.1758 20.3457V24.5H67.0859V20.334C67.0859 20.002 67.0371 19.7363 66.9395 19.5371C66.8418 19.334 66.6992 19.1875 66.5117 19.0977C66.3242 19.0039 66.0938 18.957 65.8203 18.957C65.5508 18.957 65.3047 19.0137 65.082 19.127C64.8633 19.2402 64.6738 19.3965 64.5137 19.5957C64.3574 19.7949 64.2344 20.0234 64.1445 20.2812C64.0586 20.5352 64.0156 20.8047 64.0156 21.0898ZM71 18.1602V24.5H69.9102V18.1602H71ZM69.8281 16.4785C69.8281 16.3027 69.8809 16.1543 69.9863 16.0332C70.0957 15.9121 70.2559 15.8516 70.4668 15.8516C70.6738 15.8516 70.832 15.9121 70.9414 16.0332C71.0547 16.1543 71.1113 16.3027 71.1113 16.4785C71.1113 16.6465 71.0547 16.791 70.9414 16.9121C70.832 17.0293 70.6738 17.0879 70.4668 17.0879C70.2559 17.0879 70.0957 17.0293 69.9863 16.9121C69.8809 16.791 69.8281 16.6465 69.8281 16.4785ZM73.8242 19.5137V24.5H72.7402V18.1602H73.7656L73.8242 19.5137ZM73.5664 21.0898L73.1152 21.0723C73.1191 20.6387 73.1836 20.2383 73.3086 19.8711C73.4336 19.5 73.6094 19.1777 73.8359 18.9043C74.0625 18.6309 74.332 18.4199 74.6445 18.2715C74.9609 18.1191 75.3105 18.043 75.6934 18.043C76.0059 18.043 76.2871 18.0859 76.5371 18.1719C76.7871 18.2539 77 18.3867 77.1758 18.5703C77.3555 18.7539 77.4922 18.9922 77.5859 19.2852C77.6797 19.5742 77.7266 19.9277 77.7266 20.3457V24.5H76.6367V20.334C76.6367 20.002 76.5879 19.7363 76.4902 19.5371C76.3926 19.334 76.25 19.1875 76.0625 19.0977C75.875 19.0039 75.6445 18.957 75.3711 18.957C75.1016 18.957 74.8555 19.0137 74.6328 19.127C74.4141 19.2402 74.2246 19.3965 74.0645 19.5957C73.9082 19.7949 73.7852 20.0234 73.6953 20.2812C73.6094 20.5352 73.5664 20.8047 73.5664 21.0898ZM83.4805 18.1602H84.4648V24.3652C84.4648 24.9238 84.3516 25.4004 84.125 25.7949C83.8984 26.1895 83.582 26.4883 83.1758 26.6914C82.7734 26.8984 82.3086 27.002 81.7812 27.002C81.5625 27.002 81.3047 26.9668 81.0078 26.8965C80.7148 26.8301 80.4258 26.7148 80.1406 26.5508C79.8594 26.3906 79.623 26.1738 79.4316 25.9004L80 25.2559C80.2656 25.5762 80.543 25.7988 80.832 25.9238C81.125 26.0488 81.4141 26.1113 81.6992 26.1113C82.043 26.1113 82.3398 26.0469 82.5898 25.918C82.8398 25.7891 83.0332 25.5977 83.1699 25.3438C83.3105 25.0938 83.3809 24.7852 83.3809 24.418V19.5547L83.4805 18.1602ZM79.1152 21.4004V21.2773C79.1152 20.793 79.1719 20.3535 79.2852 19.959C79.4023 19.5605 79.5684 19.2188 79.7832 18.9336C80.002 18.6484 80.2656 18.4297 80.5742 18.2773C80.8828 18.1211 81.2305 18.043 81.6172 18.043C82.0156 18.043 82.3633 18.1133 82.6602 18.2539C82.9609 18.3906 83.2148 18.5918 83.4219 18.8574C83.6328 19.1191 83.7988 19.4355 83.9199 19.8066C84.041 20.1777 84.125 20.5977 84.1719 21.0664V21.6055C84.1289 22.0703 84.0449 22.4883 83.9199 22.8594C83.7988 23.2305 83.6328 23.5469 83.4219 23.8086C83.2148 24.0703 82.9609 24.2715 82.6602 24.4121C82.3594 24.5488 82.0078 24.6172 81.6055 24.6172C81.2266 24.6172 80.8828 24.5371 80.5742 24.377C80.2695 24.2168 80.0078 23.9922 79.7891 23.7031C79.5703 23.4141 79.4023 23.0742 79.2852 22.6836C79.1719 22.2891 79.1152 21.8613 79.1152 21.4004ZM80.1992 21.2773V21.4004C80.1992 21.7168 80.2305 22.0137 80.293 22.291C80.3594 22.5684 80.459 22.8125 80.5918 23.0234C80.7285 23.2344 80.9023 23.4004 81.1133 23.5215C81.3242 23.6387 81.5762 23.6973 81.8691 23.6973C82.2285 23.6973 82.5254 23.6211 82.7598 23.4688C82.9941 23.3164 83.1797 23.1152 83.3164 22.8652C83.457 22.6152 83.5664 22.3438 83.6445 22.0508V20.6387C83.6016 20.4238 83.5352 20.2168 83.4453 20.0176C83.3594 19.8145 83.2461 19.6348 83.1055 19.4785C82.9688 19.3184 82.7988 19.1914 82.5957 19.0977C82.3926 19.0039 82.1543 18.957 81.8809 18.957C81.584 18.957 81.3281 19.0195 81.1133 19.1445C80.9023 19.2656 80.7285 19.4336 80.5918 19.6484C80.459 19.8594 80.3594 20.1055 80.293 20.3867C80.2305 20.6641 80.1992 20.9609 80.1992 21.2773Z" fill="black"/>
<path d="M45.8965 33.9434V34.5H42.4065V34.0129L44.1533 32.0684C44.3682 31.8291 44.5342 31.6265 44.6514 31.4604C44.771 31.292 44.854 31.1418 44.9004 31.01C44.9492 30.8757 44.9736 30.739 44.9736 30.5999C44.9736 30.4241 44.937 30.2654 44.8638 30.1238C44.793 29.9797 44.688 29.865 44.5488 29.7795C44.4097 29.6941 44.2412 29.6514 44.0435 29.6514C43.8066 29.6514 43.6089 29.6978 43.4502 29.7905C43.2939 29.8809 43.1768 30.0078 43.0986 30.1714C43.0205 30.335 42.9814 30.5229 42.9814 30.7354H42.304C42.304 30.4351 42.3699 30.1604 42.5017 29.9114C42.6335 29.6624 42.8289 29.4646 43.0876 29.3181C43.3464 29.1692 43.665 29.0947 44.0435 29.0947C44.3804 29.0947 44.6685 29.1545 44.9077 29.2742C45.147 29.3914 45.3301 29.5574 45.457 29.7722C45.5864 29.9846 45.6511 30.2336 45.6511 30.5193C45.6511 30.6755 45.6243 30.8342 45.5706 30.9954C45.5193 31.1541 45.4473 31.3127 45.3545 31.4714C45.2642 31.6301 45.158 31.7864 45.0359 31.9402C44.9163 32.094 44.7881 32.2454 44.6514 32.3943L43.2231 33.9434H45.8965ZM50.2251 32.7056V33.2622H46.3726V32.863L48.7603 29.168H49.3132L48.72 30.2373L47.1416 32.7056H50.2251ZM49.4817 29.168V34.5H48.8042V29.168H49.4817ZM52.5725 30.5376V31.0576H50.4302V30.5376H52.5725ZM51.1553 29.5745H51.8328V33.5186C51.8328 33.6528 51.8535 33.7542 51.895 33.8225C51.9365 33.8909 51.9902 33.936 52.0562 33.958C52.1221 33.98 52.1929 33.991 52.2686 33.991C52.3247 33.991 52.3833 33.9861 52.4443 33.9763C52.5078 33.9641 52.5554 33.9543 52.5872 33.947L52.5908 34.5C52.5371 34.5171 52.4663 34.533 52.3784 34.5476C52.293 34.5647 52.1892 34.5732 52.0671 34.5732C51.9011 34.5732 51.7485 34.5403 51.6094 34.4744C51.4702 34.4084 51.3591 34.2986 51.2761 34.1448C51.1956 33.9885 51.1553 33.7786 51.1553 33.5149V29.5745ZM54.0447 28.875V34.5H53.3672V28.875H54.0447ZM53.8835 32.3687L53.6016 32.3577C53.604 32.0867 53.6443 31.8364 53.7224 31.6069C53.8005 31.375 53.9104 31.1736 54.052 31.0027C54.1936 30.8318 54.3621 30.7 54.5574 30.6072C54.7551 30.512 54.9736 30.4644 55.2129 30.4644C55.4082 30.4644 55.584 30.4912 55.7402 30.5449C55.8965 30.5962 56.0295 30.6792 56.1394 30.7939C56.2517 30.9087 56.3372 31.0576 56.3958 31.2407C56.4543 31.4214 56.4836 31.6423 56.4836 31.9036V34.5H55.8025V31.8962C55.8025 31.6887 55.772 31.5227 55.7109 31.3982C55.6499 31.2712 55.5608 31.1797 55.4436 31.1235C55.3264 31.0649 55.1824 31.0356 55.0115 31.0356C54.843 31.0356 54.6892 31.071 54.55 31.1418C54.4133 31.2126 54.2949 31.3103 54.1948 31.4348C54.0972 31.5593 54.0203 31.7021 53.9641 31.8633C53.9104 32.022 53.8835 32.1904 53.8835 32.3687ZM61.4348 29.6404L59.6697 34.5H58.9482L60.9807 29.168H61.4458L61.4348 29.6404ZM62.9143 34.5L61.1455 29.6404L61.1345 29.168H61.5996L63.6394 34.5H62.9143ZM62.8228 32.5261V33.1047H59.8271V32.5261H62.8228ZM66.6313 33.5845V30.5376H67.3125V34.5H66.6643L66.6313 33.5845ZM66.7595 32.7495L67.0415 32.7422C67.0415 33.0059 67.0134 33.25 66.9573 33.4746C66.9036 33.6968 66.8157 33.8896 66.6936 34.0532C66.5715 34.2168 66.4116 34.345 66.2139 34.4377C66.0161 34.5281 65.7756 34.5732 65.4924 34.5732C65.2996 34.5732 65.1226 34.5452 64.9614 34.489C64.8027 34.4329 64.666 34.3462 64.5513 34.229C64.4365 34.1118 64.3474 33.9592 64.2839 33.7712C64.2229 33.5833 64.1924 33.3574 64.1924 33.0938V30.5376H64.8699V33.1011C64.8699 33.2793 64.8894 33.427 64.9285 33.5442C64.97 33.6589 65.0249 33.7505 65.0933 33.8188C65.1641 33.8848 65.2422 33.9312 65.3276 33.958C65.4155 33.9849 65.5059 33.9983 65.5986 33.9983C65.8867 33.9983 66.115 33.9434 66.2834 33.8335C66.4519 33.7212 66.5728 33.571 66.646 33.3831C66.7217 33.1926 66.7595 32.9814 66.7595 32.7495ZM70.9124 30.5376H71.5276V34.4158C71.5276 34.7649 71.4568 35.0627 71.3152 35.3093C71.1736 35.5559 70.9758 35.7427 70.7219 35.8696C70.4705 35.999 70.1799 36.0637 69.8503 36.0637C69.7136 36.0637 69.5525 36.0417 69.3669 35.9978C69.1838 35.9563 69.0032 35.8843 68.825 35.7817C68.6492 35.6816 68.5015 35.5461 68.3818 35.3752L68.7371 34.9724C68.9031 35.1726 69.0764 35.3118 69.2571 35.3899C69.4402 35.468 69.6208 35.5071 69.7991 35.5071C70.0139 35.5071 70.1995 35.4668 70.3557 35.3862C70.512 35.3057 70.6328 35.186 70.7183 35.0273C70.8062 34.8711 70.8501 34.6782 70.8501 34.4487V31.4092L70.9124 30.5376ZM68.1841 32.5627V32.4858C68.1841 32.1831 68.2195 31.9084 68.2903 31.6619C68.3635 31.4128 68.4673 31.1992 68.6016 31.021C68.7383 30.8428 68.9031 30.7061 69.0959 30.6108C69.2888 30.5132 69.5061 30.4644 69.7478 30.4644C69.9968 30.4644 70.2141 30.5083 70.3997 30.5962C70.5876 30.6816 70.7463 30.8074 70.8757 30.9734C71.0076 31.137 71.1113 31.3347 71.187 31.5667C71.2627 31.7986 71.3152 32.061 71.3445 32.354V32.6909C71.3176 32.9814 71.2651 33.2427 71.187 33.4746C71.1113 33.7065 71.0076 33.9043 70.8757 34.0679C70.7463 34.2314 70.5876 34.3572 70.3997 34.4451C70.2117 34.5305 69.9919 34.5732 69.7405 34.5732C69.5037 34.5732 69.2888 34.5232 69.0959 34.4231C68.9055 34.323 68.7419 34.1826 68.6052 34.002C68.4685 33.8213 68.3635 33.6089 68.2903 33.3647C68.2195 33.1182 68.1841 32.8508 68.1841 32.5627ZM68.8616 32.4858V32.5627C68.8616 32.7605 68.8811 32.946 68.9202 33.1194C68.9617 33.2927 69.0239 33.4453 69.1069 33.5771C69.1924 33.709 69.301 33.8127 69.4329 33.8884C69.5647 33.9617 69.7222 33.9983 69.9053 33.9983C70.1299 33.9983 70.3154 33.9507 70.4619 33.8555C70.6084 33.7603 70.7244 33.6345 70.8098 33.4783C70.8977 33.322 70.9661 33.1523 71.0149 32.9692V32.0867C70.988 31.9524 70.9465 31.823 70.8904 31.6985C70.8367 31.5715 70.7659 31.4592 70.678 31.3616C70.5925 31.2615 70.4863 31.1821 70.3594 31.1235C70.2324 31.0649 70.0835 31.0356 69.9126 31.0356C69.7271 31.0356 69.5671 31.0747 69.4329 31.1528C69.301 31.2285 69.1924 31.3335 69.1069 31.4678C69.0239 31.5996 68.9617 31.7534 68.9202 31.9292C68.8811 32.1025 68.8616 32.2881 68.8616 32.4858Z" fill="#AAAAAA"/>
<path d="M200.96 24.6729V25.811C200.96 26.4229 200.906 26.939 200.796 27.3594C200.687 27.7798 200.53 28.1182 200.325 28.3745C200.12 28.6309 199.872 28.8171 199.581 28.9333C199.294 29.0461 198.969 29.1025 198.607 29.1025C198.32 29.1025 198.055 29.0667 197.812 28.9949C197.57 28.9231 197.351 28.8086 197.156 28.6514C196.965 28.4907 196.801 28.2822 196.664 28.0259C196.527 27.7695 196.423 27.4585 196.351 27.0928C196.28 26.7271 196.244 26.2998 196.244 25.811V24.6729C196.244 24.061 196.298 23.5483 196.408 23.1348C196.521 22.7212 196.679 22.3896 196.885 22.1401C197.09 21.8872 197.336 21.7061 197.623 21.5967C197.913 21.4873 198.238 21.4326 198.597 21.4326C198.887 21.4326 199.154 21.4685 199.397 21.5403C199.643 21.6086 199.862 21.7197 200.053 21.8735C200.244 22.0239 200.407 22.2256 200.54 22.4785C200.677 22.728 200.781 23.0339 200.853 23.3962C200.925 23.7585 200.96 24.1841 200.96 24.6729ZM200.007 25.9648V24.5139C200.007 24.179 199.986 23.885 199.945 23.6321C199.908 23.3757 199.851 23.157 199.776 22.9758C199.701 22.7947 199.605 22.6477 199.489 22.5349C199.376 22.4221 199.245 22.3401 199.094 22.2888C198.947 22.2341 198.781 22.2068 198.597 22.2068C198.371 22.2068 198.171 22.2495 197.997 22.335C197.823 22.417 197.676 22.5486 197.556 22.7297C197.44 22.9109 197.351 23.1484 197.29 23.4424C197.228 23.7363 197.197 24.0935 197.197 24.5139V25.9648C197.197 26.2998 197.216 26.5955 197.254 26.8518C197.295 27.1082 197.354 27.3303 197.433 27.5183C197.512 27.7029 197.607 27.855 197.72 27.9746C197.833 28.0942 197.963 28.1831 198.11 28.2412C198.26 28.2959 198.426 28.3232 198.607 28.3232C198.84 28.3232 199.043 28.2788 199.217 28.1899C199.392 28.1011 199.537 27.9626 199.653 27.7747C199.773 27.5833 199.862 27.3389 199.92 27.0415C199.978 26.7407 200.007 26.3818 200.007 25.9648ZM207.072 28.2207V29H202.186V28.3181L204.631 25.5957C204.932 25.2607 205.165 24.9771 205.329 24.7446C205.496 24.5088 205.612 24.2986 205.677 24.114C205.746 23.926 205.78 23.7346 205.78 23.5398C205.78 23.2937 205.729 23.0715 205.626 22.8733C205.527 22.6716 205.38 22.511 205.185 22.3914C204.99 22.2717 204.754 22.2119 204.478 22.2119C204.146 22.2119 203.869 22.2769 203.647 22.4067C203.428 22.5332 203.264 22.7109 203.155 22.9399C203.045 23.1689 202.991 23.4321 202.991 23.7295H202.042C202.042 23.3091 202.135 22.9246 202.319 22.5759C202.504 22.2273 202.777 21.9504 203.139 21.7454C203.502 21.5369 203.948 21.4326 204.478 21.4326C204.949 21.4326 205.353 21.5164 205.688 21.6838C206.022 21.8479 206.279 22.0803 206.457 22.3811C206.638 22.6785 206.728 23.0271 206.728 23.427C206.728 23.6458 206.691 23.8679 206.615 24.0935C206.544 24.3157 206.443 24.5378 206.313 24.76C206.187 24.9822 206.038 25.2009 205.867 25.4163C205.699 25.6316 205.52 25.8435 205.329 26.052L203.329 28.2207H207.072ZM208.148 28.4976C208.148 28.3369 208.198 28.2019 208.297 28.0925C208.4 27.9797 208.547 27.9233 208.738 27.9233C208.929 27.9233 209.075 27.9797 209.174 28.0925C209.276 28.2019 209.328 28.3369 209.328 28.4976C209.328 28.6548 209.276 28.7881 209.174 28.8975C209.075 29.0068 208.929 29.0615 208.738 29.0615C208.547 29.0615 208.4 29.0068 208.297 28.8975C208.198 28.7881 208.148 28.6548 208.148 28.4976ZM208.154 23.9705C208.154 23.8098 208.203 23.6748 208.302 23.5654C208.405 23.4526 208.552 23.3962 208.743 23.3962C208.935 23.3962 209.08 23.4526 209.179 23.5654C209.281 23.6748 209.333 23.8098 209.333 23.9705C209.333 24.1277 209.281 24.261 209.179 24.3704C209.08 24.4797 208.935 24.5344 208.743 24.5344C208.552 24.5344 208.405 24.4797 208.302 24.3704C208.203 24.261 208.154 24.1277 208.154 23.9705ZM215.675 26.4878V27.2671H210.281V26.7083L213.624 21.5352H214.398L213.568 23.0322L211.358 26.4878H215.675ZM214.634 21.5352V29H213.686V21.5352H214.634ZM217.736 25.447L216.977 25.2522L217.351 21.5352H221.181V22.4119H218.156L217.931 24.4421C218.067 24.3635 218.24 24.29 218.448 24.2217C218.66 24.1533 218.903 24.1191 219.177 24.1191C219.522 24.1191 219.831 24.179 220.104 24.2986C220.378 24.4148 220.61 24.5823 220.802 24.801C220.997 25.0198 221.145 25.283 221.248 25.5906C221.35 25.8982 221.402 26.2417 221.402 26.6211C221.402 26.98 221.352 27.3098 221.253 27.6106C221.157 27.9114 221.012 28.1746 220.817 28.4001C220.622 28.6223 220.376 28.7949 220.079 28.918C219.785 29.041 219.438 29.1025 219.038 29.1025C218.737 29.1025 218.452 29.0615 218.182 28.9795C217.915 28.894 217.676 28.7659 217.464 28.595C217.256 28.4207 217.085 28.2053 216.951 27.949C216.822 27.6892 216.74 27.385 216.705 27.0364H217.608C217.649 27.3167 217.731 27.5525 217.854 27.7439C217.977 27.9353 218.137 28.0806 218.336 28.1797C218.537 28.2754 218.771 28.3232 219.038 28.3232C219.264 28.3232 219.464 28.2839 219.638 28.2053C219.812 28.1267 219.959 28.0139 220.079 27.8669C220.198 27.72 220.289 27.5422 220.351 27.3337C220.416 27.1252 220.448 26.8911 220.448 26.6313C220.448 26.3955 220.416 26.1768 220.351 25.9751C220.286 25.7734 220.188 25.5974 220.058 25.447C219.932 25.2966 219.776 25.1804 219.592 25.0984C219.407 25.0129 219.195 24.9702 218.956 24.9702C218.638 24.9702 218.397 25.0129 218.233 25.0984C218.073 25.1838 217.907 25.3 217.736 25.447ZM228.42 28.0515V25.1958C228.42 24.9771 228.376 24.7874 228.287 24.6267C228.202 24.4626 228.072 24.3362 227.897 24.2473C227.723 24.1584 227.508 24.114 227.251 24.114C227.012 24.114 226.802 24.155 226.621 24.2371C226.443 24.3191 226.303 24.4268 226.2 24.5601C226.101 24.6934 226.052 24.8369 226.052 24.9907H225.103C225.103 24.7925 225.155 24.5959 225.257 24.4011C225.36 24.2063 225.507 24.0303 225.698 23.873C225.893 23.7124 226.125 23.5859 226.395 23.4937C226.669 23.3979 226.973 23.3501 227.308 23.3501C227.711 23.3501 228.067 23.4185 228.374 23.5552C228.685 23.6919 228.928 23.8987 229.102 24.1755C229.28 24.449 229.369 24.7925 229.369 25.2061V27.79C229.369 27.9746 229.384 28.1711 229.415 28.3796C229.449 28.5881 229.499 28.7676 229.564 28.918V29H228.574C228.526 28.8906 228.489 28.7454 228.461 28.5642C228.434 28.3796 228.42 28.2087 228.42 28.0515ZM228.584 25.6367L228.595 26.3032H227.636C227.366 26.3032 227.125 26.3254 226.913 26.3699C226.701 26.4109 226.523 26.4741 226.38 26.5596C226.236 26.645 226.127 26.7527 226.052 26.8826C225.977 27.009 225.939 27.1577 225.939 27.3286C225.939 27.5029 225.978 27.6619 226.057 27.8054C226.135 27.949 226.253 28.0635 226.411 28.1489C226.571 28.231 226.768 28.272 227 28.272C227.291 28.272 227.547 28.2104 227.769 28.0874C227.991 27.9644 228.167 27.814 228.297 27.6362C228.431 27.4585 228.502 27.2859 228.513 27.1184L228.918 27.5747C228.894 27.7183 228.829 27.8772 228.723 28.0515C228.617 28.2258 228.475 28.3933 228.297 28.554C228.123 28.7112 227.915 28.8428 227.672 28.9487C227.433 29.0513 227.163 29.1025 226.862 29.1025C226.486 29.1025 226.156 29.0291 225.872 28.8821C225.592 28.7351 225.373 28.5386 225.216 28.2925C225.062 28.043 224.985 27.7644 224.985 27.4568C224.985 27.1594 225.043 26.8979 225.16 26.6724C225.276 26.4434 225.443 26.2537 225.662 26.1033C225.881 25.9495 226.144 25.8333 226.452 25.7546C226.759 25.676 227.103 25.6367 227.482 25.6367H228.584ZM231.804 24.5549V29H230.851V23.4526H231.753L231.804 24.5549ZM231.609 26.0161L231.168 26.0007C231.172 25.6213 231.221 25.271 231.317 24.9497C231.413 24.625 231.555 24.343 231.743 24.1038C231.931 23.8645 232.165 23.6799 232.445 23.55C232.725 23.4167 233.05 23.3501 233.419 23.3501C233.679 23.3501 233.918 23.3877 234.137 23.4629C234.356 23.5347 234.545 23.6492 234.706 23.8064C234.867 23.9636 234.991 24.1653 235.08 24.4114C235.169 24.6575 235.214 24.9548 235.214 25.3035V29H234.265V25.3496C234.265 25.0591 234.216 24.8267 234.116 24.6523C234.021 24.478 233.884 24.3516 233.706 24.2729C233.529 24.1909 233.32 24.1499 233.081 24.1499C232.801 24.1499 232.566 24.1995 232.378 24.2986C232.19 24.3977 232.04 24.5344 231.927 24.7087C231.814 24.8831 231.732 25.083 231.681 25.3086C231.633 25.5308 231.609 25.7666 231.609 26.0161ZM235.203 25.4932L234.568 25.688C234.571 25.3838 234.621 25.0916 234.716 24.8113C234.815 24.531 234.957 24.2815 235.142 24.0627C235.33 23.844 235.561 23.6714 235.834 23.5449C236.107 23.415 236.42 23.3501 236.772 23.3501C237.07 23.3501 237.333 23.3894 237.562 23.468C237.794 23.5466 237.989 23.668 238.146 23.832C238.307 23.9927 238.428 24.1995 238.51 24.4524C238.592 24.7053 238.633 25.0061 238.633 25.3547V29H237.68V25.3445C237.68 25.0334 237.63 24.7925 237.531 24.6216C237.435 24.4473 237.299 24.3259 237.121 24.2576C236.947 24.1858 236.738 24.1499 236.495 24.1499C236.287 24.1499 236.102 24.1858 235.942 24.2576C235.781 24.3293 235.646 24.4285 235.537 24.5549C235.427 24.678 235.344 24.8198 235.285 24.9805C235.231 25.1411 235.203 25.312 235.203 25.4932Z" fill="black"/>
<line x1="143.125" y1="60.2471" x2="143.125" y2="109.753" stroke="#4CE946" stroke-width="1.5"/>
<path d="M22 105.644C28.749 97.519 48.1917 85.319 71.9711 101.519C101.695 121.769 112.896 97.7692 115.911 92.5192C118.927 87.2692 130.558 47.5192 146.497 54.2692C162.436 61.0192 179.667 101.519 230.5 101.519" stroke="url(#paint1_linear_576_1351)" stroke-width="2.25" stroke-linecap="round"/>
<circle cx="143.125" cy="54.625" r="4.5" fill="white" stroke="#248F21" stroke-width="2.25"/>
<path d="M27.4105 63.15C24.9055 63.15 23.1805 61.905 23.1805 59.865V59.745H24.9505V59.865C24.9505 60.93 25.6255 61.62 27.4105 61.62C29.6005 61.62 30.4105 60.57 30.4105 58.155V57.36H30.2755C29.9005 58.38 28.6555 59.175 26.7505 59.175C24.2755 59.175 22.8655 58.05 22.8655 56.055C22.8655 54.075 24.4255 52.8 27.2455 52.8C30.6805 52.8 32.1205 54.33 32.1205 57.945C32.1205 61.215 30.4405 63.15 27.4105 63.15ZM27.3055 58.02C29.2705 58.02 30.2155 57.345 30.2155 56.16C30.2155 54.96 29.3155 54.345 27.3205 54.345C25.3255 54.345 24.5605 54.945 24.5605 56.175C24.5605 57.42 25.3105 58.02 27.3055 58.02ZM37.6161 63H35.9961V55.545H37.4811V57.795H37.5711C37.7661 56.55 38.5761 55.395 40.4361 55.395C42.1311 55.395 43.0461 56.43 43.2561 57.855H43.3461C43.5411 56.58 44.3811 55.395 46.2711 55.395C48.2061 55.395 49.1811 56.715 49.1811 58.515V63H47.5761V58.95C47.5761 57.48 46.9911 56.85 45.5511 56.85C43.9611 56.85 43.3911 57.66 43.3911 59.31V63H41.7861V58.95C41.7861 57.48 41.2161 56.85 39.7761 56.85C38.1711 56.85 37.6161 57.66 37.6161 59.31V63ZM52.2499 65.55H50.6299V55.545H52.1149V57.615H52.2499C52.5499 56.235 53.5999 55.395 55.3549 55.395C57.6649 55.395 58.9699 56.97 58.9699 59.28C58.9699 61.59 57.6949 63.15 55.3699 63.15C53.6899 63.15 52.6099 62.265 52.3099 60.9H52.2499V65.55ZM52.2499 59.4C52.2499 60.93 53.2249 61.68 54.8149 61.68C56.4199 61.68 57.3499 61.065 57.3499 59.28C57.3499 57.48 56.4049 56.88 54.8449 56.88C53.1799 56.88 52.2499 57.66 52.2499 59.265V59.4ZM61.7128 63H60.0928V52.95H61.7128V57.825H61.8028C62.0578 56.565 62.9728 55.395 64.8778 55.395C66.9328 55.395 67.9378 56.745 67.9378 58.56V63H66.3328V58.95C66.3328 57.45 65.6578 56.85 64.1128 56.85C62.3428 56.85 61.7128 57.81 61.7128 59.385V63Z" fill="black"/>
<path d="M31.5449 137.065V138.753H22.9668V137.303L27.1328 132.759C27.5898 132.243 27.9502 131.798 28.2139 131.423C28.4775 131.048 28.6621 130.711 28.7676 130.412C28.8789 130.107 28.9346 129.812 28.9346 129.524C28.9346 129.12 28.8584 128.766 28.7061 128.461C28.5596 128.15 28.3428 127.907 28.0557 127.731C27.7686 127.55 27.4199 127.459 27.0098 127.459C26.5352 127.459 26.1367 127.562 25.8145 127.767C25.4922 127.972 25.249 128.256 25.085 128.619C24.9209 128.977 24.8389 129.387 24.8389 129.85H22.7207C22.7207 129.105 22.8906 128.426 23.2305 127.811C23.5703 127.189 24.0625 126.697 24.707 126.334C25.3516 125.965 26.1279 125.78 27.0361 125.78C27.8916 125.78 28.6182 125.924 29.2158 126.211C29.8135 126.498 30.2676 126.905 30.5781 127.433C30.8945 127.96 31.0527 128.584 31.0527 129.305C31.0527 129.703 30.9883 130.099 30.8594 130.491C30.7305 130.884 30.5459 131.276 30.3057 131.669C30.0713 132.056 29.793 132.445 29.4707 132.838C29.1484 133.225 28.7939 133.617 28.4072 134.016L25.6387 137.065H31.5449ZM35.6846 131.396H36.9502C37.4424 131.396 37.8496 131.312 38.1719 131.142C38.5 130.972 38.7432 130.737 38.9014 130.438C39.0596 130.14 39.1387 129.797 39.1387 129.41C39.1387 129.006 39.0654 128.66 38.9189 128.373C38.7783 128.08 38.5615 127.854 38.2686 127.696C37.9814 127.538 37.6152 127.459 37.1699 127.459C36.7949 127.459 36.4551 127.535 36.1504 127.688C35.8516 127.834 35.6143 128.045 35.4385 128.32C35.2627 128.59 35.1748 128.912 35.1748 129.287H33.0479C33.0479 128.607 33.2266 128.004 33.584 127.477C33.9414 126.949 34.4277 126.536 35.043 126.237C35.6641 125.933 36.3613 125.78 37.1348 125.78C37.9609 125.78 38.6816 125.918 39.2969 126.193C39.918 126.463 40.4014 126.867 40.7471 127.406C41.0928 127.945 41.2656 128.613 41.2656 129.41C41.2656 129.773 41.1807 130.143 41.0107 130.518C40.8408 130.893 40.5889 131.235 40.2549 131.546C39.9209 131.851 39.5049 132.1 39.0068 132.293C38.5088 132.48 37.9316 132.574 37.2754 132.574H35.6846V131.396ZM35.6846 133.049V131.889H37.2754C38.0254 131.889 38.6641 131.977 39.1914 132.152C39.7246 132.328 40.1582 132.571 40.4922 132.882C40.8262 133.187 41.0693 133.535 41.2217 133.928C41.3799 134.32 41.459 134.736 41.459 135.176C41.459 135.773 41.3506 136.307 41.1338 136.775C40.9229 137.238 40.6211 137.631 40.2285 137.953C39.8359 138.275 39.376 138.519 38.8486 138.683C38.3271 138.847 37.7588 138.929 37.1436 138.929C36.5928 138.929 36.0654 138.853 35.5615 138.7C35.0576 138.548 34.6064 138.322 34.208 138.023C33.8096 137.719 33.4932 137.341 33.2588 136.89C33.0303 136.433 32.916 135.905 32.916 135.308H35.0342C35.0342 135.688 35.1221 136.025 35.2979 136.318C35.4795 136.605 35.7314 136.831 36.0537 136.995C36.3818 137.159 36.7568 137.241 37.1787 137.241C37.624 137.241 38.0078 137.162 38.3301 137.004C38.6523 136.846 38.8984 136.611 39.0684 136.301C39.2441 135.99 39.332 135.615 39.332 135.176C39.332 134.678 39.2354 134.273 39.042 133.963C38.8486 133.652 38.5732 133.424 38.2158 133.277C37.8584 133.125 37.4365 133.049 36.9502 133.049H35.6846ZM45.5371 136.714L45.5283 138.226C45.5283 138.823 45.3789 139.438 45.0801 140.071C44.7812 140.704 44.3857 141.226 43.8936 141.636L42.7598 140.977C42.9238 140.713 43.0732 140.446 43.208 140.177C43.3428 139.907 43.4512 139.62 43.5332 139.315C43.6152 139.011 43.6562 138.674 43.6562 138.305V136.714H45.5371ZM55.9521 125.956V127.116L50.8369 138.753H48.6045L53.7109 127.644H47.084V125.956H55.9521ZM66.0244 131.282V133.374C66.0244 134.376 65.9248 135.231 65.7256 135.94C65.5322 136.644 65.251 137.215 64.8818 137.654C64.5127 138.094 64.0703 138.416 63.5547 138.621C63.0449 138.826 62.4736 138.929 61.8408 138.929C61.3369 138.929 60.8682 138.864 60.4346 138.735C60.0068 138.606 59.6201 138.404 59.2744 138.129C58.9287 137.854 58.6328 137.499 58.3867 137.065C58.1465 136.626 57.959 136.102 57.8242 135.492C57.6953 134.883 57.6309 134.177 57.6309 133.374V131.282C57.6309 130.274 57.7305 129.425 57.9297 128.733C58.1289 128.036 58.4131 127.471 58.7822 127.037C59.1514 126.598 59.5908 126.278 60.1006 126.079C60.6162 125.88 61.1904 125.78 61.8232 125.78C62.333 125.78 62.8018 125.845 63.2295 125.974C63.6631 126.097 64.0498 126.293 64.3896 126.562C64.7354 126.832 65.0283 127.184 65.2686 127.617C65.5146 128.045 65.7021 128.563 65.8311 129.173C65.96 129.776 66.0244 130.479 66.0244 131.282ZM63.9062 133.673V130.966C63.9062 130.456 63.877 130.008 63.8184 129.621C63.7598 129.229 63.6719 128.897 63.5547 128.628C63.4434 128.353 63.3027 128.13 63.1328 127.96C62.9629 127.784 62.7695 127.658 62.5527 127.582C62.3359 127.5 62.0928 127.459 61.8232 127.459C61.4951 127.459 61.2021 127.523 60.9443 127.652C60.6865 127.775 60.4697 127.975 60.2939 128.25C60.1182 128.525 59.9834 128.889 59.8896 129.34C59.8018 129.785 59.7578 130.327 59.7578 130.966V133.673C59.7578 134.188 59.7871 134.643 59.8457 135.035C59.9043 135.428 59.9922 135.765 60.1094 136.046C60.2266 136.321 60.3672 136.55 60.5312 136.731C60.7012 136.907 60.8945 137.036 61.1113 137.118C61.334 137.2 61.5771 137.241 61.8408 137.241C62.1748 137.241 62.4707 137.177 62.7285 137.048C62.9863 136.919 63.2031 136.714 63.3789 136.433C63.5547 136.146 63.6865 135.773 63.7744 135.316C63.8623 134.859 63.9062 134.312 63.9062 133.673ZM69.6191 137.083H69.7949C70.6035 137.083 71.2773 136.978 71.8164 136.767C72.3613 136.55 72.7949 136.251 73.1172 135.87C73.4395 135.489 73.6709 135.041 73.8115 134.525C73.9521 134.01 74.0225 133.45 74.0225 132.847V130.641C74.0225 130.119 73.9668 129.662 73.8555 129.27C73.75 128.871 73.5977 128.54 73.3984 128.276C73.2051 128.007 72.9795 127.805 72.7217 127.67C72.4697 127.535 72.1973 127.468 71.9043 127.468C71.582 127.468 71.292 127.541 71.0342 127.688C70.7822 127.828 70.5684 128.024 70.3926 128.276C70.2227 128.522 70.0908 128.812 69.9971 129.146C69.9092 129.475 69.8652 129.826 69.8652 130.201C69.8652 130.553 69.9062 130.893 69.9883 131.221C70.0762 131.543 70.2051 131.83 70.375 132.082C70.5449 132.334 70.7588 132.533 71.0166 132.68C71.2744 132.826 71.5762 132.899 71.9219 132.899C72.25 132.899 72.5518 132.838 72.8271 132.715C73.1025 132.586 73.3428 132.413 73.5479 132.196C73.7529 131.979 73.9141 131.736 74.0312 131.467C74.1484 131.197 74.2129 130.922 74.2246 130.641L75.0332 130.887C75.0332 131.332 74.9395 131.771 74.752 132.205C74.5703 132.633 74.3154 133.025 73.9873 133.383C73.665 133.734 73.2871 134.016 72.8535 134.227C72.4258 134.438 71.96 134.543 71.4561 134.543C70.8467 134.543 70.3076 134.429 69.8389 134.2C69.376 133.966 68.9893 133.649 68.6787 133.251C68.374 132.853 68.1455 132.396 67.9932 131.88C67.8408 131.364 67.7646 130.822 67.7646 130.254C67.7646 129.639 67.8584 129.062 68.0459 128.522C68.2334 127.983 68.5059 127.509 68.8633 127.099C69.2207 126.683 69.6543 126.36 70.1641 126.132C70.6797 125.897 71.2627 125.78 71.9131 125.78C72.6045 125.78 73.2109 125.915 73.7324 126.185C74.2539 126.454 74.6934 126.826 75.0508 127.301C75.4082 127.775 75.6777 128.326 75.8594 128.953C76.041 129.58 76.1318 130.254 76.1318 130.975V131.722C76.1318 132.478 76.0645 133.207 75.9297 133.91C75.7949 134.607 75.5752 135.255 75.2705 135.853C74.9717 136.444 74.5762 136.966 74.084 137.417C73.5977 137.862 73 138.211 72.291 138.463C71.5879 138.709 70.7617 138.832 69.8125 138.832H69.6191V137.083Z" fill="black"/>
<g clip-path="url(#clip0_576_1351)">
<path d="M98.4256 130.753H92.8565C91.3896 130.753 90.6561 130.753 90.209 130.194C89.3605 129.134 90.3274 126.315 90.9131 125.253C91.1116 126.453 93.1558 126.42 93.9004 126.253C93.4043 125.254 94.0666 124.92 94.3977 124.753L94.3983 124.753C95.875 126.503 99.0325 127.455 99.8062 129.362C100.14 130.186 99.1881 130.753 98.4256 130.753Z" stroke="#248F21" stroke-width="0.703125" stroke-linecap="round" stroke-linejoin="round"/>
<path opacity="0.4" d="M99.8372 129.45C99.8285 129.421 99.8181 129.392 99.8061 129.362C99.3653 128.276 98.1508 127.499 96.9141 126.708C95.9802 126.111 95.0336 125.506 94.3982 124.753L94.3976 124.753C94.0665 124.92 93.4042 125.254 93.9003 126.253C93.1557 126.42 91.1115 126.453 90.913 125.253C90.5143 125.976 89.9391 127.512 89.8799 128.755C91.9593 129.468 93.2417 129.675 94.8858 129.155C95.3843 128.997 95.6336 128.918 95.789 128.929C95.9444 128.94 96.2614 129.088 96.8953 129.383C97.678 129.748 98.7487 129.96 99.8372 129.45Z" fill="#248F21"/>
<path d="M89.875 128.753C89.8767 128.753 89.8783 128.754 89.88 128.755M89.88 128.755C91.9594 129.468 93.2418 129.675 94.8858 129.155C95.3844 128.997 95.6337 128.918 95.7891 128.929C95.9445 128.94 96.2615 129.088 96.8954 129.383C97.6781 129.748 98.7488 129.96 99.8373 129.45C100.072 130.226 99.1608 130.753 98.4256 130.753H92.8565C91.3896 130.753 90.6561 130.753 90.209 130.194C89.938 129.856 89.8522 129.338 89.88 128.755Z" stroke="#248F21" stroke-width="0.703125" stroke-linejoin="round"/>
<path d="M95.625 126.503L96.375 125.753" stroke="#248F21" stroke-width="0.703125" stroke-linecap="round" stroke-linejoin="round"/>
<path d="M96.625 127.253L97.375 126.503" stroke="#248F21" stroke-width="0.703125" stroke-linecap="round" stroke-linejoin="round"/>
</g>
<path d="M88.5029 139.702C88.5029 139.604 88.481 139.514 88.437 139.431C88.3955 139.345 88.3088 139.269 88.177 139.2C88.0476 139.129 87.8523 139.068 87.5911 139.017C87.3713 138.971 87.1724 138.916 86.9941 138.852C86.8184 138.789 86.6682 138.712 86.5437 138.622C86.4216 138.531 86.3276 138.425 86.2617 138.303C86.1958 138.181 86.1628 138.038 86.1628 137.875C86.1628 137.718 86.197 137.571 86.2654 137.431C86.3362 137.292 86.4351 137.169 86.562 137.062C86.6914 136.954 86.8464 136.87 87.0271 136.809C87.2078 136.748 87.4092 136.717 87.6313 136.717C87.9487 136.717 88.2197 136.773 88.4443 136.886C88.6689 136.998 88.8411 137.148 88.9607 137.336C89.0803 137.522 89.1401 137.728 89.1401 137.955H88.4626C88.4626 137.845 88.4297 137.739 88.3638 137.636C88.3003 137.531 88.2063 137.445 88.0818 137.376C87.9597 137.308 87.8096 137.274 87.6313 137.274C87.4434 137.274 87.2908 137.303 87.1736 137.362C87.0588 137.418 86.9746 137.49 86.9209 137.578C86.8696 137.666 86.844 137.759 86.844 137.856C86.844 137.929 86.8562 137.995 86.8806 138.054C86.9075 138.11 86.9539 138.163 87.0198 138.211C87.0857 138.258 87.1785 138.302 87.2981 138.343C87.4177 138.385 87.5703 138.426 87.7559 138.468C88.0806 138.541 88.3479 138.629 88.5579 138.731C88.7678 138.834 88.9241 138.96 89.0266 139.109C89.1292 139.258 89.1804 139.438 89.1804 139.651C89.1804 139.824 89.1438 139.983 89.0706 140.127C88.9998 140.271 88.896 140.395 88.7593 140.5C88.625 140.603 88.4639 140.683 88.2759 140.742C88.0903 140.798 87.8816 140.826 87.6497 140.826C87.3005 140.826 87.0051 140.764 86.7634 140.639C86.5217 140.515 86.3386 140.354 86.2141 140.156C86.0896 139.958 86.0273 139.75 86.0273 139.53H86.7085C86.7183 139.715 86.772 139.863 86.8696 139.973C86.9673 140.08 87.0869 140.157 87.2285 140.204C87.3701 140.248 87.5105 140.27 87.6497 140.27C87.8352 140.27 87.9902 140.245 88.1147 140.196C88.2417 140.147 88.3381 140.08 88.4041 139.995C88.47 139.909 88.5029 139.812 88.5029 139.702ZM91.7292 136.791V137.311H89.5869V136.791H91.7292ZM90.312 135.827H90.9895V139.771C90.9895 139.906 91.0103 140.007 91.0518 140.075C91.0933 140.144 91.147 140.189 91.2129 140.211C91.2788 140.233 91.3496 140.244 91.4253 140.244C91.4814 140.244 91.54 140.239 91.6011 140.229C91.6646 140.217 91.7122 140.207 91.7439 140.2L91.7476 140.753C91.6938 140.77 91.623 140.786 91.5352 140.801C91.4497 140.818 91.3459 140.826 91.2239 140.826C91.0579 140.826 90.9053 140.793 90.7661 140.727C90.627 140.661 90.5159 140.552 90.4329 140.398C90.3523 140.241 90.312 140.031 90.312 139.768V135.827ZM94.1682 140.826C93.8923 140.826 93.6421 140.78 93.4175 140.687C93.1953 140.592 93.0037 140.459 92.8425 140.288C92.6838 140.117 92.5618 139.914 92.4763 139.68C92.3909 139.446 92.3481 139.189 92.3481 138.911V138.757C92.3481 138.435 92.3958 138.148 92.491 137.896C92.5862 137.643 92.7156 137.428 92.8792 137.252C93.0427 137.076 93.2283 136.943 93.4358 136.853C93.6433 136.762 93.8582 136.717 94.0803 136.717C94.3635 136.717 94.6077 136.766 94.8127 136.864C95.0203 136.961 95.1899 137.098 95.3218 137.274C95.4536 137.447 95.5513 137.652 95.6147 137.889C95.6782 138.124 95.71 138.38 95.71 138.658V138.962H92.751V138.409H95.0325V138.358C95.0227 138.182 94.9861 138.011 94.9226 137.845C94.8616 137.679 94.7639 137.542 94.6296 137.435C94.4954 137.328 94.3123 137.274 94.0803 137.274C93.9265 137.274 93.7849 137.307 93.6555 137.373C93.5261 137.436 93.415 137.531 93.3223 137.658C93.2295 137.785 93.1575 137.94 93.1062 138.124C93.0549 138.307 93.0293 138.518 93.0293 138.757V138.911C93.0293 139.099 93.0549 139.276 93.1062 139.442C93.1599 139.605 93.2368 139.75 93.3369 139.874C93.4395 139.999 93.5627 140.096 93.7068 140.167C93.8533 140.238 94.0193 140.273 94.2048 140.273C94.4441 140.273 94.6467 140.224 94.8127 140.127C94.9788 140.029 95.124 139.898 95.2485 139.735L95.6587 140.061C95.5732 140.19 95.4646 140.313 95.3328 140.431C95.2009 140.548 95.0386 140.643 94.8457 140.716C94.6553 140.79 94.4294 140.826 94.1682 140.826ZM97.1785 137.552V142.276H96.4973V136.791H97.1199L97.1785 137.552ZM99.8481 138.739V138.816C99.8481 139.104 99.814 139.371 99.7456 139.618C99.6772 139.862 99.5771 140.074 99.4453 140.255C99.3159 140.436 99.156 140.576 98.9656 140.676C98.7751 140.776 98.5566 140.826 98.3101 140.826C98.0586 140.826 97.8364 140.785 97.6436 140.702C97.4507 140.619 97.2871 140.498 97.1528 140.339C97.0186 140.18 96.9111 139.99 96.8306 139.768C96.7524 139.546 96.6987 139.295 96.6694 139.017V138.607C96.6987 138.314 96.7537 138.052 96.8342 137.82C96.9148 137.588 97.021 137.39 97.1528 137.226C97.2871 137.06 97.4495 136.935 97.6399 136.849C97.8303 136.761 98.05 136.717 98.2991 136.717C98.5481 136.717 98.769 136.766 98.9619 136.864C99.1548 136.959 99.3171 137.096 99.449 137.274C99.5808 137.452 99.6797 137.666 99.7456 137.915C99.814 138.161 99.8481 138.436 99.8481 138.739ZM99.167 138.816V138.739C99.167 138.541 99.1462 138.355 99.1047 138.182C99.0632 138.006 98.9985 137.853 98.9106 137.721C98.8252 137.586 98.7153 137.481 98.5811 137.406C98.4468 137.328 98.2869 137.289 98.1013 137.289C97.9304 137.289 97.7815 137.318 97.6545 137.376C97.53 137.435 97.4238 137.514 97.3359 137.615C97.248 137.712 97.176 137.824 97.1199 137.951C97.0662 138.076 97.0259 138.205 96.999 138.34V139.288C97.0479 139.459 97.1162 139.62 97.2041 139.771C97.292 139.92 97.4092 140.041 97.5557 140.134C97.7021 140.224 97.8865 140.27 98.1086 140.27C98.2917 140.27 98.4492 140.232 98.5811 140.156C98.7153 140.078 98.8252 139.972 98.9106 139.837C98.9985 139.703 99.0632 139.549 99.1047 139.376C99.1462 139.2 99.167 139.013 99.167 138.816ZM103.02 139.702C103.02 139.604 102.998 139.514 102.954 139.431C102.912 139.345 102.825 139.269 102.694 139.2C102.564 139.129 102.369 139.068 102.108 139.017C101.888 138.971 101.689 138.916 101.511 138.852C101.335 138.789 101.185 138.712 101.06 138.622C100.938 138.531 100.844 138.425 100.778 138.303C100.712 138.181 100.679 138.038 100.679 137.875C100.679 137.718 100.714 137.571 100.782 137.431C100.853 137.292 100.952 137.169 101.079 137.062C101.208 136.954 101.363 136.87 101.544 136.809C101.724 136.748 101.926 136.717 102.148 136.717C102.465 136.717 102.736 136.773 102.961 136.886C103.186 136.998 103.358 137.148 103.477 137.336C103.597 137.522 103.657 137.728 103.657 137.955H102.979C102.979 137.845 102.946 137.739 102.88 137.636C102.817 137.531 102.723 137.445 102.598 137.376C102.476 137.308 102.326 137.274 102.148 137.274C101.96 137.274 101.807 137.303 101.69 137.362C101.575 137.418 101.491 137.49 101.438 137.578C101.386 137.666 101.361 137.759 101.361 137.856C101.361 137.929 101.373 137.995 101.397 138.054C101.424 138.11 101.47 138.163 101.536 138.211C101.602 138.258 101.695 138.302 101.815 138.343C101.934 138.385 102.087 138.426 102.272 138.468C102.597 138.541 102.865 138.629 103.074 138.731C103.284 138.834 103.441 138.96 103.543 139.109C103.646 139.258 103.697 139.438 103.697 139.651C103.697 139.824 103.66 139.983 103.587 140.127C103.516 140.271 103.413 140.395 103.276 140.5C103.142 140.603 102.98 140.683 102.792 140.742C102.607 140.798 102.398 140.826 102.166 140.826C101.817 140.826 101.522 140.764 101.28 140.639C101.038 140.515 100.855 140.354 100.731 140.156C100.606 139.958 100.544 139.75 100.544 139.53H101.225C101.235 139.715 101.289 139.863 101.386 139.973C101.484 140.08 101.604 140.157 101.745 140.204C101.887 140.248 102.027 140.27 102.166 140.27C102.352 140.27 102.507 140.245 102.631 140.196C102.758 140.147 102.855 140.08 102.921 139.995C102.987 139.909 103.02 139.812 103.02 139.702Z" fill="#248F21"/>
<path d="M155.922 137.083H156.098C156.906 137.083 157.58 136.978 158.119 136.767C158.664 136.55 159.098 136.251 159.42 135.87C159.742 135.489 159.974 135.041 160.114 134.525C160.255 134.01 160.325 133.45 160.325 132.847V130.641C160.325 130.119 160.27 129.662 160.158 129.27C160.053 128.871 159.9 128.54 159.701 128.276C159.508 128.007 159.282 127.805 159.024 127.67C158.772 127.535 158.5 127.468 158.207 127.468C157.885 127.468 157.595 127.541 157.337 127.688C157.085 127.828 156.871 128.024 156.695 128.276C156.525 128.522 156.394 128.812 156.3 129.146C156.212 129.475 156.168 129.826 156.168 130.201C156.168 130.553 156.209 130.893 156.291 131.221C156.379 131.543 156.508 131.83 156.678 132.082C156.848 132.334 157.062 132.533 157.319 132.68C157.577 132.826 157.879 132.899 158.225 132.899C158.553 132.899 158.854 132.838 159.13 132.715C159.405 132.586 159.646 132.413 159.851 132.196C160.056 131.979 160.217 131.736 160.334 131.467C160.451 131.197 160.516 130.922 160.527 130.641L161.336 130.887C161.336 131.332 161.242 131.771 161.055 132.205C160.873 132.633 160.618 133.025 160.29 133.383C159.968 133.734 159.59 134.016 159.156 134.227C158.729 134.438 158.263 134.543 157.759 134.543C157.149 134.543 156.61 134.429 156.142 134.2C155.679 133.966 155.292 133.649 154.981 133.251C154.677 132.853 154.448 132.396 154.296 131.88C154.144 131.364 154.067 130.822 154.067 130.254C154.067 129.639 154.161 129.062 154.349 128.522C154.536 127.983 154.809 127.509 155.166 127.099C155.523 126.683 155.957 126.36 156.467 126.132C156.982 125.897 157.565 125.78 158.216 125.78C158.907 125.78 159.514 125.915 160.035 126.185C160.557 126.454 160.996 126.826 161.354 127.301C161.711 127.775 161.98 128.326 162.162 128.953C162.344 129.58 162.435 130.254 162.435 130.975V131.722C162.435 132.478 162.367 133.207 162.232 133.91C162.098 134.607 161.878 135.255 161.573 135.853C161.274 136.444 160.879 136.966 160.387 137.417C159.9 137.862 159.303 138.211 158.594 138.463C157.891 138.709 157.064 138.832 156.115 138.832H155.922V137.083ZM171.171 131.177V138.753H169.053V129.243H171.048L171.171 131.177ZM170.828 133.646L170.107 133.638C170.107 132.981 170.189 132.375 170.354 131.818C170.518 131.262 170.758 130.778 171.074 130.368C171.391 129.952 171.783 129.633 172.252 129.41C172.727 129.182 173.274 129.067 173.896 129.067C174.329 129.067 174.725 129.132 175.082 129.261C175.445 129.384 175.759 129.58 176.022 129.85C176.292 130.119 176.497 130.465 176.638 130.887C176.784 131.309 176.857 131.818 176.857 132.416V138.753H174.739V132.601C174.739 132.138 174.669 131.774 174.528 131.511C174.394 131.247 174.197 131.06 173.939 130.948C173.688 130.831 173.386 130.772 173.034 130.772C172.636 130.772 172.296 130.849 172.015 131.001C171.739 131.153 171.514 131.361 171.338 131.625C171.162 131.889 171.033 132.193 170.951 132.539C170.869 132.885 170.828 133.254 170.828 133.646ZM176.726 133.084L175.732 133.304C175.732 132.729 175.812 132.188 175.97 131.678C176.134 131.162 176.371 130.711 176.682 130.324C176.998 129.932 177.388 129.624 177.851 129.401C178.313 129.179 178.844 129.067 179.441 129.067C179.928 129.067 180.361 129.135 180.742 129.27C181.129 129.398 181.457 129.604 181.727 129.885C181.996 130.166 182.201 130.532 182.342 130.983C182.482 131.429 182.553 131.968 182.553 132.601V138.753H180.426V132.592C180.426 132.111 180.355 131.739 180.215 131.476C180.08 131.212 179.887 131.03 179.635 130.931C179.383 130.825 179.081 130.772 178.729 130.772C178.401 130.772 178.111 130.834 177.859 130.957C177.613 131.074 177.405 131.241 177.235 131.458C177.065 131.669 176.937 131.912 176.849 132.188C176.767 132.463 176.726 132.762 176.726 133.084ZM186.859 131.071V142.409H184.741V129.243H186.692L186.859 131.071ZM193.056 133.91V134.095C193.056 134.786 192.974 135.428 192.81 136.02C192.651 136.605 192.414 137.118 192.098 137.558C191.787 137.991 191.403 138.328 190.946 138.568C190.489 138.809 189.962 138.929 189.364 138.929C188.772 138.929 188.254 138.82 187.809 138.604C187.369 138.381 186.997 138.067 186.692 137.663C186.388 137.259 186.142 136.784 185.954 136.239C185.772 135.688 185.644 135.085 185.567 134.429V133.717C185.644 133.02 185.772 132.387 185.954 131.818C186.142 131.25 186.388 130.761 186.692 130.351C186.997 129.94 187.369 129.624 187.809 129.401C188.248 129.179 188.761 129.067 189.347 129.067C189.944 129.067 190.475 129.185 190.938 129.419C191.4 129.647 191.79 129.976 192.106 130.403C192.423 130.825 192.66 131.335 192.818 131.933C192.977 132.524 193.056 133.184 193.056 133.91ZM190.938 134.095V133.91C190.938 133.471 190.896 133.063 190.814 132.688C190.732 132.308 190.604 131.974 190.428 131.687C190.252 131.399 190.026 131.177 189.751 131.019C189.481 130.854 189.156 130.772 188.775 130.772C188.4 130.772 188.078 130.837 187.809 130.966C187.539 131.089 187.313 131.262 187.132 131.484C186.95 131.707 186.81 131.968 186.71 132.267C186.61 132.56 186.54 132.879 186.499 133.225V134.93C186.569 135.352 186.689 135.738 186.859 136.09C187.029 136.441 187.27 136.723 187.58 136.934C187.896 137.139 188.301 137.241 188.793 137.241C189.174 137.241 189.499 137.159 189.769 136.995C190.038 136.831 190.258 136.605 190.428 136.318C190.604 136.025 190.732 135.688 190.814 135.308C190.896 134.927 190.938 134.522 190.938 134.095ZM196.949 125.253V138.753H194.84V125.253H196.949ZM196.58 133.646L195.895 133.638C195.9 132.981 195.991 132.375 196.167 131.818C196.349 131.262 196.601 130.778 196.923 130.368C197.251 129.952 197.644 129.633 198.101 129.41C198.558 129.182 199.064 129.067 199.621 129.067C200.09 129.067 200.512 129.132 200.887 129.261C201.268 129.39 201.596 129.598 201.871 129.885C202.146 130.166 202.354 130.535 202.495 130.992C202.642 131.443 202.715 131.994 202.715 132.645V138.753H200.588V132.627C200.588 132.17 200.521 131.807 200.386 131.537C200.257 131.268 200.066 131.074 199.814 130.957C199.562 130.834 199.255 130.772 198.892 130.772C198.511 130.772 198.174 130.849 197.881 131.001C197.594 131.153 197.354 131.361 197.16 131.625C196.967 131.889 196.82 132.193 196.721 132.539C196.627 132.885 196.58 133.254 196.58 133.646Z" fill="black"/>
<g clip-path="url(#clip1_576_1351)">
<path fill-rule="evenodd" clip-rule="evenodd" d="M219.344 131.503C219.344 131.658 219.47 131.784 219.625 131.784H222.625C222.78 131.784 222.906 131.658 222.906 131.503C222.906 130.374 222.164 129.347 221.125 129.347C220.086 129.347 219.344 130.374 219.344 131.503Z" fill="#248F21"/>
<path fill-rule="evenodd" clip-rule="evenodd" d="M223.188 125.128C223.188 124.921 223.355 124.753 223.563 124.753H224.875C224.984 124.753 225.087 124.8 225.158 124.882C225.23 124.964 225.262 125.073 225.246 125.181L225.157 125.807C225.154 125.828 225.151 125.848 225.148 125.868C225.058 126.5 225.001 126.897 224.841 127.245C224.669 127.619 224.41 127.948 224.087 128.204C223.786 128.442 223.415 128.591 222.822 128.828C222.803 128.836 222.784 128.843 222.764 128.851C222.572 128.928 222.354 128.835 222.277 128.642C222.2 128.45 222.294 128.232 222.486 128.155C223.155 127.887 223.417 127.778 223.621 127.617C223.852 127.434 224.037 127.199 224.16 126.931C224.269 126.695 224.312 126.415 224.414 125.701L224.443 125.503H223.563C223.355 125.503 223.188 125.335 223.188 125.128Z" fill="#248F21"/>
<path fill-rule="evenodd" clip-rule="evenodd" d="M217.092 124.882C217.163 124.8 217.266 124.753 217.375 124.753H218.688C218.895 124.753 219.063 124.921 219.063 125.128C219.063 125.335 218.895 125.503 218.688 125.503H217.807L217.836 125.701C217.938 126.415 217.981 126.695 218.09 126.931C218.213 127.199 218.398 127.434 218.629 127.617C218.833 127.778 219.095 127.887 219.764 128.155C219.957 128.232 220.05 128.45 219.973 128.642C219.896 128.835 219.678 128.928 219.486 128.851C219.466 128.843 219.447 128.836 219.428 128.828C218.835 128.591 218.464 128.442 218.163 128.204C217.84 127.948 217.582 127.619 217.409 127.245C217.249 126.897 217.192 126.5 217.102 125.868C217.099 125.848 217.096 125.828 217.093 125.807L217.004 125.181C216.988 125.073 217.02 124.964 217.092 124.882Z" fill="#248F21"/>
<path fill-rule="evenodd" clip-rule="evenodd" d="M218.412 124.386C218.402 124.016 218.703 123.722 219.063 123.722H223.188C223.549 123.722 223.85 124.016 223.839 124.386C223.796 125.88 223.506 127.232 223.05 128.22C222.606 129.183 221.95 129.909 221.126 129.909C220.301 129.909 219.645 129.183 219.201 128.22C218.745 127.232 218.455 125.88 218.412 124.386Z" fill="#248F21"/>
</g>
<path d="M214.379 133.628H215.061V138.484L215.002 139.253H214.379V133.628ZM217.738 137.239V137.316C217.738 137.604 217.703 137.871 217.635 138.118C217.567 138.362 217.467 138.574 217.335 138.755C217.203 138.936 217.042 139.076 216.851 139.176C216.661 139.276 216.442 139.326 216.196 139.326C215.944 139.326 215.723 139.283 215.533 139.198C215.345 139.11 215.186 138.984 215.057 138.821C214.927 138.657 214.824 138.459 214.746 138.228C214.67 137.996 214.617 137.734 214.588 137.444V137.107C214.617 136.814 214.67 136.552 214.746 136.32C214.824 136.088 214.927 135.89 215.057 135.726C215.186 135.56 215.345 135.435 215.533 135.349C215.721 135.261 215.939 135.217 216.188 135.217C216.438 135.217 216.658 135.266 216.851 135.364C217.044 135.459 217.205 135.596 217.335 135.774C217.467 135.952 217.567 136.166 217.635 136.415C217.703 136.661 217.738 136.936 217.738 137.239ZM217.056 137.316V137.239C217.056 137.041 217.038 136.855 217.001 136.682C216.965 136.506 216.906 136.353 216.826 136.221C216.745 136.086 216.639 135.981 216.507 135.906C216.375 135.828 216.213 135.789 216.02 135.789C215.849 135.789 215.7 135.818 215.573 135.876C215.449 135.935 215.343 136.014 215.255 136.115C215.167 136.212 215.095 136.324 215.039 136.451C214.985 136.576 214.945 136.705 214.918 136.84V137.722C214.957 137.893 215.02 138.058 215.108 138.217C215.198 138.373 215.318 138.501 215.467 138.601C215.618 138.701 215.805 138.751 216.027 138.751C216.21 138.751 216.367 138.715 216.496 138.641C216.628 138.566 216.734 138.462 216.815 138.33C216.898 138.198 216.959 138.046 216.998 137.872C217.037 137.699 217.056 137.513 217.056 137.316ZM220.239 139.326C219.963 139.326 219.713 139.28 219.488 139.187C219.266 139.092 219.074 138.959 218.913 138.788C218.754 138.617 218.632 138.414 218.547 138.18C218.461 137.946 218.419 137.689 218.419 137.411V137.257C218.419 136.935 218.466 136.648 218.562 136.396C218.657 136.143 218.786 135.928 218.95 135.752C219.113 135.576 219.299 135.443 219.506 135.353C219.714 135.262 219.929 135.217 220.151 135.217C220.434 135.217 220.678 135.266 220.883 135.364C221.091 135.461 221.26 135.598 221.392 135.774C221.524 135.947 221.622 136.152 221.685 136.389C221.749 136.624 221.781 136.88 221.781 137.158V137.462H218.822V136.909H221.103V136.858C221.093 136.682 221.057 136.511 220.993 136.345C220.932 136.179 220.834 136.042 220.7 135.935C220.566 135.828 220.383 135.774 220.151 135.774C219.997 135.774 219.855 135.807 219.726 135.873C219.597 135.936 219.486 136.031 219.393 136.158C219.3 136.285 219.228 136.44 219.177 136.624C219.125 136.807 219.1 137.018 219.1 137.257V137.411C219.1 137.599 219.125 137.776 219.177 137.942C219.23 138.105 219.307 138.25 219.407 138.374C219.51 138.499 219.633 138.596 219.777 138.667C219.924 138.738 220.09 138.773 220.275 138.773C220.515 138.773 220.717 138.724 220.883 138.627C221.049 138.529 221.195 138.398 221.319 138.235L221.729 138.561C221.644 138.69 221.535 138.813 221.403 138.931C221.271 139.048 221.109 139.143 220.916 139.216C220.726 139.29 220.5 139.326 220.239 139.326ZM224.879 138.202C224.879 138.104 224.857 138.014 224.813 137.931C224.771 137.845 224.685 137.769 224.553 137.7C224.423 137.629 224.228 137.568 223.967 137.517C223.747 137.471 223.548 137.416 223.37 137.352C223.194 137.289 223.044 137.212 222.919 137.122C222.797 137.031 222.703 136.925 222.637 136.803C222.572 136.681 222.539 136.538 222.539 136.375C222.539 136.218 222.573 136.071 222.641 135.931C222.712 135.792 222.811 135.669 222.938 135.562C223.067 135.454 223.222 135.37 223.403 135.309C223.583 135.248 223.785 135.217 224.007 135.217C224.324 135.217 224.595 135.273 224.82 135.386C225.045 135.498 225.217 135.648 225.336 135.836C225.456 136.022 225.516 136.228 225.516 136.455H224.838C224.838 136.345 224.805 136.239 224.74 136.136C224.676 136.031 224.582 135.945 224.458 135.876C224.335 135.808 224.185 135.774 224.007 135.774C223.819 135.774 223.667 135.803 223.549 135.862C223.435 135.918 223.35 135.99 223.297 136.078C223.245 136.166 223.22 136.259 223.22 136.356C223.22 136.429 223.232 136.495 223.256 136.554C223.283 136.61 223.33 136.663 223.396 136.711C223.461 136.758 223.554 136.802 223.674 136.843C223.793 136.885 223.946 136.926 224.132 136.968C224.456 137.041 224.724 137.129 224.934 137.231C225.144 137.334 225.3 137.46 225.402 137.609C225.505 137.758 225.556 137.938 225.556 138.151C225.556 138.324 225.52 138.483 225.446 138.627C225.375 138.771 225.272 138.895 225.135 139C225.001 139.103 224.84 139.183 224.652 139.242C224.466 139.298 224.257 139.326 224.025 139.326C223.676 139.326 223.381 139.264 223.139 139.139C222.897 139.015 222.714 138.854 222.59 138.656C222.465 138.458 222.403 138.25 222.403 138.03H223.084C223.094 138.215 223.148 138.363 223.245 138.473C223.343 138.58 223.463 138.657 223.604 138.704C223.746 138.748 223.886 138.77 224.025 138.77C224.211 138.77 224.366 138.745 224.49 138.696C224.617 138.647 224.714 138.58 224.78 138.495C224.846 138.409 224.879 138.312 224.879 138.202ZM228.105 135.291V135.811H225.963V135.291H228.105ZM226.688 134.327H227.365V138.271C227.365 138.406 227.386 138.507 227.427 138.575C227.469 138.644 227.523 138.689 227.589 138.711C227.655 138.733 227.725 138.744 227.801 138.744C227.857 138.744 227.916 138.739 227.977 138.729C228.04 138.717 228.088 138.707 228.12 138.7L228.123 139.253C228.07 139.27 227.999 139.286 227.911 139.301C227.825 139.318 227.722 139.326 227.6 139.326C227.434 139.326 227.281 139.293 227.142 139.227C227.003 139.161 226.892 139.052 226.809 138.898C226.728 138.741 226.688 138.531 226.688 138.268V134.327Z" fill="#248F21"/>
<g clip-path="url(#clip2_576_1351)">
<path d="M26.5 164.503C28.5711 164.503 30.25 162.824 30.25 160.753C30.25 158.682 28.5711 157.003 26.5 157.003C24.4289 157.003 22.75 158.682 22.75 160.753C22.75 162.824 24.4289 164.503 26.5 164.503Z" stroke="#248F21" stroke-width="1.125"/>
<path d="M26.5 158.878V160.753L27.4375 161.69" stroke="#248F21" stroke-width="1.125"/>
</g>
<path d="M42.5679 163.769V164.753H37.564V163.907L39.9941 161.256C40.2607 160.956 40.4709 160.696 40.6248 160.477C40.7786 160.258 40.8862 160.062 40.9478 159.887C41.0127 159.71 41.0452 159.537 41.0452 159.37C41.0452 159.134 41.0007 158.927 40.9119 158.749C40.8264 158.568 40.7 158.426 40.5325 158.324C40.365 158.218 40.1616 158.165 39.9224 158.165C39.6455 158.165 39.4131 158.225 39.2251 158.344C39.0371 158.464 38.8953 158.63 38.7996 158.842C38.7039 159.05 38.656 159.289 38.656 159.559H37.4204C37.4204 159.125 37.5195 158.729 37.7178 158.37C37.916 158.008 38.2031 157.72 38.5791 157.509C38.9551 157.293 39.408 157.186 39.9377 157.186C40.4368 157.186 40.8606 157.269 41.2092 157.437C41.5579 157.604 41.8228 157.842 42.0039 158.149C42.1885 158.457 42.2808 158.821 42.2808 159.241C42.2808 159.474 42.2432 159.705 42.168 159.934C42.0928 160.163 41.9851 160.392 41.845 160.621C41.7083 160.846 41.5459 161.073 41.3579 161.302C41.1699 161.528 40.9631 161.757 40.7375 161.99L39.1226 163.769H42.5679ZM44.8237 156.878V164.753H43.5933V156.878H44.8237ZM44.6084 161.774L44.2085 161.769C44.2119 161.386 44.2649 161.032 44.3674 160.708C44.4734 160.383 44.6204 160.101 44.8083 159.862C44.9998 159.619 45.2288 159.433 45.4954 159.303C45.762 159.17 46.0576 159.103 46.3823 159.103C46.6558 159.103 46.9019 159.141 47.1206 159.216C47.3428 159.291 47.5342 159.412 47.6948 159.58C47.8555 159.744 47.9768 159.959 48.0588 160.226C48.1443 160.489 48.187 160.81 48.187 161.19V164.753H46.9463V161.179C46.9463 160.913 46.907 160.701 46.8284 160.544C46.7532 160.386 46.6421 160.274 46.4951 160.205C46.3481 160.134 46.1687 160.098 45.9568 160.098C45.7346 160.098 45.5381 160.142 45.3672 160.231C45.1997 160.32 45.0596 160.441 44.9468 160.595C44.834 160.749 44.7485 160.927 44.6904 161.128C44.6357 161.33 44.6084 161.545 44.6084 161.774ZM55.3545 157.262V164.753H54.1189V158.729L52.2886 159.349V158.329L55.2058 157.262H55.3545ZM59.3997 160.462H60.1379C60.425 160.462 60.6626 160.412 60.8506 160.313C61.042 160.214 61.1838 160.077 61.2761 159.903C61.3684 159.729 61.4146 159.529 61.4146 159.303C61.4146 159.067 61.3718 158.865 61.2864 158.698C61.2043 158.527 61.0779 158.396 60.907 158.303C60.7395 158.211 60.5259 158.165 60.2661 158.165C60.0474 158.165 59.8491 158.209 59.6714 158.298C59.4971 158.384 59.3586 158.507 59.2561 158.667C59.1536 158.824 59.1023 159.012 59.1023 159.231H57.8616C57.8616 158.835 57.9658 158.483 58.1743 158.175C58.3828 157.867 58.6665 157.626 59.0254 157.452C59.3877 157.274 59.7944 157.186 60.2456 157.186C60.7275 157.186 61.1479 157.266 61.5068 157.427C61.8691 157.584 62.1511 157.82 62.3528 158.134C62.5544 158.448 62.6553 158.838 62.6553 159.303C62.6553 159.515 62.6057 159.73 62.5066 159.949C62.4075 160.168 62.2605 160.368 62.0657 160.549C61.8708 160.727 61.6282 160.872 61.3376 160.985C61.0471 161.094 60.7104 161.149 60.3276 161.149H59.3997V160.462ZM59.3997 161.426V160.749H60.3276C60.7651 160.749 61.1377 160.8 61.4453 160.903C61.7563 161.005 62.0093 161.147 62.2041 161.328C62.3989 161.506 62.5408 161.709 62.6296 161.938C62.7219 162.167 62.7681 162.41 62.7681 162.666C62.7681 163.015 62.7048 163.326 62.5784 163.599C62.4553 163.869 62.2793 164.098 62.0503 164.286C61.8213 164.474 61.553 164.616 61.2454 164.712C60.9412 164.808 60.6096 164.855 60.2507 164.855C59.9294 164.855 59.6218 164.811 59.3279 164.722C59.0339 164.633 58.7708 164.502 58.5383 164.327C58.3059 164.15 58.1213 163.929 57.9846 163.666C57.8513 163.399 57.7847 163.092 57.7847 162.743H59.0203C59.0203 162.965 59.0715 163.162 59.1741 163.333C59.28 163.5 59.427 163.632 59.615 163.728C59.8064 163.823 60.0251 163.871 60.2712 163.871C60.531 163.871 60.7549 163.825 60.9429 163.733C61.1309 163.64 61.2744 163.504 61.3735 163.323C61.4761 163.141 61.5273 162.923 61.5273 162.666C61.5273 162.376 61.4709 162.14 61.3582 161.959C61.2454 161.778 61.0847 161.644 60.8762 161.559C60.6677 161.47 60.4216 161.426 60.1379 161.426H59.3997ZM65.2239 160.333V164.753H63.9883V159.206H65.1521L65.2239 160.333ZM65.0239 161.774L64.6035 161.769C64.6035 161.386 64.6514 161.032 64.7471 160.708C64.8428 160.383 64.9829 160.101 65.1675 159.862C65.3521 159.619 65.5811 159.433 65.8545 159.303C66.1313 159.17 66.4509 159.103 66.8132 159.103C67.0662 159.103 67.2969 159.141 67.5054 159.216C67.7173 159.288 67.9001 159.402 68.054 159.559C68.2112 159.717 68.3308 159.918 68.4128 160.164C68.4983 160.41 68.541 160.708 68.541 161.056V164.753H67.3054V161.164C67.3054 160.894 67.2644 160.682 67.1824 160.528C67.1038 160.375 66.9893 160.265 66.8389 160.2C66.6919 160.132 66.5159 160.098 66.3108 160.098C66.0784 160.098 65.8801 160.142 65.7161 160.231C65.5554 160.32 65.4238 160.441 65.3213 160.595C65.2188 160.749 65.1436 160.927 65.0957 161.128C65.0479 161.33 65.0239 161.545 65.0239 161.774ZM68.4641 161.446L67.8848 161.574C67.8848 161.239 67.9309 160.923 68.0232 160.626C68.1189 160.325 68.2573 160.062 68.4385 159.836C68.623 159.607 68.8503 159.428 69.1204 159.298C69.3904 159.168 69.6997 159.103 70.0483 159.103C70.332 159.103 70.585 159.142 70.8071 159.221C71.0327 159.296 71.2241 159.416 71.3813 159.58C71.5386 159.744 71.6582 159.958 71.7402 160.221C71.8223 160.48 71.8633 160.795 71.8633 161.164V164.753H70.6226V161.159C70.6226 160.879 70.5815 160.662 70.4995 160.508C70.4209 160.354 70.3081 160.248 70.1611 160.19C70.0142 160.128 69.8381 160.098 69.6331 160.098C69.4417 160.098 69.2725 160.134 69.1255 160.205C68.9819 160.274 68.8606 160.371 68.7615 160.498C68.6624 160.621 68.5872 160.762 68.5359 160.923C68.488 161.084 68.4641 161.258 68.4641 161.446Z" fill="black"/>
<g clip-path="url(#clip3_576_1351)">
<path d="M98.375 164.128V163.003C98.375 162.589 98.7108 162.253 99.125 162.253H100.625C101.039 162.253 101.375 161.917 101.375 161.503C101.375 161.089 101.039 160.753 100.625 160.753H96.8734C96.4601 160.753 96.125 160.418 96.125 160.005C96.125 159.59 96.462 159.254 96.8766 159.256L98.3719 159.262C98.7873 159.264 99.125 158.928 99.125 158.512V157.378" stroke="#248F21" stroke-width="1.125" stroke-linejoin="round"/>
<path d="M98 158.128L99.125 157.003L100.25 158.128" stroke="#248F21" stroke-width="1.125"/>
<path d="M97.25 163.378L98.375 164.503L99.5 163.378" stroke="#248F21" stroke-width="1.125"/>
</g>
<path d="M113.188 157.262V164.753H111.952V158.729L110.122 159.349V158.329L113.039 157.262H113.188ZM117.233 160.462H117.971C118.258 160.462 118.496 160.412 118.684 160.313C118.875 160.214 119.017 160.077 119.109 159.903C119.201 159.729 119.248 159.529 119.248 159.303C119.248 159.067 119.205 158.865 119.119 158.698C119.037 158.527 118.911 158.396 118.74 158.303C118.573 158.211 118.359 158.165 118.099 158.165C117.88 158.165 117.682 158.209 117.504 158.298C117.33 158.384 117.192 158.507 117.089 158.667C116.987 158.824 116.935 159.012 116.935 159.231H115.695C115.695 158.835 115.799 158.483 116.007 158.175C116.216 157.867 116.5 157.626 116.858 157.452C117.221 157.274 117.627 157.186 118.079 157.186C118.561 157.186 118.981 157.266 119.34 157.427C119.702 157.584 119.984 157.82 120.186 158.134C120.387 158.448 120.488 158.838 120.488 159.303C120.488 159.515 120.439 159.73 120.34 159.949C120.24 160.168 120.094 160.368 119.899 160.549C119.704 160.727 119.461 160.872 119.171 160.985C118.88 161.094 118.543 161.149 118.161 161.149H117.233V160.462ZM117.233 161.426V160.749H118.161C118.598 160.749 118.971 160.8 119.278 160.903C119.589 161.005 119.842 161.147 120.037 161.328C120.232 161.506 120.374 161.709 120.463 161.938C120.555 162.167 120.601 162.41 120.601 162.666C120.601 163.015 120.538 163.326 120.411 163.599C120.288 163.869 120.112 164.098 119.883 164.286C119.654 164.474 119.386 164.616 119.078 164.712C118.774 164.808 118.443 164.855 118.084 164.855C117.762 164.855 117.455 164.811 117.161 164.722C116.867 164.633 116.604 164.502 116.371 164.327C116.139 164.15 115.954 163.929 115.818 163.666C115.684 163.399 115.618 163.092 115.618 162.743H116.853C116.853 162.965 116.905 163.162 117.007 163.333C117.113 163.5 117.26 163.632 117.448 163.728C117.639 163.823 117.858 163.871 118.104 163.871C118.364 163.871 118.588 163.825 118.776 163.733C118.964 163.64 119.107 163.504 119.207 163.323C119.309 163.141 119.36 162.923 119.36 162.666C119.36 162.376 119.304 162.14 119.191 161.959C119.078 161.778 118.918 161.644 118.709 161.559C118.501 161.47 118.255 161.426 117.971 161.426H117.233ZM121.873 164.138C121.873 163.946 121.938 163.786 122.067 163.656C122.197 163.522 122.373 163.456 122.595 163.456C122.821 163.456 122.997 163.522 123.124 163.656C123.253 163.786 123.318 163.946 123.318 164.138C123.318 164.329 123.253 164.49 123.124 164.62C122.997 164.75 122.821 164.814 122.595 164.814C122.373 164.814 122.197 164.75 122.067 164.62C121.938 164.49 121.873 164.329 121.873 164.138ZM129.814 162.092V163.076H124.431L124.39 162.333L127.61 157.288H128.599L127.528 159.124L125.677 162.092H129.814ZM128.881 157.288V164.753H127.646V157.288H128.881ZM134.562 160.333V164.753H133.326V159.206H134.49L134.562 160.333ZM134.362 161.774L133.941 161.769C133.941 161.386 133.989 161.032 134.085 160.708C134.181 160.383 134.321 160.101 134.505 159.862C134.69 159.619 134.919 159.433 135.192 159.303C135.469 159.17 135.789 159.103 136.151 159.103C136.404 159.103 136.635 159.141 136.843 159.216C137.055 159.288 137.238 159.402 137.392 159.559C137.549 159.717 137.669 159.918 137.751 160.164C137.836 160.41 137.879 160.708 137.879 161.056V164.753H136.643V161.164C136.643 160.894 136.602 160.682 136.52 160.528C136.442 160.375 136.327 160.265 136.177 160.2C136.03 160.132 135.854 160.098 135.649 160.098C135.416 160.098 135.218 160.142 135.054 160.231C134.893 160.32 134.762 160.441 134.659 160.595C134.557 160.749 134.481 160.927 134.434 161.128C134.386 161.33 134.362 161.545 134.362 161.774ZM137.802 161.446L137.223 161.574C137.223 161.239 137.269 160.923 137.361 160.626C137.457 160.325 137.595 160.062 137.776 159.836C137.961 159.607 138.188 159.428 138.458 159.298C138.728 159.168 139.038 159.103 139.386 159.103C139.67 159.103 139.923 159.142 140.145 159.221C140.371 159.296 140.562 159.416 140.719 159.58C140.876 159.744 140.996 159.958 141.078 160.221C141.16 160.48 141.201 160.795 141.201 161.164V164.753H139.96V161.159C139.96 160.879 139.919 160.662 139.837 160.508C139.759 160.354 139.646 160.248 139.499 160.19C139.352 160.128 139.176 160.098 138.971 160.098C138.78 160.098 138.61 160.134 138.463 160.205C138.32 160.274 138.198 160.371 138.099 160.498C138 160.621 137.925 160.762 137.874 160.923C137.826 161.084 137.802 161.258 137.802 161.446ZM143.795 159.206V164.753H142.555V159.206H143.795ZM142.473 157.75C142.473 157.562 142.534 157.406 142.657 157.283C142.784 157.156 142.958 157.093 143.18 157.093C143.399 157.093 143.572 157.156 143.698 157.283C143.824 157.406 143.888 157.562 143.888 157.75C143.888 157.934 143.824 158.088 143.698 158.211C143.572 158.334 143.399 158.396 143.18 158.396C142.958 158.396 142.784 158.334 142.657 158.211C142.534 158.088 142.473 157.934 142.473 157.75Z" fill="black"/>
<path fill-rule="evenodd" clip-rule="evenodd" d="M171.469 157.94C171.469 157.474 171.847 157.097 172.313 157.097C172.778 157.097 173.156 157.474 173.156 157.94C173.156 158.406 172.778 158.784 172.313 158.784C171.847 158.784 171.469 158.406 171.469 157.94ZM170.263 159.701C170.039 159.748 169.86 159.816 169.714 159.899C169.441 160.055 169.249 160.282 169.084 160.606C168.991 160.79 168.765 160.864 168.58 160.77C168.396 160.677 168.322 160.451 168.416 160.266C168.627 159.851 168.909 159.495 169.343 159.248C169.771 159.004 170.309 158.887 170.996 158.879L171 158.879L171.508 158.879C171.808 158.879 172.045 159.054 172.18 159.248C172.229 159.319 172.288 159.386 172.35 159.432C172.512 159.554 172.697 159.623 172.899 159.602C173.099 159.58 173.38 159.461 173.72 159.079C173.857 158.924 174.094 158.91 174.249 159.048C174.404 159.185 174.418 159.422 174.28 159.577C173.856 160.054 173.416 160.3 172.978 160.347C172.705 160.377 172.458 160.326 172.244 160.233L171.295 161.677L171.646 162.023C171.935 162.307 172.14 162.664 172.24 163.055L172.489 164.036C172.54 164.237 172.418 164.441 172.217 164.492C172.017 164.543 171.813 164.422 171.762 164.221L171.513 163.24C171.447 162.982 171.312 162.746 171.12 162.557L170.564 162.01C170.388 161.871 170.235 161.751 170.119 161.639C169.994 161.52 169.885 161.387 169.821 161.212C169.772 161.079 169.748 160.938 169.752 160.797C169.756 160.611 169.817 160.449 169.896 160.296C169.971 160.153 170.077 159.988 170.2 159.799L170.209 159.784L170.263 159.701ZM170.207 162.427C170.303 162.244 170.233 162.017 170.05 161.921C169.866 161.825 169.639 161.895 169.543 162.079C169.328 162.488 168.831 162.714 168.341 162.598L168.087 162.537C167.885 162.489 167.683 162.614 167.635 162.815C167.587 163.017 167.712 163.219 167.913 163.267L168.168 163.327C168.974 163.519 169.824 163.156 170.207 162.427Z" fill="#248F21"/>
<path d="M185.438 157.262V164.753H184.202V158.729L182.372 159.349V158.329L185.289 157.262H185.438ZM191.405 157.262V164.753H190.17V158.729L188.339 159.349V158.329L191.257 157.262H191.405ZM195.245 156.878V157.601C195.245 157.816 195.206 158.04 195.127 158.272C195.052 158.501 194.946 158.722 194.81 158.934C194.673 159.142 194.516 159.323 194.338 159.477L193.718 159.088C193.858 158.876 193.97 158.652 194.056 158.416C194.145 158.177 194.189 157.908 194.189 157.611V156.878H195.245ZM202.254 157.262V164.753H201.018V158.729L199.188 159.349V158.329L202.105 157.262H202.254ZM206.299 160.462H207.037C207.324 160.462 207.562 160.412 207.75 160.313C207.941 160.214 208.083 160.077 208.176 159.903C208.268 159.729 208.314 159.529 208.314 159.303C208.314 159.067 208.271 158.865 208.186 158.698C208.104 158.527 207.977 158.396 207.806 158.303C207.639 158.211 207.425 158.165 207.166 158.165C206.947 158.165 206.749 158.209 206.571 158.298C206.396 158.384 206.258 158.507 206.156 158.667C206.053 158.824 206.002 159.012 206.002 159.231H204.761C204.761 158.835 204.865 158.483 205.074 158.175C205.282 157.867 205.566 157.626 205.925 157.452C206.287 157.274 206.694 157.186 207.145 157.186C207.627 157.186 208.047 157.266 208.406 157.427C208.769 157.584 209.051 157.82 209.252 158.134C209.454 158.448 209.555 158.838 209.555 159.303C209.555 159.515 209.505 159.73 209.406 159.949C209.307 160.168 209.16 160.368 208.965 160.549C208.77 160.727 208.528 160.872 208.237 160.985C207.947 161.094 207.61 161.149 207.227 161.149H206.299V160.462ZM206.299 161.426V160.749H207.227C207.665 160.749 208.037 160.8 208.345 160.903C208.656 161.005 208.909 161.147 209.104 161.328C209.298 161.506 209.44 161.709 209.529 161.938C209.621 162.167 209.667 162.41 209.667 162.666C209.667 163.015 209.604 163.326 209.478 163.599C209.355 163.869 209.179 164.098 208.95 164.286C208.721 164.474 208.452 164.616 208.145 164.712C207.841 164.808 207.509 164.855 207.15 164.855C206.829 164.855 206.521 164.811 206.227 164.722C205.933 164.633 205.67 164.502 205.438 164.327C205.205 164.15 205.021 163.929 204.884 163.666C204.751 163.399 204.684 163.092 204.684 162.743H205.92C205.92 162.965 205.971 163.162 206.073 163.333C206.179 163.5 206.326 163.632 206.514 163.728C206.706 163.823 206.925 163.871 207.171 163.871C207.43 163.871 207.654 163.825 207.842 163.733C208.03 163.64 208.174 163.504 208.273 163.323C208.375 163.141 208.427 162.923 208.427 162.666C208.427 162.376 208.37 162.14 208.258 161.959C208.145 161.778 207.984 161.644 207.776 161.559C207.567 161.47 207.321 161.426 207.037 161.426H206.299ZM212.062 156.878V157.601C212.062 157.816 212.022 158.04 211.944 158.272C211.869 158.501 211.763 158.722 211.626 158.934C211.489 159.142 211.332 159.323 211.154 159.477L210.534 159.088C210.674 158.876 210.787 158.652 210.872 158.416C210.961 158.177 211.006 157.908 211.006 157.611V156.878H212.062ZM213.907 156.878V157.601C213.907 157.816 213.868 158.04 213.79 158.272C213.714 158.501 213.608 158.722 213.472 158.934C213.335 159.142 213.178 159.323 213 159.477L212.38 159.088C212.52 158.876 212.633 158.652 212.718 158.416C212.807 158.177 212.851 157.908 212.851 157.611V156.878H213.907ZM218.245 157.288L215.338 165.394H214.369L217.281 157.288H218.245ZM220.337 160.333V164.753H219.101V159.206H220.265L220.337 160.333ZM220.137 161.774L219.716 161.769C219.716 161.386 219.764 161.032 219.86 160.708C219.956 160.383 220.096 160.101 220.28 159.862C220.465 159.619 220.694 159.433 220.967 159.303C221.244 159.17 221.564 159.103 221.926 159.103C222.179 159.103 222.41 159.141 222.618 159.216C222.83 159.288 223.013 159.402 223.167 159.559C223.324 159.717 223.444 159.918 223.526 160.164C223.611 160.41 223.654 160.708 223.654 161.056V164.753H222.418V161.164C222.418 160.894 222.377 160.682 222.295 160.528C222.217 160.375 222.102 160.265 221.952 160.2C221.805 160.132 221.629 160.098 221.424 160.098C221.191 160.098 220.993 160.142 220.829 160.231C220.668 160.32 220.537 160.441 220.434 160.595C220.332 160.749 220.256 160.927 220.208 161.128C220.161 161.33 220.137 161.545 220.137 161.774ZM223.577 161.446L222.998 161.574C222.998 161.239 223.044 160.923 223.136 160.626C223.232 160.325 223.37 160.062 223.551 159.836C223.736 159.607 223.963 159.428 224.233 159.298C224.503 159.168 224.812 159.103 225.161 159.103C225.445 159.103 225.698 159.142 225.92 159.221C226.146 159.296 226.337 159.416 226.494 159.58C226.651 159.744 226.771 159.958 226.853 160.221C226.935 160.48 226.976 160.795 226.976 161.164V164.753H225.735V161.159C225.735 160.879 225.694 160.662 225.612 160.508C225.534 160.354 225.421 160.248 225.274 160.19C225.127 160.128 224.951 160.098 224.746 160.098C224.554 160.098 224.385 160.134 224.238 160.205C224.095 160.274 223.973 160.371 223.874 160.498C223.775 160.621 223.7 160.762 223.649 160.923C223.601 161.084 223.577 161.258 223.577 161.446ZM229.57 159.206V164.753H228.33V159.206H229.57ZM228.248 157.75C228.248 157.562 228.309 157.406 228.432 157.283C228.559 157.156 228.733 157.093 228.955 157.093C229.174 157.093 229.346 157.156 229.473 157.283C229.599 157.406 229.663 157.562 229.663 157.75C229.663 157.934 229.599 158.088 229.473 158.211C229.346 158.334 229.174 158.396 228.955 158.396C228.733 158.396 228.559 158.334 228.432 158.211C228.309 158.088 228.248 157.934 228.248 157.75Z" fill="black"/>
<defs>
<radialGradient id="paint0_radial_576_1351" cx="0" cy="0" r="1" gradientUnits="userSpaceOnUse" gradientTransform="translate(25 25) rotate(90) scale(12)">
<stop stop-color="#46B842"/>
<stop offset="1" stop-color="#B9FFB7"/>
</radialGradient>
<linearGradient id="paint1_linear_576_1351" x1="22" y1="81.5046" x2="230.5" y2="81.5046" gradientUnits="userSpaceOnUse">
<stop stop-color="white"/>
<stop offset="0.2" stop-color="#4CE946"/>
<stop offset="0.8" stop-color="#4CE946"/>
<stop offset="1" stop-color="white"/>
</linearGradient>
<clipPath id="clip0_576_1351">
<rect width="12" height="12" fill="white" transform="translate(88.875 121.753)"/>
</clipPath>
<clipPath id="clip1_576_1351">
<rect width="9" height="9" fill="white" transform="translate(216.625 123.253)"/>
</clipPath>
<clipPath id="clip2_576_1351">
<rect width="9" height="9" fill="white" transform="translate(22 156.253)"/>
</clipPath>
<clipPath id="clip3_576_1351">
<rect width="9" height="9" fill="white" transform="translate(94.25 156.253)"/>
</clipPath>
</defs>
</svg>
