<svg width="452" height="452" viewBox="0 0 452 452" fill="none" xmlns="http://www.w3.org/2000/svg">
<g opacity="0.8" filter="url(#filter0_d_638_241)">
<mask id="path-1-inside-1_638_241" fill="white">
<path d="M20 225.875C20 339.577 112.173 431.75 225.875 431.75C339.577 431.75 431.75 339.577 431.75 225.875C431.75 112.173 339.577 20 225.875 20C112.173 20 20 112.173 20 225.875ZM321.752 225.875C321.752 278.827 278.827 321.753 225.875 321.753C172.923 321.753 129.997 278.827 129.997 225.875C129.997 172.923 172.923 129.998 225.875 129.998C278.827 129.998 321.752 172.923 321.752 225.875Z"/>
</mask>
<path d="M20 225.875C20 339.577 112.173 431.75 225.875 431.75C339.577 431.75 431.75 339.577 431.75 225.875C431.75 112.173 339.577 20 225.875 20C112.173 20 20 112.173 20 225.875ZM321.752 225.875C321.752 278.827 278.827 321.753 225.875 321.753C172.923 321.753 129.997 278.827 129.997 225.875C129.997 172.923 172.923 129.998 225.875 129.998C278.827 129.998 321.752 172.923 321.752 225.875Z" fill="url(#paint0_radial_638_241)"/>
<path d="M20 225.875C20 339.577 112.173 431.75 225.875 431.75C339.577 431.75 431.75 339.577 431.75 225.875C431.75 112.173 339.577 20 225.875 20C112.173 20 20 112.173 20 225.875ZM321.752 225.875C321.752 278.827 278.827 321.753 225.875 321.753C172.923 321.753 129.997 278.827 129.997 225.875C129.997 172.923 172.923 129.998 225.875 129.998C278.827 129.998 321.752 172.923 321.752 225.875Z" stroke="url(#paint1_linear_638_241)" stroke-opacity="0.8" stroke-width="5.4" mask="url(#path-1-inside-1_638_241)"/>
</g>
<defs>
<filter id="filter0_d_638_241" x="0" y="0" width="451.75" height="451.75" filterUnits="userSpaceOnUse" color-interpolation-filters="sRGB">
<feFlood flood-opacity="0" result="BackgroundImageFix"/>
<feColorMatrix in="SourceAlpha" type="matrix" values="0 0 0 0 0 0 0 0 0 0 0 0 0 0 0 0 0 0 127 0" result="hardAlpha"/>
<feOffset/>
<feGaussianBlur stdDeviation="10"/>
<feComposite in2="hardAlpha" operator="out"/>
<feColorMatrix type="matrix" values="0 0 0 0 0.179549 0 0 0 0 0.933654 0 0 0 0 0.204686 0 0 0 1 0"/>
<feBlend mode="normal" in2="BackgroundImageFix" result="effect1_dropShadow_638_241"/>
<feBlend mode="normal" in="SourceGraphic" in2="effect1_dropShadow_638_241" result="shape"/>
</filter>
<radialGradient id="paint0_radial_638_241" cx="0" cy="0" r="1" gradientUnits="userSpaceOnUse" gradientTransform="translate(225.875 225.875) rotate(90) scale(205.875)">
<stop stop-color="#2EEE34"/>
<stop offset="1" stop-color="#76F87A"/>
</radialGradient>
<linearGradient id="paint1_linear_638_241" x1="27.2237" y1="226.724" x2="419.099" y2="221.099" gradientUnits="userSpaceOnUse">
<stop stop-color="#2EEE34" stop-opacity="0"/>
<stop offset="1" stop-color="#2EEE34"/>
</linearGradient>
</defs>
</svg>
