<svg width="32" height="32" viewBox="0 0 32 32" fill="none" xmlns="http://www.w3.org/2000/svg">
<rect width="32" height="32" rx="16" fill="#2EEE34"/>
<rect x="1" y="1" width="30" height="30" rx="15" stroke="#97FF9B" stroke-opacity="0.4" stroke-width="2"/>
<path d="M26 16C26 17.3261 25.4732 18.5979 24.5355 19.5355C23.5979 20.4732 22.3261 21 21 21C19.6739 21 18.4021 20.4732 17.4645 19.5355C16.5268 18.5979 16 17.3261 16 16C16 14.6739 15.4732 13.4021 14.5355 12.4645C13.5979 11.5268 12.3261 11 11 11C9.67392 11 8.40215 11.5268 7.46447 12.4645C6.52678 13.4021 6 14.6739 6 16" stroke="#0C500F" stroke-width="2" stroke-linecap="round" stroke-linejoin="round"/>
<path d="M11 24.6999C9.84633 24.0369 9.00328 22.9427 8.65634 21.6581C8.3094 20.3734 8.48698 19.0036 9.15002 17.8499C9.81306 16.6962 10.9072 15.8532 12.1919 15.5062C13.4765 15.1593 14.8463 15.3369 16 15.9999C16.5647 16.3282 17.1885 16.5421 17.8359 16.6293C18.4832 16.7165 19.1414 16.6754 19.7728 16.5082C20.4043 16.3411 20.9966 16.0512 21.516 15.6551C22.0354 15.2591 22.4717 14.7646 22.8 14.1999C23.1283 13.6352 23.3422 13.0114 23.4294 12.3641C23.5166 11.7167 23.4755 11.0585 23.3083 10.4271C23.1412 9.79567 22.8513 9.20334 22.4553 8.68393C22.0592 8.16452 21.5647 7.72821 21 7.3999" stroke="#0C500F" stroke-width="2" stroke-linecap="round" stroke-linejoin="round"/>
<path d="M11 7.29992C12.1404 6.63688 13.4975 6.45403 14.7728 6.7916C16.048 7.12916 17.137 7.95949 17.8 9.09992C18.463 10.2404 18.6459 11.5975 18.3083 12.8727C17.9708 14.148 17.1404 15.2369 16 15.8999C14.8596 16.563 14.0292 17.6519 13.6917 18.9271C13.3541 20.2024 13.537 21.5595 14.2 22.6999C14.863 23.8404 15.952 24.6707 17.2272 25.0082C18.5025 25.3458 19.8596 25.163 21 24.4999" stroke="#0C500F" stroke-width="2" stroke-linecap="round" stroke-linejoin="round"/>
<path d="M16 26C21.5228 26 26 21.5228 26 16C26 10.4772 21.5228 6 16 6C10.4772 6 6 10.4772 6 16C6 21.5228 10.4772 26 16 26Z" stroke="#0C500F" stroke-width="2" stroke-linecap="round" stroke-linejoin="round"/>
</svg>
