<svg width="840" height="825" viewBox="0 0 840 825" fill="none" xmlns="http://www.w3.org/2000/svg">
<g filter="url(#filter0_df_435_713)">
<g filter="url(#filter1_i_435_713)">
<path d="M464.111 242.726C482.039 246.45 499.307 253.907 514.523 264.494C527.131 273.266 538.035 283.986 546.656 296.035C527.439 294.787 508.322 302.162 494.937 316.465C491.481 312.526 487.492 308.965 483.075 305.893C475.638 300.718 467.198 297.074 458.435 295.253C449.672 293.433 440.832 293.487 432.628 295.413C424.424 297.338 417.085 301.079 411.203 306.336C405.322 311.593 401.062 318.219 398.768 325.677C396.474 333.135 396.209 341.218 397.995 349.273C399.781 357.329 403.569 365.132 409.052 372.053C414.534 378.975 421.559 384.821 429.559 389.119L429.474 389.278C447.904 399.18 463.767 413.074 475.451 429.55C487.135 446.026 494.225 464.497 496.001 483.088C497.778 501.679 494.177 519.728 485.564 535.403C476.952 551.078 463.635 563.82 446.966 572.337C430.296 580.853 410.865 584.841 390.649 583.894C370.432 582.947 350.148 577.101 331.856 566.947C313.565 556.794 297.915 542.695 286.499 526.083C277.73 513.324 271.699 499.43 268.714 485.256C287.748 494.989 309.43 494.439 327.301 485.551C328.933 491.185 331.549 496.675 335.065 501.792C340.646 509.912 348.294 516.803 357.234 521.766C366.175 526.729 376.09 529.587 385.972 530.05C395.853 530.513 405.35 528.563 413.498 524.4C421.646 520.238 428.156 514.009 432.365 506.348C436.574 498.687 438.334 489.864 437.466 480.777C436.597 471.69 433.132 462.662 427.421 454.609C421.71 446.556 413.956 439.764 404.948 434.924L405.034 434.765C388.666 425.971 374.294 414.012 363.077 399.852C351.859 385.691 344.111 369.727 340.456 353.245C336.801 336.764 337.343 320.227 342.037 304.969C346.731 289.71 355.446 276.157 367.48 265.402C379.513 254.647 394.527 246.991 411.312 243.052C428.097 239.113 446.183 239.002 464.111 242.726Z" fill="url(#paint0_radial_435_713)"/>
</g>
<g filter="url(#filter2_i_435_713)">
<path d="M464.112 242.726C482.039 246.45 499.307 253.907 514.523 264.494C527.131 273.267 538.036 283.987 546.656 296.036C527.44 294.787 508.323 302.162 494.938 316.465C491.482 312.526 487.491 308.965 483.075 305.893C475.638 300.718 467.198 297.073 458.435 295.253C449.673 293.432 440.832 293.488 432.628 295.413C424.424 297.338 417.085 301.08 411.204 306.337C405.322 311.594 401.062 318.218 398.768 325.676C396.474 333.134 396.209 341.217 397.995 349.273C399.781 357.328 403.568 365.132 409.051 372.054C414.534 378.975 421.559 384.82 429.559 389.119L429.474 389.279C447.903 399.181 463.766 413.075 475.45 429.551C487.134 446.027 494.224 464.498 496.001 483.089C497.777 501.68 494.176 519.73 485.564 535.404C476.951 551.079 463.635 563.822 446.965 572.338C430.295 580.854 410.865 584.842 390.648 583.895C370.432 582.948 350.147 577.102 331.856 566.948C313.564 556.795 297.915 542.696 286.498 526.084C277.729 513.325 271.698 499.431 268.713 485.257C287.747 494.99 309.429 494.44 327.3 485.552C328.932 491.185 331.548 496.676 335.064 501.793C340.645 509.913 348.293 516.804 357.234 521.767C366.174 526.73 376.089 529.588 385.971 530.051C395.852 530.514 405.349 528.564 413.497 524.401C421.645 520.239 428.155 514.01 432.364 506.349C436.574 498.688 438.333 489.865 437.465 480.778C436.596 471.691 433.131 462.663 427.42 454.61C421.709 446.557 413.956 439.765 404.947 434.925L405.034 434.764C388.666 425.97 374.294 414.012 363.076 399.852C351.859 385.692 344.11 369.727 340.456 353.245C336.801 336.764 337.343 320.227 342.037 304.969C346.731 289.71 355.446 276.156 367.48 265.401C379.513 254.646 394.528 246.99 411.313 243.052C428.098 239.113 446.184 239.001 464.112 242.726Z" fill="url(#paint1_radial_435_713)"/>
</g>
<circle cx="298.293" cy="427.351" r="57.375" transform="rotate(28.2483 298.293 427.351)" fill="url(#paint2_radial_435_713)"/>
<circle cx="542.398" cy="360.937" r="57.375" transform="rotate(28.2483 542.398 360.937)" fill="url(#paint3_radial_435_713)"/>
</g>
<g filter="url(#filter3_df_435_713)">
<g filter="url(#filter4_i_435_713)">
<path d="M463.204 242.713C481.131 246.438 498.399 253.895 513.615 264.481C526.223 273.254 537.128 283.974 545.748 296.023C526.532 294.775 507.415 302.15 494.03 316.452C490.574 312.514 486.584 308.953 482.168 305.881C474.731 300.706 466.291 297.061 457.528 295.241C448.766 293.42 439.925 293.476 431.721 295.401C423.517 297.326 416.177 301.068 410.296 306.324C404.415 311.581 400.154 318.206 397.86 325.663C395.566 333.121 395.301 341.205 397.087 349.26C398.873 357.316 402.661 365.12 408.143 372.041C413.626 378.962 420.652 384.808 428.652 389.107L428.567 389.266C446.997 399.168 462.859 413.062 474.543 429.538C486.228 446.014 493.318 464.485 495.094 483.076C496.87 501.667 493.269 519.717 484.657 535.391C476.045 551.066 462.728 563.809 446.058 572.325C429.388 580.842 409.958 584.829 389.742 583.882C369.525 582.936 349.241 577.089 330.949 566.935C312.657 556.782 297.008 542.683 285.591 526.071C276.823 513.312 270.792 499.419 267.807 485.244C286.84 494.977 308.523 494.427 326.393 485.539C328.025 491.173 330.641 496.663 334.158 501.78C339.738 509.9 347.386 516.791 356.327 521.754C365.268 526.717 375.183 529.575 385.064 530.038C394.946 530.501 404.442 528.551 412.59 524.388C420.738 520.226 427.248 513.998 431.458 506.336C435.667 498.675 437.426 489.852 436.558 480.765C435.69 471.679 432.225 462.65 426.514 454.597C420.803 446.544 413.049 439.752 404.041 434.912L404.127 434.752C387.759 425.958 373.386 413.999 362.169 399.839C350.951 385.679 343.203 369.714 339.549 353.233C335.894 336.752 336.435 320.215 341.129 304.956C345.823 289.698 354.539 276.143 366.572 265.388C378.605 254.634 393.62 246.978 410.405 243.039C427.19 239.1 445.276 238.989 463.204 242.713Z" fill="url(#paint4_radial_435_713)"/>
</g>
<g filter="url(#filter5_i_435_713)">
<path d="M463.204 242.713C481.132 246.438 498.4 253.895 513.615 264.481C526.224 273.254 537.128 283.974 545.749 296.023C526.532 294.775 507.415 302.15 494.03 316.453C490.574 312.514 486.585 308.953 482.169 305.881C474.731 300.706 466.291 297.062 457.528 295.242C448.765 293.421 439.925 293.476 431.721 295.401C423.517 297.326 416.178 301.068 410.296 306.324C404.415 311.581 400.154 318.206 397.86 325.664C395.566 333.122 395.302 341.206 397.088 349.262C398.874 357.317 402.662 365.12 408.145 372.042C413.627 378.963 420.653 384.808 428.653 389.107L428.567 389.266C446.997 399.168 462.86 413.062 474.544 429.538C486.228 446.014 493.318 464.485 495.094 483.076C496.871 501.667 493.27 519.717 484.657 535.391C476.045 551.066 462.728 563.809 446.059 572.325C429.389 580.841 409.958 584.829 389.742 583.882C369.526 582.936 349.241 577.089 330.949 566.935C312.658 556.782 297.009 542.683 285.592 526.071C276.823 513.312 270.792 499.419 267.807 485.244C286.841 494.976 308.523 494.427 326.394 485.539C328.026 491.173 330.642 496.663 334.158 501.78C339.739 509.9 347.387 516.791 356.327 521.754C365.268 526.717 375.183 529.575 385.065 530.038C394.946 530.501 404.443 528.551 412.591 524.388C420.739 520.226 427.249 513.997 431.458 506.336C435.667 498.675 437.427 489.852 436.559 480.765C435.69 471.679 432.225 462.65 426.514 454.597C420.803 446.544 413.049 439.752 404.041 434.912L404.127 434.752C387.76 425.958 373.387 414 362.17 399.84C350.952 385.679 343.204 369.715 339.549 353.233C335.894 336.752 336.435 320.215 341.129 304.956C345.823 289.698 354.539 276.144 366.572 265.389C378.605 254.634 393.62 246.978 410.405 243.039C427.19 239.1 445.277 238.989 463.204 242.713Z" fill="url(#paint5_radial_435_713)"/>
</g>
<circle cx="297.386" cy="427.338" r="57.375" transform="rotate(28.2483 297.386 427.338)" fill="url(#paint6_radial_435_713)"/>
<circle cx="541.491" cy="360.925" r="57.375" transform="rotate(28.2483 541.491 360.925)" fill="url(#paint7_radial_435_713)"/>
</g>
<defs>
<filter id="filter0_df_435_713" x="0.907227" y="0.0126953" width="838.877" height="824.019" filterUnits="userSpaceOnUse" color-interpolation-filters="sRGB">
<feFlood flood-opacity="0" result="BackgroundImageFix"/>
<feColorMatrix in="SourceAlpha" type="matrix" values="0 0 0 0 0 0 0 0 0 0 0 0 0 0 0 0 0 0 127 0" result="hardAlpha"/>
<feOffset/>
<feGaussianBlur stdDeviation="120"/>
<feComposite in2="hardAlpha" operator="out"/>
<feColorMatrix type="matrix" values="0 0 0 0 0.179549 0 0 0 0 0.933654 0 0 0 0 0.204686 0 0 0 1 0"/>
<feBlend mode="normal" in2="BackgroundImageFix" result="effect1_dropShadow_435_713"/>
<feBlend mode="normal" in="SourceGraphic" in2="effect1_dropShadow_435_713" result="shape"/>
<feGaussianBlur stdDeviation="12" result="effect2_foregroundBlur_435_713"/>
</filter>
<filter id="filter1_i_435_713" x="268.714" y="240.013" width="277.942" height="344.018" filterUnits="userSpaceOnUse" color-interpolation-filters="sRGB">
<feFlood flood-opacity="0" result="BackgroundImageFix"/>
<feBlend mode="normal" in="SourceGraphic" in2="BackgroundImageFix" result="shape"/>
<feColorMatrix in="SourceAlpha" type="matrix" values="0 0 0 0 0 0 0 0 0 0 0 0 0 0 0 0 0 0 127 0" result="hardAlpha"/>
<feOffset/>
<feGaussianBlur stdDeviation="13.5"/>
<feComposite in2="hardAlpha" operator="arithmetic" k2="-1" k3="1"/>
<feColorMatrix type="matrix" values="0 0 0 0 0.138668 0 0 0 0 0.838462 0 0 0 0 0.161995 0 0 0 0.6 0"/>
<feBlend mode="normal" in2="shape" result="effect1_innerShadow_435_713"/>
</filter>
<filter id="filter2_i_435_713" x="268.713" y="240.013" width="277.943" height="344.019" filterUnits="userSpaceOnUse" color-interpolation-filters="sRGB">
<feFlood flood-opacity="0" result="BackgroundImageFix"/>
<feBlend mode="normal" in="SourceGraphic" in2="BackgroundImageFix" result="shape"/>
<feColorMatrix in="SourceAlpha" type="matrix" values="0 0 0 0 0 0 0 0 0 0 0 0 0 0 0 0 0 0 127 0" result="hardAlpha"/>
<feOffset/>
<feGaussianBlur stdDeviation="13.5"/>
<feComposite in2="hardAlpha" operator="arithmetic" k2="-1" k3="1"/>
<feColorMatrix type="matrix" values="0 0 0 0 0.138668 0 0 0 0 0.838462 0 0 0 0 0.161995 0 0 0 0.6 0"/>
<feBlend mode="normal" in2="shape" result="effect1_innerShadow_435_713"/>
</filter>
<filter id="filter3_df_435_713" x="0" y="0" width="838.878" height="824.019" filterUnits="userSpaceOnUse" color-interpolation-filters="sRGB">
<feFlood flood-opacity="0" result="BackgroundImageFix"/>
<feColorMatrix in="SourceAlpha" type="matrix" values="0 0 0 0 0 0 0 0 0 0 0 0 0 0 0 0 0 0 127 0" result="hardAlpha"/>
<feOffset/>
<feGaussianBlur stdDeviation="120"/>
<feComposite in2="hardAlpha" operator="out"/>
<feColorMatrix type="matrix" values="0 0 0 0 0.179549 0 0 0 0 0.933654 0 0 0 0 0.204686 0 0 0 1 0"/>
<feBlend mode="normal" in2="BackgroundImageFix" result="effect1_dropShadow_435_713"/>
<feBlend mode="normal" in="SourceGraphic" in2="effect1_dropShadow_435_713" result="shape"/>
<feGaussianBlur stdDeviation="12" result="effect2_foregroundBlur_435_713"/>
</filter>
<filter id="filter4_i_435_713" x="267.807" y="240" width="277.942" height="344.019" filterUnits="userSpaceOnUse" color-interpolation-filters="sRGB">
<feFlood flood-opacity="0" result="BackgroundImageFix"/>
<feBlend mode="normal" in="SourceGraphic" in2="BackgroundImageFix" result="shape"/>
<feColorMatrix in="SourceAlpha" type="matrix" values="0 0 0 0 0 0 0 0 0 0 0 0 0 0 0 0 0 0 127 0" result="hardAlpha"/>
<feOffset/>
<feGaussianBlur stdDeviation="13.5"/>
<feComposite in2="hardAlpha" operator="arithmetic" k2="-1" k3="1"/>
<feColorMatrix type="matrix" values="0 0 0 0 0.138668 0 0 0 0 0.838462 0 0 0 0 0.161995 0 0 0 0.6 0"/>
<feBlend mode="normal" in2="shape" result="effect1_innerShadow_435_713"/>
</filter>
<filter id="filter5_i_435_713" x="267.807" y="240" width="277.942" height="344.019" filterUnits="userSpaceOnUse" color-interpolation-filters="sRGB">
<feFlood flood-opacity="0" result="BackgroundImageFix"/>
<feBlend mode="normal" in="SourceGraphic" in2="BackgroundImageFix" result="shape"/>
<feColorMatrix in="SourceAlpha" type="matrix" values="0 0 0 0 0 0 0 0 0 0 0 0 0 0 0 0 0 0 127 0" result="hardAlpha"/>
<feOffset/>
<feGaussianBlur stdDeviation="13.5"/>
<feComposite in2="hardAlpha" operator="arithmetic" k2="-1" k3="1"/>
<feColorMatrix type="matrix" values="0 0 0 0 0.138668 0 0 0 0 0.838462 0 0 0 0 0.161995 0 0 0 0.6 0"/>
<feBlend mode="normal" in2="shape" result="effect1_innerShadow_435_713"/>
</filter>
<radialGradient id="paint0_radial_435_713" cx="0" cy="0" r="1" gradientUnits="userSpaceOnUse" gradientTransform="translate(417.254 412.022) rotate(118.248) scale(176.906 118.574)">
<stop stop-color="#34B739"/>
<stop offset="1" stop-color="#0E5F12"/>
</radialGradient>
<radialGradient id="paint1_radial_435_713" cx="0" cy="0" r="1" gradientUnits="userSpaceOnUse" gradientTransform="translate(417.254 412.022) rotate(118.248) scale(176.906 118.574)">
<stop stop-color="#7CFF81"/>
<stop offset="1" stop-color="#44F54B"/>
</radialGradient>
<radialGradient id="paint2_radial_435_713" cx="0" cy="0" r="1" gradientUnits="userSpaceOnUse" gradientTransform="translate(298.293 427.351) rotate(90) scale(57.375)">
<stop stop-color="#7CFF81"/>
<stop offset="1" stop-color="#44F54B"/>
</radialGradient>
<radialGradient id="paint3_radial_435_713" cx="0" cy="0" r="1" gradientUnits="userSpaceOnUse" gradientTransform="translate(542.398 360.937) rotate(90) scale(57.375)">
<stop stop-color="#7CFF81"/>
<stop offset="1" stop-color="#44F54B"/>
</radialGradient>
<radialGradient id="paint4_radial_435_713" cx="0" cy="0" r="1" gradientUnits="userSpaceOnUse" gradientTransform="translate(416.346 412.01) rotate(118.248) scale(176.906 118.575)">
<stop stop-color="#34B739"/>
<stop offset="1" stop-color="#0E5F12"/>
</radialGradient>
<radialGradient id="paint5_radial_435_713" cx="0" cy="0" r="1" gradientUnits="userSpaceOnUse" gradientTransform="translate(416.347 412.01) rotate(118.248) scale(176.906 118.575)">
<stop stop-color="#7CFF81"/>
<stop offset="1" stop-color="#44F54B"/>
</radialGradient>
<radialGradient id="paint6_radial_435_713" cx="0" cy="0" r="1" gradientUnits="userSpaceOnUse" gradientTransform="translate(297.386 427.338) rotate(90) scale(57.375)">
<stop stop-color="#7CFF81"/>
<stop offset="1" stop-color="#44F54B"/>
</radialGradient>
<radialGradient id="paint7_radial_435_713" cx="0" cy="0" r="1" gradientUnits="userSpaceOnUse" gradientTransform="translate(541.491 360.925) rotate(90) scale(57.375)">
<stop stop-color="#7CFF81"/>
<stop offset="1" stop-color="#44F54B"/>
</radialGradient>
</defs>
</svg>
