<svg width="309" height="330" viewBox="0 0 309 330" fill="none" xmlns="http://www.w3.org/2000/svg">
<path d="M307.772 136.429C212.172 246.029 65.9004 14.9285 0.900391 149.429" stroke="#2EEE34" stroke-opacity="0.4" stroke-width="2"/>
<path d="M307.772 100.429C212.172 210.029 65.9004 -21.0715 0.900391 113.429" stroke="#2EEE34" stroke-opacity="0.4" stroke-width="2"/>
<path d="M307.772 64.4287C212.172 174.029 65.9004 -57.0715 0.900391 77.4285" stroke="#2EEE34" stroke-opacity="0.4" stroke-width="2"/>
<path d="M307.772 31.4287C212.172 141.029 65.9004 -90.0715 0.900391 44.4285" stroke="#2EEE34" stroke-opacity="0.4" stroke-width="2"/>
<path d="M307.772 163.429C212.172 273.029 65.9004 41.9285 0.900391 176.429" stroke="#2EEE34" stroke-opacity="0.4" stroke-width="2"/>
<path d="M307.772 190.429C212.172 300.029 65.9004 68.9285 0.900391 203.429" stroke="#2EEE34" stroke-opacity="0.4" stroke-width="2"/>
<path d="M307.772 217.429C212.172 327.029 65.9004 95.9285 0.900391 230.429" stroke="#2EEE34" stroke-opacity="0.4" stroke-width="2"/>
<path d="M307.772 244.429C212.172 354.029 65.9004 122.929 0.900391 257.429" stroke="#2EEE34" stroke-opacity="0.4" stroke-width="2"/>
<path d="M307.772 271.429C212.172 381.029 65.9004 149.929 0.900391 284.429" stroke="#2EEE34" stroke-opacity="0.4" stroke-width="2"/>
<path d="M307.772 298.429C212.172 408.029 65.9004 176.929 0.900391 311.429" stroke="#2EEE34" stroke-opacity="0.4" stroke-width="2"/>
</svg>
