<svg width="1200" height="1200" viewBox="0 0 1200 1200" fill="none" xmlns="http://www.w3.org/2000/svg">
<path fill-rule="evenodd" clip-rule="evenodd" d="M530.744 241.703C567.461 230.818 606.658 227.461 645.171 231.905C677.087 235.587 707.794 244.541 735.605 258.209C698.961 274.929 671.038 307.442 660.535 347.047C650.267 343.212 639.391 340.6 628.213 339.31C609.389 337.138 590.231 338.778 572.284 344.098C554.338 349.418 538.104 358.27 524.895 369.938C511.685 381.606 501.867 395.766 496.234 411.273C490.602 426.78 489.311 443.203 492.467 459.215C495.623 475.227 503.136 490.382 514.401 503.456C525.667 516.529 540.369 527.157 557.322 534.481C574.275 541.805 593.005 545.622 612 545.622V546C655.758 546 698.737 555.897 736.574 574.686C774.411 593.476 805.759 620.489 827.435 652.983C849.11 685.477 860.343 722.295 859.992 759.7C859.641 797.104 847.719 833.764 825.436 865.957C803.154 898.149 771.303 924.729 733.118 942.998C694.934 961.266 651.775 970.572 608.022 969.972C564.27 969.372 521.482 958.887 484.003 939.582C455.218 924.754 430.352 905.128 410.821 881.967C455.524 881.058 494.929 858.582 519.057 824.517C527.639 833.28 537.893 840.807 549.437 846.753C567.757 856.19 588.671 861.315 610.056 861.608C631.441 861.901 652.536 857.352 671.2 848.422C689.864 839.493 705.432 826.502 716.323 810.767C727.215 795.032 733.042 777.113 733.214 758.831C733.385 740.548 727.894 722.552 717.3 706.669C706.705 690.787 691.383 677.583 672.89 668.399C654.396 659.215 633.388 654.377 612 654.377V654C573.138 654 534.819 646.193 500.135 631.208C465.451 616.223 435.371 594.479 412.323 567.731C389.275 540.983 373.903 509.979 367.446 477.22C360.99 444.461 363.63 410.862 375.154 379.135C386.678 347.408 406.764 318.44 433.79 294.568C460.816 270.696 494.027 252.587 530.744 241.703Z" fill="white"/>
<circle cx="408" cy="745.998" r="120" fill="#38618C"/>
<circle cx="792.002" cy="381.998" r="120" fill="#2AFF00"/>
</svg>
