<svg width="75" height="23" viewBox="0 0 75 23" fill="none" xmlns="http://www.w3.org/2000/svg">
<circle cx="12.4515" cy="3.78442" r="2.90997" fill="#2BFF00"/>
<circle cx="2.90998" cy="12.7321" r="2.90997" fill="#38618C"/>
<path d="M9.73962 1.5673C10.1412 1.10836 11.0263 0.577516 11.0263 0.577516C11.0263 0.577516 7.5225 -0.986341 4.09784 1.03282C3.08829 1.62805 1.06911 3.32912 2.15787 7.0903C2.15787 7.0903 2.83092 8.67395 4.3156 9.44598C5.95085 10.2963 8.86861 10.6931 8.86861 10.6931C8.86861 10.6931 10.1487 10.9109 10.6106 11.4651C11.2045 12.1778 11.1253 12.8904 11.1253 12.8904C11.1253 12.8904 11.0625 13.7416 10.5116 14.3751C9.96081 15.0086 8.99643 15.1227 7.91841 15.2263C6.88904 15.3253 5.76068 14.7908 5.76068 14.7908C5.76068 14.7908 5.20442 15.4058 4.73131 15.7212C4.01866 16.1963 2.98929 16.2359 2.98929 16.2359C2.98929 16.2359 3.54646 16.8859 4.19682 17.1861C5.2262 17.6612 5.95864 17.8987 7.30475 17.9779C8.6943 18.0597 9.97716 17.9383 11.4025 17.2059C12.5902 16.5955 13.9165 15.1075 14.0749 13.5833C14.2142 12.2421 14.3124 11.8413 13.5602 10.218C13.1819 9.40164 12.412 8.95109 11.5212 8.4562C10.6304 7.96131 7.00781 7.47632 5.95864 6.95173C5.38456 6.66469 5.00845 5.92235 5.00845 5.92235C5.00845 5.92235 4.37498 4.38324 5.78048 3.32912C7.20577 2.26015 9.10615 2.85402 9.10615 2.85402C9.10615 2.85402 9.32391 2.0424 9.73962 1.5673Z" fill="white"/>
<path d="M19.8255 18.273C16.7385 18.273 14.5755 16.026 14.5755 12.813C14.5755 9.558 16.6965 7.311 19.7415 7.311C22.8495 7.311 24.8235 9.39 24.8235 12.624V13.401L17.0115 13.422C17.2005 15.249 18.1665 16.173 19.8675 16.173C21.2745 16.173 22.1985 15.627 22.4925 14.64H24.8655C24.4245 16.908 22.5345 18.273 19.8255 18.273ZM19.7625 9.411C18.2505 9.411 17.3265 10.23 17.0745 11.784H22.2825C22.2825 10.356 21.2955 9.411 19.7625 9.411ZM25.2149 12.687C25.2149 9.432 27.1469 7.311 30.0659 7.311C31.6409 7.311 33.0059 8.004 33.6359 9.201L33.8039 7.626H36.1559V22.809H33.6149V16.614C32.9639 17.664 31.5989 18.273 30.0659 18.273C26.9789 18.273 25.2149 15.921 25.2149 12.687ZM27.7769 12.813C27.7769 14.661 28.8689 15.963 30.6539 15.963C32.4389 15.963 33.5939 14.682 33.5939 12.813C33.5939 10.944 32.4389 9.642 30.6539 9.642C28.8689 9.642 27.7769 10.965 27.7769 12.813ZM44.8109 7.626H47.3729V18H44.9999L44.8109 16.614C44.1809 17.601 42.8369 18.273 41.4509 18.273C39.0569 18.273 37.6499 16.656 37.6499 14.115V7.626H40.2119V13.212C40.2119 15.186 40.9889 15.984 42.4169 15.984C44.0339 15.984 44.8109 15.039 44.8109 13.065V7.626ZM48.155 12.792C48.155 9.558 50.486 7.332 53.699 7.332C56.912 7.332 59.243 9.558 59.243 12.792C59.243 16.026 56.912 18.252 53.699 18.252C50.486 18.252 48.155 16.026 48.155 12.792ZM50.717 12.792C50.717 14.682 51.935 15.963 53.699 15.963C55.463 15.963 56.681 14.682 56.681 12.792C56.681 10.902 55.463 9.621 53.699 9.621C51.935 9.621 50.717 10.902 50.717 12.792ZM66.7337 7.584V9.957H65.7887C63.9407 9.957 62.7857 10.944 62.7857 12.96V18H60.2237V7.647H62.6387L62.7857 9.159C63.2267 8.13 64.2137 7.437 65.5997 7.437C65.9567 7.437 66.3137 7.479 66.7337 7.584ZM73.9279 7.584V9.957H72.9829C71.1349 9.957 69.9799 10.944 69.9799 12.96V18H67.4179V7.647H69.8329L69.9799 9.159C70.4209 8.13 71.4079 7.437 72.7939 7.437C73.1509 7.437 73.5079 7.479 73.9279 7.584Z" fill="white"/>
</svg>
