<svg width="1601" height="495" viewBox="0 0 1601 495" fill="none" xmlns="http://www.w3.org/2000/svg">
<g opacity="0.4">
<circle cx="267.901" cy="81.4256" r="62.6097" fill="#4A4A4A"/>
<circle cx="62.6097" cy="273.942" r="62.6097" fill="#4A4A4A"/>
<path d="M209.554 33.7215C218.194 23.8471 237.239 12.4256 237.239 12.4256C237.239 12.4256 161.852 -21.2217 88.1681 22.2217C66.4469 35.0284 23.0029 71.6281 46.4283 152.552C46.4283 152.552 60.9094 186.625 92.8532 203.236C128.037 221.532 190.814 230.069 190.814 230.069C190.814 230.069 218.357 234.754 228.295 246.68C241.072 262.013 239.368 277.346 239.368 277.346C239.368 277.346 238.017 295.66 226.165 309.289C214.313 322.919 193.564 325.374 170.37 327.604C148.222 329.733 123.945 318.234 123.945 318.234C123.945 318.234 111.977 331.466 101.797 338.252C86.4644 348.474 64.3168 349.326 64.3168 349.326C64.3168 349.326 76.3047 363.311 90.2977 369.77C112.445 379.992 128.204 385.103 157.167 386.806C187.064 388.565 214.665 385.954 245.331 370.195C270.886 357.063 299.423 325.048 302.83 292.253C305.828 263.396 307.941 254.772 291.756 219.847C283.616 202.282 267.053 192.588 247.887 181.94C228.721 171.293 150.778 160.858 128.204 149.571C115.853 143.395 107.76 127.423 107.76 127.423C107.76 127.423 94.1309 94.3081 124.371 71.628C155.037 48.6286 195.925 61.4061 195.925 61.4061C195.925 61.4061 200.61 43.9435 209.554 33.7215Z" fill="#4A4A4A"/>
<path d="M426.557 397.155C360.138 397.155 313.6 348.809 313.6 279.68C313.6 209.646 359.234 161.301 424.749 161.301C491.62 161.301 534.092 206.032 534.092 275.613V292.331L366.012 292.783C370.078 332.092 390.862 351.972 427.46 351.972C457.733 351.972 477.613 340.225 483.939 318.989H534.995C525.507 367.786 484.842 397.155 426.557 397.155ZM425.201 206.484C392.67 206.484 372.789 224.105 367.367 257.54H479.421C479.421 226.816 458.185 206.484 425.201 206.484ZM542.514 276.969C542.514 206.935 584.082 161.301 646.886 161.301C680.773 161.301 710.142 176.211 723.697 201.965L727.312 168.078H777.917V494.75H723.245V361.461C709.239 384.052 679.87 397.155 646.886 397.155C580.468 397.155 542.514 346.55 542.514 276.969ZM597.637 279.68C597.637 319.441 621.132 347.454 659.538 347.454C697.943 347.454 722.794 319.892 722.794 279.68C722.794 239.467 697.943 211.454 659.538 211.454C621.132 211.454 597.637 239.919 597.637 279.68ZM964.133 168.078H1019.26V391.281H968.2L964.133 361.461C950.578 382.697 921.661 397.155 891.841 397.155C840.332 397.155 810.06 362.364 810.06 307.693V168.078H865.183V288.264C865.183 330.736 881.901 347.906 912.625 347.906C947.416 347.906 964.133 327.573 964.133 285.102V168.078ZM1036.08 279.228C1036.08 209.646 1086.24 161.753 1155.37 161.753C1224.5 161.753 1274.65 209.646 1274.65 279.228C1274.65 348.809 1224.5 396.703 1155.37 396.703C1086.24 396.703 1036.08 348.809 1036.08 279.228ZM1091.21 279.228C1091.21 319.892 1117.41 347.454 1155.37 347.454C1193.32 347.454 1219.53 319.892 1219.53 279.228C1219.53 238.563 1193.32 211.002 1155.37 211.002C1117.41 211.002 1091.21 238.563 1091.21 279.228ZM1435.82 167.174V218.231H1415.48C1375.72 218.231 1350.87 239.467 1350.87 282.842V391.281H1295.75V168.53H1347.71L1350.87 201.062C1360.36 178.922 1381.6 164.012 1411.42 164.012C1419.1 164.012 1426.78 164.915 1435.82 167.174ZM1590.6 167.174V218.231H1570.27C1530.51 218.231 1505.66 239.467 1505.66 282.842V391.281H1450.54V168.53H1502.5L1505.66 201.062C1515.15 178.922 1536.38 164.012 1566.2 164.012C1573.89 164.012 1581.57 164.915 1590.6 167.174Z" fill="#4A4A4A"/>
</g>
</svg>
